<?xml version="1.0" encoding="UTF-8"?>
<svg width="45px" height="45px" viewBox="0 0 45 45" version="1.1" xmlns="http://www.w3.org/2000/svg" xmlns:xlink="http://www.w3.org/1999/xlink">
    <title>编组</title>
    <g id="页面-1" stroke="none" stroke-width="1" fill="none" fill-rule="evenodd">
        <g id="编组">
            <rect id="矩形" fill="#F2EEFF" fill-rule="nonzero" x="0" y="0" width="45" height="45" rx="10"></rect>
            <g transform="translate(12.000000, 11.959972)" id="路径" stroke="#6644D9" stroke-linecap="square" stroke-width="1.91">
                <path d="M16.17,21.04 L4.83,21.04 C3.549,21.04 2.3205,20.5311 1.4147,19.6253 C0.5089,18.7195 0,17.491 0,16.21 L0,16.21 C0.0003,15.0172 0.442,13.8666 1.24,12.98 L8.59,4.81 L12.41,4.81 L19.76,12.98 C20.558,13.8666 20.9997,15.0172 21,16.21 L21,16.21 C21,17.491 20.4911,18.7195 19.5853,19.6253 C18.6795,20.5311 17.451,21.04 16.17,21.04 L16.17,21.04 Z"></path>
                <path d="M14.3197,0.04 L13.9297,2.04 C13.764,2.8259 13.3323,3.5306 12.7075,4.0352 C12.0826,4.5398 11.3028,4.8135 10.4997,4.81003316 L10.4997,4.81003316 C9.6909,4.8116 8.9067,4.5323 8.2811,4.0197 C7.6555,3.5072 7.2273,2.7933 7.0697,2 L6.6797,0 L14.3197,0.04 Z"></path>
                <line x1="17.1804" y1="1.95" x2="13.3604" y2="3.86"></line>
                <line x1="18.1402" y1="4.81" x2="12.4102" y2="4.81"></line>
                <path d="M8.5898,16.27 L10.9798,16.27 C11.3591,16.27 11.7228,16.1193 11.991,15.8512 C12.2591,15.583 12.409834,15.2193 12.409834,14.84 L12.409834,14.84 C12.4111,14.6514 12.3751,14.4644 12.3038,14.2897 C12.2326,14.115 12.1274,13.9562 11.9945,13.8224 C11.8616,13.6885 11.7035,13.5823 11.5294,13.5098 C11.3552,13.4373 11.1684,13.4 10.9798,13.4 L9.9798,13.4 C9.6005,13.4 9.2368,13.2493 8.9686,12.9812 C8.7005,12.713 8.5497998,12.3493 8.5497998,11.97 L8.5497998,11.97 C8.5497,11.7788 8.588,11.5895 8.6624,11.4134 C8.7367,11.2372 8.8456,11.0778 8.9827,10.9444 C9.1197,10.8111 9.2821,10.7066 9.4603,10.6372 C9.6384,10.5677 9.8287,10.5347 10.0198,10.54 L12.409834,10.54"></path>
                <line x1="10.5" y1="9.59" x2="10.5" y2="10.54"></line>
                <line x1="10.5" y1="16.27" x2="10.5" y2="17.22"></line>
            </g>
        </g>
    </g>
</svg>