<?xml version="1.0" encoding="UTF-8"?>
<svg width="23px" height="23px" viewBox="0 0 23 23" version="1.1" xmlns="http://www.w3.org/2000/svg" xmlns:xlink="http://www.w3.org/1999/xlink">
    <title>编组</title>
    <g id="页面-1" stroke="none" stroke-width="1" fill="none" fill-rule="evenodd" stroke-linecap="square">
        <g id="编组" transform="translate(1.000000, 1.000000)" stroke="#FFFFFF" stroke-width="1.91">
            <path d="M16.17,21.03995 L4.83,21.03995 C3.549,21.03995 2.32047,20.53115 1.41467,19.62535 C0.50887,18.71955 0,17.49095 0,16.20995 L0,16.20995 C0.0003,15.01715 0.442,13.86665 1.24,12.97995 L8.59,4.81 L12.41,4.81 L19.76,12.97995 C20.558,13.86665 20.9997,15.01715 21,16.20995 L21,16.20995 C21,17.49095 20.4911,18.71955 19.5853,19.62535 C18.6795,20.53115 17.451,21.03995 16.17,21.03995 L16.17,21.03995 Z" id="路径"></path>
            <path d="M14.3197,0.04 L13.9297,2.04 C13.764,2.82589 13.3323,3.53058 12.7075,4.03519 C12.0826,4.53981 11.3028,4.81347 10.4997,4.8100326 L10.4997,4.8100326 C9.6909,4.81159 8.9067,4.53225 8.2811,4.01971 C7.65546,3.50717 7.22727,2.79326 7.06969,2 L6.67969,-4.4408921e-16 L14.3197,0.04 Z" id="路径"></path>
            <line x1="17.1804" y1="1.95001" x2="13.3604" y2="3.86001" id="路径"></line>
            <line x1="18.1402" y1="4.81" x2="12.4102" y2="4.81" id="路径"></line>
            <path d="M8.5898,16.26995 L10.9798,16.26995 C11.3591,16.26995 11.7228,16.11935 11.991,15.85115 C12.2591,15.58295 12.409834,15.21925 12.409834,14.83995 L12.409834,14.83995 C12.4111,14.65135 12.3751,14.46435 12.3038,14.28965 C12.2326,14.11505 12.1274,13.95625 11.9945,13.82235 C11.8616,13.68855 11.7035,13.58225 11.5294,13.50975 C11.3552,13.43725 11.1684,13.39995 10.9798,13.39995 L9.9798,13.39995 C9.6005,13.39995 9.2368,13.24935 8.9686,12.98115 C8.7005,12.71295 8.5497998,12.34925 8.5497998,11.96995 L8.5497998,11.96995 C8.5497,11.77875 8.588,11.58955 8.6624,11.41335 C8.7367,11.23715 8.8456,11.07775 8.9827,10.94445 C9.1197,10.81105 9.2821,10.70665 9.4603,10.63715 C9.6384,10.56765 9.8287,10.53465 10.0198,10.53995 L12.409834,10.53995" id="路径"></path>
            <line x1="10.5" y1="9.58995" x2="10.5" y2="10.53995" id="路径"></line>
            <line x1="10.5" y1="16.26995" x2="10.5" y2="17.21995" id="路径"></line>
        </g>
    </g>
</svg>