<?xml version="1.0" encoding="UTF-8"?>
<svg width="45px" height="45px" viewBox="0 0 45 45" version="1.1" xmlns="http://www.w3.org/2000/svg" xmlns:xlink="http://www.w3.org/1999/xlink">
    <title>编组</title>
    <defs>
        <linearGradient x1="0%" y1="12.2749556%" x2="60.4257844%" y2="72.1146667%" id="linearGradient-1">
            <stop stop-color="#EC008C" offset="0%"></stop>
            <stop stop-color="#FC6767" offset="100%"></stop>
        </linearGradient>
    </defs>
    <g id="页面-1" stroke="none" stroke-width="1" fill="none" fill-rule="evenodd">
        <g id="编组">
            <rect id="矩形" fill="url(#linearGradient-1)" fill-rule="nonzero" x="0" y="0" width="45" height="45" rx="10"></rect>
            <g transform="translate(12.000003, 11.499756)" id="路径" stroke="#F2EEFF" stroke-linecap="square" stroke-width="1.91">
                <path d="M10.5,3.34024408 C10.5,4.12024408 9.67,4.82024408 8.39,5.25024408 C7.3775,5.58444408 6.3161,5.74664408 5.25,5.73024408 C4.1839,5.74664408 3.1225,5.58444408 2.11,5.25024408 C0.83,4.82024408 0,4.12024408 0,3.34024408 C0,2.02024408 2.35,0.950244081 5.25,0.950244081 C8.15,0.950244081 10.5,2.02024408 10.5,3.34024408 Z"></path>
                <path d="M10.5,3.34024408 L10.5,7.16024408 C10.5,7.94024408 9.67,8.64024408 8.39,9.07024408 C7.3763,9.39964408 6.3158,9.56174408 5.25,9.55024408 C4.1842,9.56174408 3.1237,9.39964408 2.11,9.07024408 C0.83,8.64024408 0,7.94024408 0,7.16024408 L0,3.34024408 C0,4.12024408 0.83,4.82024408 2.11,5.25024408 C3.1225,5.58444408 4.1839,5.74664408 5.25,5.73024408 C6.3161,5.74664408 7.3775,5.58444408 8.39,5.25024408 C9.67,4.82024408 10.5,4.12024408 10.5,3.34024408 Z"></path>
                <path d="M10.5,7.16024408 L10.5,10.9802441 C10.5,11.7602441 9.67,12.4602441 8.39,12.8902441 C7.3757,13.2158441 6.3152,13.3745441 5.25,13.3602441 C4.1848,13.3745441 3.1243,13.2158441 2.11,12.8902441 C0.83,12.5002441 0,11.7602441 0,10.9802441 L0,7.16024408 C0,7.94024408 0.83,8.64024408 2.11,9.07024408 C3.1237,9.39954408 4.1842,9.56164408 5.25,9.55024408 C6.3158,9.56164408 7.3763,9.39954408 8.39,9.07024408 C9.67,8.64024408 10.5,7.94024408 10.5,7.16024408 Z"></path>
                <path d="M10.5,10.9802441 L10.5,14.8002441 C10.5,16.1102441 8.15,17.1802441 5.25,17.1802441 C2.35,17.1802441 0,16.1102441 0,14.8002441 L0,10.9802441 C0,11.7602441 0.83,12.4602441 2.11,12.8902441 C3.1243,13.2158441 4.1848,13.3745441 5.25,13.3602441 C6.3152,13.3745441 7.3757,13.2158441 8.39,12.8902441 C9.67,12.5002441 10.5,11.7602441 10.5,10.9802441 Z"></path>
                <path d="M21,10.9802441 L21,14.8002441 C21,16.1102441 18.65,17.1802441 15.75,17.1802441 C12.85,17.1802441 10.5,16.1102441 10.5,14.8002441 L10.5,10.9802441 C10.5,11.7602441 11.33,12.4602441 12.61,12.8902441 C13.6243,13.2158441 14.6848,13.3745441 15.75,13.3602441 C16.8152,13.3745441 17.8757,13.2158441 18.89,12.8902441 C20.17,12.5002441 21,11.7602441 21,10.9802441 Z"></path>
                <path d="M10.5,10.9802441 L10.5,18.6102441 C10.5,19.9302441 8.15,21.0002441 5.25,21.0002441 C2.35,21.0002441 0,19.9302441 0,18.6102441 L0,10.9802441"></path>
                <path d="M21,11.9802441 L21,18.6102441 C21,19.9302441 18.65,21.0002441 15.75,21.0002441 C12.85,21.0002441 10.5,19.9302441 10.5,18.6102441 L10.5,10.9802441"></path>
                <path d="M21.0000071,5.25024408 C21.0000071,6.28864408 20.6921,7.30364408 20.1152,8.16694408 C19.5383,9.03034408 18.7184,9.70324408 17.7591,10.1006441 C16.7998,10.4979441 15.7442,10.6019441 14.7258,10.3993441 C13.7074,10.1967441 12.7719,9.69674408 12.0377,8.96254408 C11.3035,8.22834408 10.8034,7.29284408 10.6009,6.27444408 C10.3983,5.25604408 10.5023,4.20044408 10.8996,3.24114408 C11.297,2.28184408 11.9699,1.46194408 12.8333,0.885044081 C13.6966,0.308144081 14.7116,0.000244080521 15.75,0.000244080521 C16.4413,-0.00645591948 17.127,0.124844081 17.767,0.386244081 C18.4069,0.647744081 18.9884,1.03424408 19.4772,1.52304408 C19.966,2.01184408 20.3525,2.59334408 20.614,3.23324408 C20.8754,3.87324408 21.0067,4.55894408 21.0000071,5.25024408 L21.0000071,5.25024408 Z"></path>
                <path d="M21,10.9802441 C21,11.7602441 20.17,12.4602441 18.89,12.8902441 C17.8757,13.2158441 16.8152,13.3745441 15.75,13.3602441 C14.6848,13.3745441 13.6243,13.2158441 12.61,12.8902441 C11.33,12.5002441 10.5,11.7602441 10.5,10.9802441 C10.5,10.2002441 11.19,9.62024408 12.28,9.18024408 C13.2358,10.0307441 14.4706,10.5005441 15.75,10.5005441 C17.0294,10.5005441 18.2642,10.0307441 19.22,9.18024408 C20.31,9.62024408 21,10.2602441 21,10.9802441 Z"></path>
            </g>
        </g>
    </g>
</svg>