<?xml version="1.0" encoding="UTF-8"?>
<svg width="20px" height="20px" viewBox="0 0 20 20" version="1.1" xmlns="http://www.w3.org/2000/svg" xmlns:xlink="http://www.w3.org/1999/xlink">
    <title>形状结合</title>
    <defs>
        <linearGradient x1="0%" y1="3.30148835%" x2="130.569384%" y2="125.555557%" id="linearGradient-1">
            <stop stop-color="#AE88FE" offset="0%"></stop>
            <stop stop-color="#923CFF" offset="45.2009728%"></stop>
            <stop stop-color="#00B2FF" offset="100%"></stop>
        </linearGradient>
    </defs>
    <g id="页面-1" stroke="none" stroke-width="1" fill="none" fill-rule="evenodd">
        <path d="M9.08578644,1.55025253 C10.2573593,0.378679656 12.1568542,0.378679656 13.3284271,1.55025253 L13.3284271,1.55025253 L15.4497475,3.67157288 C16.0918203,4.31364575 16.3820094,5.17435122 16.3203145,6.01404895 C18.3136866,6.1702097 19.8963025,7.79024205 19.9951047,9.80035966 L20,10 L20,16 C20,18.1421954 18.3160315,19.8910789 16.1996403,19.9951047 L16,20 L4,20 C1.85780461,20 0.108921124,18.3160315 0.00489530723,16.1996403 L0,16 L0,10 C0,7.85780461 1.68396847,6.10892112 3.80035966,6.00489531 L4,6 L4.92436669,5.99975751 C5.07003825,5.66807427 5.27866687,5.3573721 5.55025253,5.08578644 L5.55025253,5.08578644 Z M11.9142136,11.4497475 C10.7426407,12.6213203 8.84314575,12.6213203 7.67157288,11.4497475 L7.67157288,11.4497475 L5.55025253,9.32842712 C5.16805942,8.94623402 4.9105462,8.48657476 4.77771287,7.99999172 L4,8 C2.9456382,8 2.08183488,8.81587779 2.00548574,9.85073766 L2,10 L2,16 C2,17.0543618 2.81587779,17.9181651 3.85073766,17.9945143 L4,18 L16,18 C17.0543618,18 17.9181651,17.1841222 17.9945143,16.1492623 L18,16 L18,10 C18,8.9456382 17.1841222,8.08183488 16.1492623,8.00548574 L16,8 L15.363,7.99957288 Z M13,14 C13.5522847,14 14,14.4477153 14,15 C14,15.5522847 13.5522847,16 13,16 L7,16 C6.44771525,16 6,15.5522847 6,15 C6,14.4477153 6.44771525,14 7,14 L13,14 Z M6.96446609,6.5 C6.60398213,6.86048396 6.5762526,7.42771502 6.88127749,7.82000622 L6.96446609,7.91421356 L9.08578644,10.0355339 C9.47631073,10.4260582 10.1094757,10.4260582 10.5,10.0355339 L10.5,10.0355339 L14.0355339,6.5 C14.0646155,6.4709184 14.0915314,6.44049124 14.1162817,6.40891893 C14.1281073,6.39383585 14.1394745,6.37843949 14.1503442,6.36280205 L14.1162817,6.40891893 C14.1409094,6.37750307 14.1633928,6.34495338 14.1837319,6.3114673 L14.1503442,6.36280205 C14.177041,6.32439528 14.2007361,6.28453431 14.2214296,6.24354613 L14.1837319,6.3114673 C14.2041246,6.27789304 14.2223618,6.24337745 14.2384434,6.20811952 L14.2214296,6.24354613 C14.2408203,6.20513845 14.2575755,6.16574102 14.271695,6.12562291 L14.2384434,6.20811952 C14.2542785,6.17340208 14.2680237,6.1379649 14.2796788,6.10199795 L14.271695,6.12562291 C14.2837993,6.09123075 14.2939667,6.05630895 14.3021972,6.021027 L14.2796788,6.10199795 C14.3918382,5.75588274 14.3104566,5.3607091 14.0355339,5.08578644 L14.0355339,5.08578644 L11.9142136,2.96446609 C11.5236893,2.5739418 10.8905243,2.5739418 10.5,2.96446609 L10.5,2.96446609 L6.96446609,6.5 Z" id="形状结合" fill="url(#linearGradient-1)" fill-rule="nonzero"></path>
    </g>
</svg>