<?xml version="1.0" encoding="UTF-8"?>
<svg width="20px" height="20px" viewBox="0 0 20 20" version="1.1" xmlns="http://www.w3.org/2000/svg" xmlns:xlink="http://www.w3.org/1999/xlink">
    <title>转发</title>
    <g id="页面-1备份-2" stroke="none" stroke-width="1" fill="none" fill-rule="evenodd">
        <g id="主页" transform="translate(-309.000000, -522.000000)" fill="#666666" fill-rule="nonzero" stroke="#666666" stroke-width="0.595699759">
            <g id="编组-19" transform="translate(60.000000, 522.000000)">
                <g id="编组-11" transform="translate(249.000000, 0.000000)">
                    <path d="M16.7191701,8.92583002 C16.5647137,8.92583002 16.4383402,9.05015428 16.4383402,9.20210615 L16.4383402,12.0771047 C16.4383402,13.196023 15.5133568,14.1060075 14.3759957,14.1060075 L7.59820899,14.1060075 L9.5236489,12.23251 C9.63422567,12.125453 9.63422567,11.9510537 9.52540409,11.8422699 C9.4165825,11.7334862 9.23930864,11.7334862 9.12873187,11.8405432 L6.7329019,14.1716231 C6.65742887,14.2458723 6.63285626,14.3512026 6.66093924,14.4444458 C6.67322555,14.4876139 6.69604298,14.5273286 6.73114672,14.5618631 L9.10240407,16.9188439 C9.15681486,16.9740991 9.23053271,17 9.30249536,17 C9.37445802,17 9.44466549,16.9740991 9.50083147,16.9205706 C9.61140824,16.8135136 9.61140824,16.6391143 9.50258666,16.5303306 L7.61927123,14.6585598 L14.3759957,14.6585598 C15.8222697,14.6585598 17,13.4999267 17,12.0771047 L17,9.20210615 C17,9.05015428 16.8736266,8.92583002 16.7191701,8.92583002 Z" id="路径"></path>
                    <path d="M14.0694976,3 C13.9150411,3 13.7886677,3.12432426 13.7886677,3.27627613 L13.7886677,6.15127464 C13.7886677,7.27019298 12.8636842,8.18017749 11.7263232,8.18017749 L4.94853645,8.18017749 L6.87397636,6.30667997 C6.98455313,6.19962296 6.98455313,6.02522365 6.87573154,5.91643993 C6.76690996,5.8076562 6.5896361,5.8076562 6.47905933,5.9147132 L4.08322936,8.24579307 C4.00775633,8.32004228 3.98318371,8.42537256 4.0112667,8.51861575 C4.02355301,8.5617839 4.04637044,8.60149859 4.08147417,8.63603311 L6.45273153,10.9930139 C6.50714232,11.0482691 6.58086016,11.07417 6.65282282,11.07417 C6.72478548,11.07417 6.79499295,11.0482691 6.85115893,10.9947406 C6.9617357,10.8876836 6.9617357,10.7132843 6.85291412,10.6045006 L4.96959869,8.73272976 L11.7263232,8.73272976 C13.1725971,8.73272976 14.3503275,7.57409672 14.3503275,6.15127464 L14.3503275,3.27627613 C14.3503275,3.12432426 14.223954,3 14.0694976,3 Z" id="路径备份" transform="translate(9.175164, 7.037085) scale(-1, -1) translate(-9.175164, -7.037085) "></path>
                </g>
            </g>
        </g>
    </g>
</svg>