<?xml version="1.0" encoding="UTF-8"?>
<svg width="24px" height="24px" viewBox="0 0 24 24" version="1.1" xmlns="http://www.w3.org/2000/svg" xmlns:xlink="http://www.w3.org/1999/xlink">
    <title>1</title>
    <g id="1" stroke="none" stroke-width="1" fill="none" fill-rule="evenodd">
        <g id="编组" fill="#B8B8B8" fill-rule="nonzero">
            <path d="M16.697309,4.99819602 C15.475309,4.93819602 14.018309,5.50819602 12.807309,7.15819602 L12.002309,8.24819602 L11.196309,7.15819602 C9.98430899,5.50819602 8.52630899,4.93819602 7.30430899,4.99819602 C6.06130899,5.06819602 4.95530899,5.77819602 4.39430899,6.90819602 C3.84230899,8.02819602 3.76130899,9.68819602 4.87330899,11.728196 C5.94730899,13.698196 8.13030899,15.998196 12.002309,18.338196 C15.872309,15.998196 18.054309,13.698196 19.128309,11.728196 C20.239309,9.68819602 20.158309,8.02819602 19.605309,6.90819602 C19.044309,5.77819602 17.939309,5.06819602 16.697309,4.99819602 Z M20.884309,12.688196 C19.533309,15.168196 16.883309,17.808196 12.505309,20.358196 L12.002309,20.658196 L11.498309,20.358196 C7.11930899,17.808196 4.46930899,15.168196 3.11630899,12.688196 C1.75630899,10.188196 1.70630899,7.82819602 2.60230899,6.01819602 C3.48930899,4.22819602 5.24930899,3.10819602 7.20330899,3.00819602 C8.85430899,2.91819602 10.571309,3.56819602 12.001309,5.01819602 C13.430309,3.56819602 15.147309,2.91819602 16.797309,3.00819602 C18.751309,3.10819602 20.511309,4.22819602 21.398309,6.01819602 C22.294309,7.82819602 22.244309,10.188196 20.884309,12.688196 L20.884309,12.688196 Z" id="形状"></path>
        </g>
    </g>
</svg>
