<?xml version="1.0" encoding="UTF-8"?>
<svg width="24px" height="24px" viewBox="0 0 24 24" version="1.1" xmlns="http://www.w3.org/2000/svg" xmlns:xlink="http://www.w3.org/1999/xlink">
    <title>4</title>
    <g id="4" stroke="none" stroke-width="1" fill="none" fill-rule="evenodd">
        <g id="编组" fill="#B8B8B8" fill-rule="nonzero">
            <path d="M1.75,10 C1.75,5.58 5.334,2 9.755,2 L14.121,2 C18.611,2 22.25,5.64 22.25,10.13 C22.25,13.09 20.643,15.81 18.054,17.24 L10,21.7 L10,18.01 L9.933,18.01 C5.443,18.11 1.75,14.5 1.75,10 L1.75,10 Z M9.755,4 C6.438,4 3.75,6.69 3.75,10 C3.75,13.37 6.52,16.08 9.888,16.01 L10.239,16 L12,16 L12,18.3 L17.087,15.49 C19.038,14.41 20.25,12.36 20.25,10.13 C20.25,6.74 17.506,4 14.121,4 L9.755,4 L9.755,4 Z" id="形状"></path>
        </g>
    </g>
</svg>
