<?xml version="1.0" encoding="UTF-8"?>
<svg width="24px" height="24px" viewBox="0 0 24 24" version="1.1" xmlns="http://www.w3.org/2000/svg" xmlns:xlink="http://www.w3.org/1999/xlink">
    <title>2</title>
    <g id="2" stroke="none" stroke-width="1" fill="none" fill-rule="evenodd">
        <g id="编组" fill="#B8B8B8" fill-rule="nonzero">
            <path d="M4.502,4 L8.934,8.14 L7.57,9.6 L5.502,7.67 L5.502,16.12 C5.502,17.22 6.398,18.12 7.502,18.12 L13.002,18.12 L13.002,20.12 L7.502,20.12 C5.293,20.12 3.502,18.33 3.502,16.12 L3.502,7.67 L1.434,9.6 L0.07,8.14 L4.502,4 Z M16.502,6.12 L11.002,6.12 L11.002,4.12 L16.502,4.12 C18.711,4.12 20.502,5.91 20.502,8.12 L20.502,16.57 L22.57,14.64 L23.934,16.1 L19.502,20.24 L15.07,16.1 L16.434,14.64 L18.502,16.57 L18.502,8.12 C18.502,7.02 17.606,6.12 16.502,6.12 Z" id="形状"></path>
        </g>
    </g>
</svg>
