<?xml version="1.0" encoding="UTF-8"?>
<svg width="24px" height="24px" viewBox="0 0 24 24" version="1.1" xmlns="http://www.w3.org/2000/svg" xmlns:xlink="http://www.w3.org/1999/xlink">
    <title>5</title>
    <g id="5" stroke="none" stroke-width="1" fill="none" fill-rule="evenodd">
        <g id="编组" fill="#B8B8B8" fill-rule="nonzero">
            <path d="M8,9.5 C8,8.119 8.672,7 9.5,7 C10.328,7 11,8.119 11,9.5 C11,10.881 10.328,12 9.5,12 C8.672,12 8,10.881 8,9.5 Z M14.5,12 C15.328,12 16,10.881 16,9.5 C16,8.119 15.328,7 14.5,7 C13.672,7 13,8.119 13,9.5 C13,10.881 13.672,12 14.5,12 Z M12,15.68 C9.776,15.68 8.979,17.907 8.949,17.996 L7.052,17.363 C7.102,17.213 8.323,13.679 12.001,13.679 C15.679,13.679 16.899,17.212 16.95,17.363 L15.054,18.001 C15.021,17.906 14.224,15.679 12.001,15.679 L12,15.68 Z M22.25,11.999 C22.25,17.651 17.652,22.249 12,22.249 C6.348,22.249 1.75,17.652 1.75,12 C1.75,6.348 6.348,1.75 12,1.75 C17.652,1.75 22.25,6.348 22.25,12 L22.25,11.999 Z M20.25,11.999 C20.25,7.45 16.549,3.749 12,3.749 C7.451,3.749 3.75,7.451 3.75,12 C3.75,16.549 7.451,20.25 12,20.25 C16.549,20.25 20.25,16.549 20.25,12 L20.25,11.999 Z" id="形状"></path>
        </g>
    </g>
</svg>
