<?xml version="1.0" encoding="UTF-8"?>
<svg width="20px" height="20px" viewBox="0 0 20 20" version="1.1" xmlns="http://www.w3.org/2000/svg" xmlns:xlink="http://www.w3.org/1999/xlink">
    <title>切片</title>
    <g id="页面-1" stroke="none" stroke-width="1" fill="none" fill-rule="evenodd">
        <g id="编组" transform="translate(2.000000, 2.000000)" fill="#7D7F88" fill-rule="nonzero">
            <path d="M8,8 C12.4868,8 16,6.24296 16,4.00107 C16,1.75704 12.4845,0 8,0 C3.51317,0 0,1.75704 0,4.00107 C0,6.24296 3.51317,8 8,8 Z M8,1.35157 C11.8455,1.35157 14.5255,2.74604 14.5255,3.99893 C14.5255,5.25181 11.8455,6.64629 8,6.64629 C4.15448,6.64629 1.47689,5.25181 1.47689,3.99893 C1.47689,2.74819 4.15448,1.35157 8,1.35157 Z" id="形状"></path>
            <path d="M14.5255,7.19624 L14.5255,8.10647 C14.5255,9.32568 11.8455,10.6827 8,10.6827 C4.15448,10.6827 1.47689,9.32568 1.47689,8.10647 L1.47689,7.19624 C0.870684,6.84551 0.369807,6.44468 0,6 L0,8.10647 C0,10.2902 3.51317,12 8,12 C12.4868,12 16,10.2902 16,8.10647 L16,6 C15.6325,6.44468 15.1317,6.84551 14.5255,7.19624 Z" id="路径"></path>
            <path d="M14.5255,11.1962 L14.5255,12.1065 C14.5255,13.3257 11.8455,14.6827 8,14.6827 C4.15448,14.6827 1.47689,13.3257 1.47689,12.1065 L1.47689,11.1962 C0.870684,10.8455 0.369807,10.4447 0,10 L0,12.1065 C0,14.2902 3.51317,16 8,16 C12.4868,16 16,14.2902 16,12.1065 L16,10 C15.6325,10.4447 15.1317,10.8455 14.5255,11.1962 Z" id="路径"></path>
        </g>
    </g>
</svg>
