<?xml version="1.0" encoding="UTF-8"?>
<svg width="20px" height="20px" viewBox="0 0 20 20" version="1.1" xmlns="http://www.w3.org/2000/svg" xmlns:xlink="http://www.w3.org/1999/xlink">
    <title>切片</title>
    <g id="页面-1" stroke="none" stroke-width="1" fill="none" fill-rule="evenodd">
        <g id="编组" transform="translate(3.000000, 3.000000)">
            <path d="M1.640625,-9.71445147e-16 L12.359375,-9.71445147e-16 C13.2654375,-9.71445147e-16 14,0.734529687 14,1.640625 L14,12.359375 C14,13.2654375 13.2654375,14 12.359375,14 L1.640625,14 C0.734529687,14 -9.71445147e-16,13.2654375 -9.71445147e-16,12.359375 L-9.71445147e-16,1.640625 C-9.71445147e-16,0.734529687 0.734529687,-9.71445147e-16 1.640625,-9.71445147e-16 Z" id="路径" stroke="#7851FF" stroke-width="1.2"></path>
            <path d="M11.7325469,6.79397031 C11.7325469,7.22257812 11.6332344,7.63842187 11.4348281,8.0416875 C11.2362031,8.44484375 10.9662656,8.80435937 10.6249063,9.12045313 C10.2834375,9.43632812 9.888375,9.68876562 9.43971875,9.87765625 C8.9910625,10.0665469 8.51670312,10.1610469 8.01642188,10.1610469 L7.55201563,10.1610469 C7.36935938,10.1610469 7.17270312,10.1629063 6.96239687,10.1664062 C6.75198125,10.170125 6.54354531,10.171875 6.3371,10.171875 L5.77730781,10.171875 C5.54704063,10.171875 5.36440625,10.1936406 5.22940469,10.2372812 C5.094425,10.2808125 5.03091094,10.3753125 5.03884062,10.5205625 C5.03884062,10.6296094 5.03687188,10.7548437 5.03289062,10.8964844 C5.02892031,11.038125 5.02692969,11.1670781 5.02692969,11.2833437 C5.02692969,11.4722344 4.97134531,11.5938594 4.86019844,11.6483281 C4.74902969,11.7029062 4.60212813,11.6647344 4.41950469,11.5339219 C4.22894062,11.4032187 4.0105625,11.2488906 3.76441406,11.0709375 C3.51826562,10.892875 3.26417656,10.7093438 3.00214687,10.5205625 C2.74011719,10.3317813 2.48205781,10.1465 2.22795781,9.9649375 C1.97386875,9.78326563 1.74757187,9.61975 1.54906719,9.47460937 C1.36643281,9.34379687 1.27313594,9.22020312 1.26916562,9.10404687 C1.26518437,8.98778125 1.34659219,8.86440625 1.51332344,8.73359375 C1.68800625,8.60289063 1.89248281,8.44845312 2.12673125,8.27039062 C2.36096875,8.0924375 2.60512656,7.90901562 2.85921562,7.72023438 C3.11331562,7.53123437 3.36342344,7.34595312 3.60957187,7.16439062 C3.85574219,6.98285 4.07409844,6.81938906 4.2646625,6.67409531 C4.47111875,6.5142875 4.64381094,6.45254531 4.78277187,6.48886875 C4.92172187,6.52518125 4.99120781,6.64140313 4.99120781,6.83754531 C4.99120781,6.89566719 4.99317656,6.9664875 4.99715781,7.04998437 C5.00112812,7.13365625 5.00509844,7.22257812 5.00907969,7.31707812 C5.01303906,7.41135937 5.01700937,7.50214062 5.02097969,7.58942187 C5.02496094,7.67659375 5.02692969,7.75282813 5.02692969,7.81823438 C5.02692969,7.95615625 5.07259375,8.0416875 5.1639,8.07428125 C5.25522813,8.10698437 5.3802875,8.12339063 5.53908906,8.12339063 C5.89640625,8.1160625 6.29739688,8.11234375 6.74205,8.11234375 L7.98076563,8.11234375 C8.1633125,8.11234375 8.34596875,8.07428125 8.528625,7.99804688 C8.71117188,7.92170313 8.87796875,7.82009375 9.02890625,7.693 C9.17973438,7.5656875 9.30289062,7.4186875 9.39815625,7.25167187 C9.4933125,7.08465625 9.541,6.90656094 9.541,6.71769219 L9.541,5.95493281 C9.541,5.66436719 9.53903125,5.38285781 9.53498438,5.11044844 C9.53115625,4.83803906 9.5291875,4.60012656 9.5291875,4.39672187 L9.5291875,4.01534219 C9.5291875,3.85552344 9.58278125,3.72295 9.68996875,3.61762187 C9.79715625,3.51228281 9.93201563,3.43238437 10.094875,3.37790469 C10.257625,3.32341406 10.4342656,3.29617969 10.6249063,3.29617969 C10.8154375,3.29617969 10.9921875,3.32159844 11.1549375,3.37244687 C11.3176875,3.42330625 11.4527656,3.49774687 11.5599531,3.59582344 C11.6671406,3.69388906 11.7207344,3.81557969 11.7207344,3.9608625 L11.7207344,4.76720781 C11.7207344,4.9560875 11.7227031,5.15767656 11.7266406,5.371975 C11.7304688,5.58627344 11.7325469,5.79148281 11.7325469,5.987625 L11.7325469,6.79397031 Z" id="路径" fill="#7851FF" fill-rule="nonzero"></path>
        </g>
    </g>
</svg>
