<svg width="20" height="20" viewBox="0 0 20 20" fill="none" xmlns="http://www.w3.org/2000/svg">
    <path d="M3.52604 16.7875C3.67762 16.7883 3.82354 16.7302 3.93167 16.6257C4.03984 16.5212 4.10133 16.3787 4.10225 16.2295V16.2292C4.10225 14.7939 4.91803 13.4653 6.06481 12.4936C7.21165 11.5218 8.68208 10.9136 9.97824 10.9136C10.0282 10.9136 10.0678 10.925 10.1099 10.937C10.1271 10.9419 10.1448 10.947 10.1637 10.9514C10.194 10.9585 10.2281 10.9636 10.2635 10.9567C10.2939 10.9508 10.3219 10.9366 10.3477 10.9134C12.8634 10.8815 14.911 8.87393 14.911 6.43182C14.911 3.97061 12.8712 1.95 10.327 1.95C7.78283 1.95 5.74297 3.97061 5.74297 6.43182C5.74297 8.05408 6.4871 9.44666 7.82547 10.2244C4.96928 11.1277 2.95 13.8312 2.95 16.2292L2.95 16.2295C2.95045 16.3034 2.96579 16.3764 2.9951 16.4445C3.02442 16.5125 3.06712 16.5741 3.12071 16.6259C3.1743 16.6776 3.23774 16.7185 3.30736 16.7462C3.37682 16.7739 3.45111 16.7879 3.52604 16.7875ZM3.52604 16.7875L3.5263 16.7375L3.52659 16.7875C3.52641 16.7875 3.52622 16.7875 3.52604 16.7875ZM15.2598 16.4886V14.3227H17.4768C17.6285 14.3227 17.7741 14.2639 17.8817 14.1587C17.9893 14.0535 18.05 13.9106 18.05 13.7614C18.05 13.6121 17.9893 13.4692 17.8817 13.364C17.7741 13.2589 17.6285 13.2 17.4768 13.2H15.2598V11.0341C15.2598 10.8848 15.1992 10.7419 15.0915 10.6367C14.984 10.5316 14.8383 10.4727 14.6867 10.4727C14.535 10.4727 14.3894 10.5316 14.2818 10.6367C14.1742 10.7419 14.1135 10.8848 14.1135 11.0341V13.2H11.8965C11.7448 13.2 11.5992 13.2589 11.4916 13.364C11.384 13.4692 11.3233 13.6121 11.3233 13.7614C11.3233 13.9106 11.384 14.0535 11.4916 14.1587C11.5992 14.2639 11.7448 14.3227 11.8965 14.3227H14.1135V16.4886C14.1135 16.6379 14.1742 16.7808 14.2818 16.886C14.3894 16.9911 14.535 17.05 14.6867 17.05C14.8383 17.05 14.984 16.9911 15.0915 16.886C15.1992 16.7808 15.2598 16.6379 15.2598 16.4886ZM6.88929 6.43182C6.88929 4.59178 8.42016 3.07273 10.327 3.07273C12.2339 3.07273 13.7647 4.59178 13.7647 6.43182C13.7647 8.27186 12.2339 9.79091 10.327 9.79091C8.42016 9.79091 6.88929 8.27186 6.88929 6.43182Z" fill="#7D7F88" stroke="#7D7F88" stroke-width="0.1"/>
</svg>
