<?xml version="1.0" encoding="UTF-8"?>
<svg width="20px" height="20px" viewBox="0 0 20 20" version="1.1" xmlns="http://www.w3.org/2000/svg" xmlns:xlink="http://www.w3.org/1999/xlink">
    <title>评论</title>
    <defs>
        <polygon id="path-1" points="0 0 15.3875597 0 15.3875597 15.3861647 0 15.3861647"></polygon>
    </defs>
    <g id="页面-1备份-2" stroke="none" stroke-width="1" fill="none" fill-rule="evenodd">
        <g id="主页" transform="translate(-256.000000, -522.000000)">
            <g id="编组-19" transform="translate(60.000000, 522.000000)">
                <g id="编组-3" transform="translate(196.000000, 0.000000)">
                    <g id="编组" transform="translate(2.000000, 2.000000)">
                        <mask id="mask-2" fill="white">
                            <use xlink:href="#path-1"></use>
                        </mask>
                        <g id="Clip-2"></g>
                        <path d="M7.52941176,0 C5.51811765,0 3.62729412,0.783058824 2.20517647,2.20517647 C0.783058824,3.62729412 0,5.51811765 0,7.52941176 C0,9.54070588 0.783058824,11.4315294 2.20517647,12.8536471 C3.62541176,14.2738824 5.51341176,15.0550588 7.52188235,15.0550588 C8.68894118,15.0550588 9.83152941,14.7868235 10.8668235,14.2748235 L13.4616471,15.2894118 C13.6291765,15.3543529 13.8032941,15.3863529 13.9755294,15.3863529 C14.3435294,15.3863529 14.7049412,15.2423529 14.9741176,14.9722353 C15.3712941,14.576 15.4945882,13.9821176 15.2903529,13.4597647 L14.2757647,10.8658824 C15.7082353,7.98870588 15.168,4.51952941 12.8536471,2.20517647 C11.4315294,0.783058824 9.54070588,0 7.52941176,0 M7.52236194,1.1419407 C9.15575365,1.1419407 10.7881638,1.76526025 12.0338213,3.01091776 C14.1737215,5.15081797 14.4701664,8.43036228 12.9349352,10.8922291 L14.2453787,14.2444122 L10.8941772,12.9339688 C9.86349129,13.5769204 8.68850939,13.8988871 7.51450909,13.8988871 C5.88406219,13.8988871 4.25459689,13.2785123 3.0109026,12.0338364 C0.518605978,9.54252142 0.518605978,5.50223277 3.0109026,3.01091776 C4.2565601,1.76526025 5.88995182,1.1419407 7.52236194,1.1419407" id="Fill-1" fill="#6246EA" mask="url(#mask-2)"></path>
                    </g>
                </g>
            </g>
        </g>
    </g>
</svg>
