<?xml version="1.0" encoding="UTF-8"?>
<svg width="20px" height="20px" viewBox="0 0 20 20" version="1.1" xmlns="http://www.w3.org/2000/svg" xmlns:xlink="http://www.w3.org/1999/xlink">
    <title>切片</title>
    <g id="页面-1" stroke="none" stroke-width="1" fill="none" fill-rule="evenodd">
        <g id="编组" transform="translate(2.000000, 2.000000)" fill="#7851FF" fill-rule="nonzero">
            <path d="M5.92118,0.402057832 L6.32,0.602350832 C6.97777,0.932686832 7.51112,1.46839983 7.84,2.12906983 C7.90592,2.26149983 8.09408,2.26149983 8.16,2.12906983 C8.48888,1.46839983 9.02224,0.932686832 9.68,0.602350832 L10.0788,0.402057832 C10.8884,-0.00449749792 11.816,-0.106774168 12.694,0.113710832 C13.5388,0.325845832 14.2852,0.823600832 14.8077,1.52332983 L15.0315,1.82309983 C15.6602,2.66498983 16,3.68896983 16,4.74133983 L16,5.07613983 C16,5.55592983 15.9414,6.03391983 15.8256,6.49937983 L15.7475,6.81295983 C15.4742,7.91123983 14.985,8.94353983 14.3087,9.84919983 L13.854,10.4581998 C13.5073,10.9224998 13.1283,11.3613998 12.7198,11.7716998 L12.2586,12.2349998 C11.2042,13.2939998 9.98674,14.1753998 8.65307,14.8450998 C8.24195,15.0515998 7.75805,15.0515998 7.34693,14.8450998 C6.01326,14.1753998 4.79581,13.2939998 3.74145,12.2349998 L3.28023,11.7716998 C2.8717,11.3613998 2.49269,10.9224998 2.14604,10.4581998 L1.69129,9.84919983 C1.01503,8.94353983 0.525848,7.91123983 0.252488,6.81295983 L0.174437,6.49937983 C0.0585831,6.03391983 0,5.55592983 0,5.07613983 L0,4.74133983 C0,3.68896983 0.339824,2.66498983 0.968466,1.82309983 L1.19231,1.52332983 C1.71479,0.823600832 2.46115,0.325845832 3.30596,0.113710832 C4.18402,-0.106774168 5.11164,-0.00449749792 5.92118,0.402057832 Z" id="路径"></path>
        </g>
    </g>
</svg>
