<?xml version="1.0" encoding="UTF-8"?>
<svg width="20px" height="20px" viewBox="0 0 20 20" version="1.1" xmlns="http://www.w3.org/2000/svg" xmlns:xlink="http://www.w3.org/1999/xlink">
    <title>点赞</title>
    <defs>
        <linearGradient x1="-7.64104956e-07%" y1="5.30479704%" x2="28.2037609%" y2="163.384022%" id="linearGradient-1">
            <stop stop-color="#917AFD" offset="0%"></stop>
            <stop stop-color="#6246EA" offset="100%"></stop>
        </linearGradient>
    </defs>
    <g id="页面-1备份-2" stroke="none" stroke-width="1" fill="none" fill-rule="evenodd">
        <g id="主页-选中" transform="translate(-60.000000, -521.000000)" fill-rule="nonzero">
            <g id="编组-5" transform="translate(60.000000, 521.000000)">
                <path d="M15.6700463,7.38636364 L13.0564099,7.38636364 C13.0564099,7.38636364 13.397319,6.25 13.6245918,4.20454545 C13.7382281,3.18181818 12.9427736,2.15909091 11.8064099,2.04545455 L11.5791372,2.04545455 C10.6700463,2.04545455 10.1018645,2.61363636 9.7609554,3.40909091 L9.07913722,5.11363636 C8.5109554,6.25 8.05640995,6.93181818 7.71550086,7.15909091 C7.2609554,7.38636364 5.55640995,7.38636364 5.44277358,7.38636364 L3.17004631,7.38636364 C2.48822813,7.38636364 2.03368267,7.84090909 2.03368267,8.40909091 L2.03368267,16.9318182 C2.03368267,17.5 2.48822813,17.9545455 3.17004631,17.9545455 L14.647319,17.9545455 C16.3518645,17.9545455 16.8064099,16.8181818 17.0336827,15.2272727 L17.9427736,9.77272727 C18.0564099,8.52272727 17.8291372,7.38636364 15.6700463,7.38636364 Z" id="形状" fill="url(#linearGradient-1)" opacity="0.348510016"></path>
                <path d="M15.6700463,7.38636364 L13.0564099,7.38636364 C13.0564099,7.38636364 13.397319,6.25 13.6245918,4.20454545 C13.7382281,3.18181818 12.9427736,2.15909091 11.8064099,2.04545455 L11.5791372,2.04545455 C10.6700463,2.04545455 10.1018645,2.61363636 9.7609554,3.40909091 L9.07913722,5.11363636 C8.5109554,6.25 8.05640995,6.93181818 7.71550086,7.15909091 C7.2609554,7.38636364 5.55640995,7.38636364 5.44277358,7.38636364 L3.17004631,7.38636364 C2.48822813,7.38636364 2.03368267,7.84090909 2.03368267,8.40909091 L2.03368267,16.9318182 C2.03368267,17.5 2.48822813,17.9545455 3.17004631,17.9545455 L14.647319,17.9545455 C16.3518645,17.9545455 16.8064099,16.8181818 17.0336827,15.2272727 L17.9427736,9.77272727 C18.0564099,8.52272727 17.8291372,7.38636364 15.6700463,7.38636364 Z M5.44277358,16.9318182 L3.17004631,16.9318182 L3.17004631,8.40909091 L5.44277358,8.40909091 L5.44277358,16.9318182 L5.44277358,16.9318182 Z M16.8064099,9.65909091 L15.897319,15.1136364 C15.6700463,16.1363636 15.6700463,16.9318182 14.5336827,16.9318182 L6.57913722,16.9318182 L6.57913722,8.40909091 C7.37459176,8.40909091 7.82913722,8.29545455 8.17004631,8.06818182 C8.73822813,7.84090909 9.30640995,6.93181818 10.1018645,5.45454545 C10.5564099,4.31818182 10.7836827,3.75 10.897319,3.63636364 C11.0109554,3.29545455 11.2382281,3.06818182 11.6927736,3.06818182 L11.8064099,3.06818182 C12.3745918,3.06818182 12.6018645,3.63636364 12.6018645,3.97727273 C12.3745918,5.79545455 12.0336827,6.93181818 12.0336827,6.93181818 L11.5791372,8.40909091 L15.897319,8.40909091 C16.2382281,8.40909091 16.4655009,8.40909091 16.6927736,8.63636364 C16.9200463,8.86363636 16.8064099,9.31818182 16.8064099,9.65909091 L16.8064099,9.65909091 Z" id="形状" fill="#6246EA"></path>
            </g>
        </g>
    </g>
</svg>