<?xml version="1.0" encoding="UTF-8"?>
<svg width="20px" height="20px" viewBox="0 0 20 20" version="1.1" xmlns="http://www.w3.org/2000/svg" xmlns:xlink="http://www.w3.org/1999/xlink">
    <title>切片</title>
    <g id="页面-1" stroke="none" stroke-width="1" fill="none" fill-rule="evenodd">
        <g id="btn-reply-active" transform="translate(2.000000, 2.000000)" fill="#7851FF">
            <path d="M6.93333,11.3038 C7.22789,11.3038 7.46667,11.5506 7.46667,11.8552 L7.46667,14.0143 C10.3987,12.2437 12.1627,10.9912 13.2266,9.89761 C13.844,9.26297 14.1836,8.72175 14.3808,8.20569 C14.5791,7.68678 14.6667,7.10701 14.6667,6.34113 C14.6667,3.60035 12.5176,1.37851 9.86667,1.37851 L6.13333,1.37851 C3.48237,1.37851 1.33333,3.60035 1.33333,6.34113 C1.33333,9.08191 3.48237,11.3038 6.13333,11.3038 L6.93333,11.3038 Z M7.46667,15.6078 C14.575,11.3784 16,9.64613 16,6.34113 C16,2.83902 13.254,0 9.86667,0 L6.13333,0 C2.74599,0 0,2.83902 0,6.34113 C0,9.84324 2.74599,12.6823 6.13333,12.6823 L6.13333,15.4488 C6.13333,15.8706 6.57276,16.136 6.92725,15.9272 C7.1106,15.8192 7.29038,15.7127 7.46667,15.6078 Z" id="形状"></path>
        </g>
    </g>
</svg>
