<?xml version="1.0" encoding="UTF-8"?>
<svg width="24px" height="24px" viewBox="0 0 24 24" version="1.1" xmlns="http://www.w3.org/2000/svg" xmlns:xlink="http://www.w3.org/1999/xlink">
    <title>编组</title>
    <g id="页面-1备份-2" stroke="none" stroke-width="1" fill="none" fill-rule="evenodd">
        <g id="社区详情页-发布" transform="translate(-219.000000, -271.000000)" fill-rule="nonzero">
            <g id="编组" transform="translate(219.000000, 271.000000)">
                <path d="M0,12 C0,18.627417 5.372583,24 12,24 C18.627417,24 24,18.627417 24,12 C24,7.712813 21.712813,3.75128874 18,1.60769517 C14.2871871,-0.535898391 9.7128129,-0.535898391 6,1.60769517 C2.287187,3.75128874 0,7.712813 0,12 Z" id="路径" fill="#353535"></path>
                <path d="M12.2285714,7.26857154 C9.29142858,7.26857154 7.23428571,8.52571439 7.23428573,8.52571439 C8.3657143,7.52000011 10.3314286,6.93714296 10.3314286,6.93714299 L10.1485714,6.75428583 C8.29714286,6.78857154 6.61714287,8.06857153 6.61714287,8.06857155 C4.73142858,12.0000001 4.85714287,15.4057144 4.85714287,15.4057144 C6.38857144,17.3942858 8.67428572,17.2457143 8.67428572,17.2457143 L9.45142858,16.2628572 C8.08,15.9657144 7.21142857,14.7542858 7.21142857,14.7542858 C7.21142857,14.7542858 9.26857142,16.1600001 12.2285714,16.1600001 C15.1885714,16.1600001 17.2457143,14.7542858 17.2457143,14.7542858 C17.2457143,14.7542858 16.3771429,15.9771429 15.0057143,16.2628572 L15.7828571,17.2457143 C15.7828571,17.2457143 18.0571429,17.3942857 19.6,15.4057144 C19.6,15.4057144 19.7257143,12.0114287 17.8285714,8.06857155 C17.8285714,8.06857155 16.1485714,6.78857156 14.2971429,6.75428583 L14.1142857,6.93714299 C14.1142857,6.93714299 16.0914286,7.52000013 17.2114286,8.52571439 C17.2342857,8.52571439 15.1657143,7.26857154 12.2285714,7.26857154 M9.96571429,11.4171429 C10.6742857,11.4171429 11.2571429,12.0457144 11.2457143,12.8114286 C11.2457143,13.5657144 10.6742857,14.2057143 9.96571429,14.2057143 C9.26857142,14.2057143 8.69714286,13.5657144 8.69714286,12.8114286 C8.69714286,12.0457144 9.24571428,11.4171429 9.96571429,11.4171429 M14.5371429,11.4171429 C15.2457143,11.4171429 15.8171429,12.0457144 15.8171429,12.8114286 C15.8171429,13.5657144 15.2457143,14.2057143 14.5371429,14.2057143 C13.84,14.2057143 13.2685714,13.5657144 13.2685714,12.8114286 C13.2685714,12.0457144 13.8171428,11.4171429 14.5371429,11.4171429 Z" id="形状" fill="#FFFFFF"></path>
            </g>
        </g>
    </g>
</svg>