<?xml version="1.0" encoding="UTF-8"?>
<svg width="24px" height="24px" viewBox="0 0 24 24" version="1.1" xmlns="http://www.w3.org/2000/svg" xmlns:xlink="http://www.w3.org/1999/xlink">
    <title>编组备份</title>
    <g id="页面-1备份-2" stroke="none" stroke-width="1" fill="none" fill-rule="evenodd">
        <g id="社区详情页-发布" transform="translate(-287.000000, -271.000000)">
            <g id="编组备份" transform="translate(287.000000, 271.000000)">
                <path d="M24,12 C24,13.625 23.6830357,15.1785714 23.0491071,16.6607143 C22.4151786,18.1428571 21.5625,19.4196429 20.4910714,20.4910714 C19.4196429,21.5625 18.1428571,22.4151786 16.6607143,23.0491071 C15.1785714,23.6830357 13.625,24 12,24 C10.375,24 8.82142857,23.6830357 7.33928571,23.0491071 C5.85714285,22.4151786 4.58035714,21.5625 3.50892858,20.4910714 C2.43750002,19.4196429 1.58482145,18.1428571 0.950892867,16.6607143 C0.316964289,15.1785714 0,13.625 0,12 C0,10.375 0.316964289,8.82142857 0.950892867,7.33928571 C1.58482145,5.85714285 2.43750002,4.58035714 3.50892858,3.50892858 C4.58035714,2.43750002 5.85714285,1.58482145 7.33928571,0.950892867 C8.82142857,0.316964289 10.375,0 12,0 C13.625,0 15.1785714,0.316964289 16.6607143,0.950892867 C18.1428571,1.58482145 19.4196429,2.43750002 20.4910714,3.50892858 C21.5625,4.58035714 22.4151786,5.85714285 23.0491071,7.33928571 C23.6830357,8.82142857 24,10.375 24,12 Z" id="路径" fill="#353535" fill-rule="nonzero"></path>
                <g id="编组-6备份-3" transform="translate(6.500000, 6.000000)" fill="#FFFFFF">
                    <path d="M9,0 C10.1045695,-2.02906125e-16 11,0.8954305 11,2 L11,10 C11,11.1045695 10.1045695,12 9,12 L2,12 C0.8954305,12 1.3527075e-16,11.1045695 0,10 L0,2 C-1.3527075e-16,0.8954305 0.8954305,2.02906125e-16 2,0 L9,0 Z M6.75,5 L3.25,5 C2.83578644,5 2.5,5.33578644 2.5,5.75 C2.5,6.16421356 2.83578644,6.5 3.25,6.5 L6.75,6.5 C7.16421356,6.5 7.5,6.16421356 7.5,5.75 C7.5,5.33578644 7.16421356,5 6.75,5 Z M7.75,2.5 L3.25,2.5 C2.83578644,2.5 2.5,2.83578644 2.5,3.25 C2.5,3.66421356 2.83578644,4 3.25,4 L7.75,4 C8.16421356,4 8.5,3.66421356 8.5,3.25 C8.5,2.83578644 8.16421356,2.5 7.75,2.5 Z" id="形状结合"></path>
                </g>
            </g>
        </g>
    </g>
</svg>