<?xml version="1.0" encoding="UTF-8"?>
<svg width="24px" height="24px" viewBox="0 0 24 24" version="1.1" xmlns="http://www.w3.org/2000/svg" xmlns:xlink="http://www.w3.org/1999/xlink">
    <title>twitter</title>
    <g id="页面-1备份-2" stroke="none" stroke-width="1" fill="none" fill-rule="evenodd">
        <g id="社区详情页-发布" transform="translate(-83.000000, -271.000000)" fill-rule="nonzero">
            <g id="twitter" transform="translate(83.000000, 271.000000)">
                <circle id="Oval" fill="#353535" cx="12" cy="12" r="12"></circle>
                <path d="M18.7330743,8.53931166 C18.2440722,8.75761724 17.7180491,8.90527046 17.1663962,8.97121267 C17.7296436,8.63146693 18.1618938,8.09389455 18.3659159,7.45228911 C17.8388758,7.76705054 17.2548804,7.99539081 16.633864,8.11846928 C16.1363186,7.58499269 15.4274283,7.25159542 14.642462,7.25159542 C13.1364007,7.25159542 11.9149125,8.48135624 11.9149125,9.99761754 C11.9149125,10.2128513 11.9391185,10.4223509 11.9859032,10.6234542 C9.7190816,10.5089769 7.70916912,9.41581063 6.36380316,7.75394401 C6.12906588,8.15942718 5.99440724,8.63146693 5.99440724,9.13463467 C5.99440724,10.0871105 6.47628991,10.9279761 7.20775892,11.42029 C6.76086308,11.4061596 6.34000397,11.2826715 5.97243876,11.0764485 C5.97223535,11.0881215 5.97223535,11.0997945 5.97223535,11.1112627 C5.97223535,12.44178 6.91281173,13.5515341 8.1603366,13.80363 C7.93170168,13.8667051 7.69025182,13.9000858 7.44188595,13.9000858 C7.26573129,13.9000858 7.09506875,13.8830883 6.92867786,13.8511411 C7.27569847,14.9418499 8.28279054,15.7358187 9.47661468,15.7581408 C8.54295429,16.4947685 7.36703039,16.9336324 6.08879034,16.9336324 C5.86910554,16.9336324 5.65145486,16.9207306 5.43848266,16.8951319 C6.64491833,17.6745607 8.07897186,18.1289886 9.61920638,18.1289886 C14.6361562,18.1289886 17.3797752,13.9447299 17.3797752,10.3156556 C17.3797752,10.1966729 17.3771309,10.0780998 17.3718422,9.96055064 C17.905188,9.57349853 18.3675432,9.08999057 18.7330743,8.53931166 L18.7330743,8.53931166 Z" id="Shape" fill="#FFFFFF"></path>
            </g>
        </g>
    </g>
</svg>