<?xml version="1.0" encoding="UTF-8"?>
<svg width="24px" height="24px" viewBox="0 0 24 24" version="1.1" xmlns="http://www.w3.org/2000/svg" xmlns:xlink="http://www.w3.org/1999/xlink">
    <title>编组</title>
    <g id="页面-1备份-2" stroke="none" stroke-width="1" fill="none" fill-rule="evenodd">
        <g id="telegram" fill-rule="nonzero">
            <g id="编组">
                <path d="M24,12 C24,13.625 23.6830357,15.1785714 23.0491071,16.6607143 C22.4151786,18.1428571 21.5625,19.4196429 20.4910714,20.4910714 C19.4196429,21.5625 18.1428571,22.4151786 16.6607143,23.0491071 C15.1785714,23.6830357 13.625,24 12,24 C10.375,24 8.82142857,23.6830357 7.33928571,23.0491071 C5.85714285,22.4151786 4.58035714,21.5625 3.50892858,20.4910714 C2.43750002,19.4196429 1.58482145,18.1428571 0.950892867,16.6607143 C0.316964289,15.1785714 0,13.625 0,12 C0,10.375 0.316964289,8.82142857 0.950892867,7.33928571 C1.58482145,5.85714285 2.43750002,4.58035714 3.50892858,3.50892858 C4.58035714,2.43750002 5.85714285,1.58482145 7.33928571,0.950892867 C8.82142857,0.316964289 10.375,0 12,0 C13.625,0 15.1785714,0.316964289 16.6607143,0.950892867 C18.1428571,1.58482145 19.4196429,2.43750002 20.4910714,3.50892858 C21.5625,4.58035714 22.4151786,5.85714285 23.0491071,7.33928571 C23.6830357,8.82142857 24,10.375 24,12 Z" id="形状" fill="#353535"></path>
                <path d="M15.9241071,17.5044643 L17.8928571,8.22321429 C17.9732143,7.83035715 17.9263393,7.54910715 17.7522321,7.37946429 C17.578125,7.20982143 17.3482143,7.17857143 17.0625,7.28571429 L5.49107142,11.7455357 C5.23214284,11.84375 5.05580356,11.9553571 4.96205358,12.0803571 C4.86830359,12.2053571 4.85714288,12.3236607 4.92857142,12.4352679 C4.99999997,12.546875 5.14285712,12.6339286 5.35714287,12.6964286 L8.31696429,13.6205357 L15.1875,9.29464287 C15.375,9.16964287 15.5178571,9.14285715 15.6160714,9.21428571 C15.6785714,9.25892857 15.6607143,9.32589286 15.5625,9.41517858 L10.0044643,14.4375 L9.79017858,17.4910714 C9.99553572,17.4910714 10.1964286,17.3928571 10.3928571,17.1964286 L11.8392857,15.8035714 L14.8392857,18.0133929 C15.4107143,18.3348214 15.7723214,18.1651786 15.9241071,17.5044643 L15.9241071,17.5044643 Z" id="路径" fill="#FFFFFF"></path>
            </g>
        </g>
    </g>
</svg>