<svg width="19" height="19" viewBox="0 0 19 19" fill="none" xmlns="http://www.w3.org/2000/svg">
<path d="M9.96494 19C8.71733 19 7.54687 18.7619 6.45354 18.2856C5.36021 17.8094 4.40774 17.1655 3.59612 16.3539C2.78451 15.5423 2.14059 14.5864 1.66435 13.4864C1.18811 12.3864 0.95 11.2125 0.95 9.96494C0.95 8.71734 1.18812 7.54687 1.66435 6.45354C2.14059 5.36021 2.78451 4.40774 3.59613 3.59613C4.40774 2.78451 5.36021 2.14059 6.45354 1.66435C7.54687 1.18812 8.71734 0.950002 9.96494 0.950002C11.2125 0.950002 12.3864 1.18812 13.4864 1.66435C14.5864 2.14059 15.5423 2.78452 16.3539 3.59613C17.1655 4.40774 17.8094 5.36021 18.2856 6.45354C18.7619 7.54687 19 8.71734 19 9.96494C19 11.2125 18.7619 12.3864 18.2856 13.4864C17.8094 14.5864 17.1655 15.5423 16.3539 16.3539C15.5423 17.1655 14.5864 17.8094 13.4864 18.2856C12.3864 18.7619 11.2125 19 9.96494 19ZM8.87832 11.2125C8.87832 11.5345 8.98228 11.8062 9.19022 12.0275C9.39815 12.2489 9.65639 12.3595 9.96494 12.3595C10.2735 12.3595 10.5351 12.2489 10.7497 12.0275C10.9644 11.8062 11.0717 11.5345 11.0717 11.2125L11.0717 4.47146C11.0717 4.1495 10.9644 3.89126 10.7497 3.69674C10.5351 3.50222 10.2735 3.40496 9.96494 3.40496C9.65639 3.40496 9.3948 3.50558 9.18016 3.7068C8.96552 3.90803 8.85819 4.16962 8.85819 4.49158L8.87832 11.2125ZM9.96494 13.7077C9.5759 13.7077 9.24388 13.8453 8.96887 14.1203C8.69386 14.3953 8.55635 14.7273 8.55635 15.1163C8.55635 15.5054 8.69386 15.8374 8.96887 16.1124C9.24388 16.3874 9.5759 16.5249 9.96494 16.5249C10.354 16.5249 10.6894 16.3874 10.9711 16.1124C11.2528 15.8374 11.3936 15.5054 11.3936 15.1163C11.3936 14.7273 11.2528 14.3953 10.9711 14.1203C10.6894 13.8453 10.354 13.7077 9.96494 13.7077Z" fill="#EEB134"/>
</svg>
