<?xml version="1.0" encoding="UTF-8"?>
<svg width="24px" height="24px" viewBox="0 0 24 24" version="1.1" xmlns="http://www.w3.org/2000/svg" xmlns:xlink="http://www.w3.org/1999/xlink">
    <title>instagram</title>
    <g id="页面-1备份-2" stroke="none" stroke-width="1" fill="none" fill-rule="evenodd">
        <g id="社区详情页-发布" transform="translate(-185.000000, -271.000000)" fill-rule="nonzero">
            <g id="instagram" transform="translate(185.000000, 271.000000)">
                <path d="M12,0 C5.37284699,0 0,5.37284699 0,12 C0,18.627153 5.37284699,24 12,24 C18.627153,24 24,18.627153 24,12 C24,5.37284699 18.627153,0 12,0 Z" id="Path" fill="#353535"></path>
                <path d="M14.0032492,9.32775 C13.7460635,7.21375 13.2036991,5.721 12.656086,5.0315 C12.4391402,5.01225 12.2221945,5 12,5 C11.7778055,5 11.5608598,5.01225 11.343914,5.0315 C10.7963009,5.721 10.2539365,7.21375 9.99675081,9.32775 L14.0032492,9.32775 Z M9.06423394,12 C9.06423394,11.36825 9.09047738,10.73125 9.1412147,10.10475 L5.26243439,10.10475 C5.09272682,10.7085 5,11.342 5,12 C5,12.65625 5.09272682,13.2915 5.26243439,13.89525 L9.1412147,13.89525 C9.09047738,13.26875 9.06423394,12.63175 9.06423394,12 L9.06423394,12 Z M9.99675081,14.67225 C10.2539365,16.78625 10.7963009,18.279 11.343914,18.9685 C11.5608598,18.98775 11.7778055,19 12,19 C12.2221945,19 12.4391402,18.98775 12.656086,18.9685 C13.2036991,18.279 13.7460635,16.78625 14.0032492,14.67225 L9.99675081,14.67225 Z M18.735816,10.10475 L14.8587853,10.10475 C14.9095226,10.73125 14.9357661,11.36825 14.9357661,12 C14.9357661,12.63175 14.9095226,13.26875 14.8587853,13.89525 L18.7375656,13.89525 C18.9072732,13.2915 19,12.658 19,12 C18.9982504,11.34375 18.9055236,10.7085 18.735816,10.10475 L18.735816,10.10475 Z M9.84103974,12 C9.84103974,12.67025 9.86903274,13.30375 9.91802049,13.89525 L14.0819795,13.89525 C14.1309673,13.30375 14.1589603,12.672 14.1589603,12 C14.1589603,11.32975 14.1309673,10.69625 14.0819795,10.10475 L9.91802049,10.10475 C9.86903274,10.698 9.84103974,11.32975 9.84103974,12 Z M5.53186703,14.67225 C6.37165709,16.70575 8.14221445,18.25625 10.3134216,18.7935 C9.78155461,17.775 9.4123969,16.291 9.21994501,14.67225 L5.53186703,14.67225 Z M13.6865784,18.7935 C15.8577856,18.25625 17.6283429,16.70575 18.468133,14.67225 L14.780055,14.67225 C14.5876031,16.291 14.220195,17.775 13.6865784,18.7935 Z M18.468133,9.32775 C17.6283429,7.29425 15.8577856,5.74375 13.6865784,5.2065 C14.2184454,6.225 14.5876031,7.709 14.780055,9.32775 L18.468133,9.32775 Z M10.3134216,5.2065 C8.14221445,5.74375 6.37165709,7.29425 5.53186703,9.32775 L9.21994501,9.32775 C9.4123969,7.709 9.77980505,6.225 10.3134216,5.2065 Z" id="形状" fill="#FFFFFF"></path>
            </g>
        </g>
    </g>
</svg>