<svg width="20" height="19" viewBox="0 0 20 19" fill="none" xmlns="http://www.w3.org/2000/svg">
<path d="M11.8756 0.0550651L8.07322 0.0458984H8.07139C4.06189 0.0458984 0.921387 3.18732 0.921387 7.19773C0.921387 10.9542 3.84189 13.8032 7.7643 13.9536V17.4626C7.7643 17.5616 7.80464 17.7247 7.8743 17.832C8.00447 18.0382 8.2263 18.1501 8.45364 18.1501C8.58014 18.1501 8.70755 18.1152 8.82214 18.0419C9.06414 17.8879 14.7557 14.2469 16.2361 12.9947C17.9796 11.5189 19.0228 9.35557 19.0256 7.20873V7.19315C19.0201 3.19007 15.8814 0.0550649 11.8756 0.0541483V0.0550651ZM15.347 11.9461C14.3075 12.8261 10.8901 15.0673 9.1393 16.2021V13.2807C9.1393 12.9012 8.83222 12.5932 8.4518 12.5932H8.0888C4.7338 12.5932 2.2973 10.3236 2.2973 7.19773C2.2973 3.95823 4.83464 1.4209 8.0723 1.4209L11.8737 1.43007H11.8756C15.1132 1.43007 17.6506 3.96557 17.6524 7.2014C17.6496 8.95223 16.7889 10.7251 15.3479 11.9461H15.347Z" fill="#8F8F8F"/>
</svg>
