<svg width="14" height="14" viewBox="0 0 14 14" fill="none" xmlns="http://www.w3.org/2000/svg">
<circle cx="7" cy="7" r="7" fill="#1A1E25"/>
<path d="M10.3333 4H3.66667C3.3 4 3 4.26256 3 4.58347V9.25125C3 9.57216 3.3 9.83472 3.66667 9.83472H4C4.2 9.83472 4.33333 9.95142 4.33333 10.1265V10.6224C4.33333 10.9433 4.6 11.0892 4.93333 10.9433L7 9.9806C7.16667 9.89308 7.43333 9.83472 7.63333 9.83472H10.3333C10.7 9.83472 11 9.57216 11 9.25125V4.58347C11 4.26256 10.7 4 10.3333 4H10.3333ZM8.66668 8.08431H5.33335C5.13335 8.08431 5.00002 7.96762 5.00002 7.79258C5.00002 7.61754 5.16668 7.50084 5.33335 7.50084H8.66668C8.86668 7.50084 9.00001 7.61754 9.00001 7.79258C9.00001 7.96762 8.83334 8.08431 8.66668 8.08431ZM8.66668 6.33389H5.33335C5.13335 6.33389 5.00002 6.2172 5.00002 6.04216C5.00002 5.86712 5.16668 5.75042 5.33335 5.75042H8.66668C8.86668 5.75042 9.00001 5.86712 9.00001 6.04216C9.00001 6.2172 8.83334 6.33389 8.66668 6.33389Z" fill="white"/>
</svg>
