<svg width="20" height="20" viewBox="0 0 20 20" fill="none" xmlns="http://www.w3.org/2000/svg">
    <circle cx="10" cy="10" r="8" fill="#7851FF"/>
    <path d="M7.2 6.35H12.8C13.2694 6.35 13.65 6.73056 13.65 7.2V12.8C13.65 13.2694 13.2694 13.65 12.8 13.65H7.2C6.73056 13.65 6.35 13.2694 6.35 12.8V7.2C6.35 6.73056 6.73056 6.35 7.2 6.35Z" stroke="white" stroke-width="0.7"/>
    <path d="M12.4729 9.89236C12.4729 10.1163 12.421 10.3336 12.3174 10.5442C12.2136 10.7548 12.0726 10.9427 11.8942 11.1078C11.7158 11.2728 11.5094 11.4048 11.275 11.5034C11.0406 11.6021 10.7928 11.6515 10.5314 11.6515H10.2888C10.1934 11.6515 10.0906 11.6524 9.98075 11.6543C9.87082 11.6562 9.76192 11.6572 9.65406 11.6572H9.3616C9.2413 11.6572 9.14588 11.6685 9.07535 11.6913C9.00483 11.714 8.97165 11.7634 8.97579 11.8393C8.97579 11.8963 8.97476 11.9617 8.97268 12.0357C8.97061 12.1097 8.96957 12.1771 8.96957 12.2378C8.96957 12.3365 8.94053 12.4 8.88246 12.4285C8.82438 12.457 8.74763 12.4371 8.65222 12.3688C8.55266 12.3004 8.43857 12.2198 8.30997 12.1268C8.18137 12.0338 8.04862 11.938 7.91172 11.8393C7.77482 11.7407 7.64 11.6439 7.50725 11.549C7.3745 11.4541 7.25627 11.3687 7.15256 11.2928C7.05715 11.2245 7.0084 11.16 7.00633 11.0992C7.00425 11.0385 7.04678 10.974 7.13389 10.9057C7.22515 10.8374 7.33198 10.7568 7.45436 10.6637C7.57674 10.5708 7.7043 10.4749 7.83705 10.3763C7.9698 10.2776 8.10047 10.1808 8.22907 10.0859C8.35768 9.99104 8.47176 9.90564 8.57132 9.82973C8.67919 9.74624 8.76941 9.71398 8.84201 9.73296C8.9146 9.75193 8.9509 9.81265 8.9509 9.91513C8.9509 9.94549 8.95194 9.98249 8.95402 10.0261C8.95609 10.0698 8.95816 10.1163 8.96024 10.1656C8.96231 10.2149 8.96439 10.2624 8.96646 10.308C8.96854 10.3535 8.96957 10.3933 8.96957 10.4275C8.96957 10.4996 8.99343 10.5442 9.04113 10.5612C9.08884 10.5784 9.15418 10.5869 9.23715 10.5869C9.42383 10.5831 9.63332 10.5812 9.86563 10.5812H10.5128C10.6082 10.5812 10.7036 10.5612 10.799 10.5214C10.8944 10.4816 10.9815 10.4284 11.0604 10.362C11.1392 10.2956 11.2035 10.2188 11.2533 10.1315C11.303 10.0442 11.3279 9.95118 11.3279 9.85251V9.45401C11.3279 9.3022 11.3269 9.15513 11.3248 9.01281C11.3228 8.87049 11.3218 8.74619 11.3218 8.63992V8.44067C11.3218 8.35717 11.3498 8.28791 11.4058 8.23288C11.4618 8.17785 11.5322 8.1361 11.6173 8.10764C11.7023 8.07917 11.7946 8.06494 11.8942 8.06494C11.9938 8.06494 12.0861 8.07822 12.1711 8.10479C12.2562 8.13136 12.3267 8.17025 12.3827 8.22149C12.4387 8.27273 12.4667 8.3363 12.4667 8.41221V8.83348C12.4667 8.93216 12.4678 9.03748 12.4698 9.14944C12.4718 9.2614 12.4729 9.36861 12.4729 9.47109V9.89236Z" fill="white"/>
</svg>
