<?xml version="1.0" encoding="UTF-8"?>
<svg width="22px" height="22px" viewBox="0 0 22 22" version="1.1" xmlns="http://www.w3.org/2000/svg" xmlns:xlink="http://www.w3.org/1999/xlink">
    <title>进行中备份 4</title>
    <g id="页面-1" stroke="none" stroke-width="1" fill="none" fill-rule="evenodd">
        <g id="画板" transform="translate(0.000000, -51.000000)">
            <g id="icon_private-message_22" transform="translate(0.000000, 51.000000)">
                <rect id="矩形" opacity="0.374139695" x="0" y="0" width="22" height="22"></rect>
                <g id="编组-12" transform="translate(3.000000, 2.000000)" fill="#1FB759">
                    <path d="M13,0 C14.6568542,-3.04359188e-16 16,1.34314575 16,3 L16,13 L15.9953805,12.7831104 C15.8818181,10.1223067 13.6887547,8 11,8 C8.23857625,8 6,10.2385763 6,13 C6,15.7614237 8.23857625,18 11,18 L11,18 L3,18 C1.34314575,18 2.02906125e-16,16.6568542 0,15 L0,3 C-2.02906125e-16,1.34314575 1.34314575,-5.83819232e-16 3,0 L13,0 Z M11,10 C12.6568542,10 14,11.3431458 14,13 C14,14.6568542 12.6568542,16 11,16 C9.34314575,16 8,14.6568542 8,13 C8,11.3431458 9.34314575,10 11,10 Z M10.75,11 C10.1977153,11 9.75,11.4477153 9.75,12 L9.75,12 L9.75,13.5 C9.75,14.0522847 10.1977153,14.5 10.75,14.5 C10.7553947,14.5 10.7607795,14.4999573 10.7661539,14.4998722 L10.7661539,14.4998722 L11.75,14.5 C12.3022847,14.5 12.75,14.0522847 12.75,13.5 C12.75,12.9477153 12.3022847,12.5 11.75,12.5 L11.75,12.5 L11.749,12.5 L11.75,12 C11.75,11.4477153 11.3022847,11 10.75,11 Z M5,8 L4,8 C3.44771525,8 3,8.44771525 3,9 C3,9.55228475 3.44771525,10 4,10 L4,10 L5,10 C5.55228475,10 6,9.55228475 6,9 C6,8.44771525 5.55228475,8 5,8 L5,8 Z M9,4 L4,4 C3.44771525,4 3,4.44771525 3,5 C3,5.55228475 3.44771525,6 4,6 L4,6 L9,6 C9.55228475,6 10,5.55228475 10,5 C10,4.44771525 9.55228475,4 9,4 L9,4 Z" id="形状结合"></path>
                </g>
            </g>
        </g>
    </g>
</svg>