<?xml version="1.0" encoding="UTF-8"?>
<svg width="16px" height="16px" viewBox="0 0 16 16" version="1.1" xmlns="http://www.w3.org/2000/svg" xmlns:xlink="http://www.w3.org/1999/xlink">
    <title>标签备份 5</title>
    <g id="页面-1" stroke="none" stroke-width="1" fill="none" fill-rule="evenodd">
        <g id="标签备份-5">
            <path d="M8,0 C12.418278,-8.11624501e-16 16,3.581722 16,8 C16,12.418278 12.418278,16 8,16 C3.581722,16 5.41083001e-16,12.418278 0,8 C-5.41083001e-16,3.581722 3.581722,8.11624501e-16 8,0 Z" id="Rectangle-10备份-9" fill="#8859EC"></path>
            <g id="策展人" transform="translate(2.000000, 2.000000)" fill="#FFFFFF" fill-rule="nonzero">
                <path d="M1.52764523,7.68011121 L2.13307194,5.25157759 C2.21053893,4.9440427 2.38866365,4.67122948 2.63882776,4.47778011 L6.73865704,1.2997542 C7.35928991,0.819532763 8.24820807,0.927648402 8.73700926,1.54280596 L10.1975334,3.39793582 C10.4299279,3.69222911 10.5348679,4.06809069 10.4887465,4.44096809 C10.4426251,4.81384548 10.2493153,5.15242602 9.95230347,5.38054383 L5.85395444,8.5575777 C5.60128401,8.75309296 5.29106432,8.85849947 4.97221236,8.85718853 L2.44590042,8.84824779 C1.92139463,8.84626369 1.49804001,8.4231552 1.50000683,7.90282599 C1.50000683,7.82792636 1.50938869,7.75302674 1.52764523,7.68011121 L1.52764523,7.68011121 Z M7.89474081,8.14290162 L10.0263165,8.14290162 C10.3421055,8.14290162 10.5,8.30162931 10.5,8.61908469 C10.5,8.93654007 10.3421055,9.09526775 10.0263165,9.09526775 L7.89474081,9.09526775 C7.57895181,9.09526775 7.42105732,8.93654007 7.42105732,8.61908469 C7.42105732,8.30162931 7.57895181,8.14290162 7.89474081,8.14290162 L7.89474081,8.14290162 Z M10.0263165,10.0476339 L1.97369719,10.0476339 C1.65790819,10.0476339 1.5000137,10.2063616 1.5000137,10.5238169 C1.5000137,10.8412723 1.65790819,11 1.97369719,11 L10.0263165,11 C10.3421055,11 10.5,10.8412723 10.5,10.5238169 C10.5,10.2063616 10.3421055,10.0476339 10.0263165,10.0476339 Z" id="形状"></path>
            </g>
        </g>
    </g>
</svg>