<?xml version="1.0" encoding="UTF-8"?>
<svg width="16px" height="16px" viewBox="0 0 16 16" version="1.1" xmlns="http://www.w3.org/2000/svg" xmlns:xlink="http://www.w3.org/1999/xlink">
    <title>标签备份 4</title>
    <g id="页面-1" stroke="none" stroke-width="1" fill="none" fill-rule="evenodd">
        <g id="标签备份-4">
            <path d="M8,0 C12.418278,-8.11624501e-16 16,3.581722 16,8 C16,12.418278 12.418278,16 8,16 C3.581722,16 5.41083001e-16,12.418278 0,8 C-5.41083001e-16,3.581722 3.581722,8.11624501e-16 8,0 Z" id="Rectangle-10备份-9" fill="#8859EC"></path>
            <g id="发言人" transform="translate(2.000000, 2.000000)" fill="#FFFFFF" fill-rule="nonzero">
                <path d="M6,7.36836283 C7.28807339,7.36836283 8.34250765,6.41482301 8.34250765,5.24889381 L8.34250765,3.11946903 C8.34250765,1.95353982 7.28807339,1 6,1 C4.71192661,1 3.65749235,1.95353982 3.65749235,3.11946903 L3.65749235,5.24889381 C3.65749235,6.41482301 4.71192661,7.36836283 6,7.36836283 Z" id="路径"></path>
                <path d="M8.48195719,10.1106195 L6.79877676,10.1106195 L6.79877676,9.09623894 C8.62507645,8.76106195 10,7.30088496 10,5.54977876 C10,5.28982301 9.75779817,5.07853982 9.45932722,5.07853982 C9.16085627,5.07853982 8.91865443,5.28982301 8.91865443,5.54977876 C8.91865443,7.00774336 7.61223242,8.19026549 6,8.19026549 C4.38776758,8.19026549 3.08134557,7.00774336 3.08134557,5.54977876 C3.08134557,5.28982301 2.83914373,5.07853982 2.54067278,5.07853982 C2.24220183,5.07853982 2,5.28871681 2,5.54977876 C2,7.30088496 3.37492355,8.76106195 5.20122324,9.09623894 L5.20122324,10.1106195 L3.51804281,10.1106195 C3.24648318,10.1106195 3.02629969,10.3097345 3.02629969,10.5553097 C3.02629969,10.800885 3.24648318,11 3.51804281,11 L8.48318043,11 C8.75474006,11 8.97492355,10.800885 8.97492355,10.5553097 C8.97370031,10.3097345 8.75351682,10.1106195 8.48195719,10.1106195 L8.48195719,10.1106195 Z" id="路径"></path>
            </g>
        </g>
    </g>
</svg>