<svg width="48" height="49" viewBox="0 0 48 49" fill="none" xmlns="http://www.w3.org/2000/svg">
<path d="M25.0917 34.3175V12.3215L33.087 20.9834C33.3815 21.3022 33.7906 21.491 34.2244 21.5082C34.6581 21.5253 35.0809 21.3695 35.3997 21.075C35.7186 20.7805 35.9073 20.3713 35.9245 19.9376C35.9417 19.5039 35.7859 19.0811 35.4913 18.7623L24.6575 7.02518C24.5041 6.85954 24.3182 6.7274 24.1113 6.63702C23.9044 6.54665 23.6811 6.5 23.4553 6.5C23.2296 6.5 23.0063 6.54665 22.7994 6.63702C22.5925 6.7274 22.4066 6.85954 22.2532 7.02518L11.4193 18.7634C11.2732 18.9211 11.1596 19.1061 11.0851 19.3078C11.0106 19.5095 10.9767 19.7239 10.9852 19.9387C10.9937 20.1536 11.0445 20.3646 11.1347 20.5598C11.225 20.755 11.3528 20.9304 11.511 21.0761C11.669 21.2218 11.8541 21.335 12.0559 21.4092C12.2576 21.4833 12.472 21.517 12.6868 21.5083C12.9016 21.4996 13.1125 21.4486 13.3076 21.3584C13.5027 21.2681 13.678 21.1403 13.8237 20.9823L21.819 12.3215V34.3175C21.819 34.7515 21.9914 35.1677 22.2983 35.4746C22.6051 35.7815 23.0214 35.9539 23.4553 35.9539C23.8893 35.9539 24.3056 35.7815 24.6124 35.4746C24.9193 35.1677 25.0917 34.7515 25.0917 34.3175Z" fill="#797979"/>
<rect x="40" y="41.5" width="33" height="3" rx="1.5" transform="rotate(-180 40 41.5)" fill="#797979"/>
</svg>
