<?xml version="1.0" encoding="UTF-8"?>
<svg width="22px" height="22px" viewBox="0 0 22 22" version="1.1" xmlns="http://www.w3.org/2000/svg" xmlns:xlink="http://www.w3.org/1999/xlink">
    <title>icon-emoji</title>
    <g id="页面-1" stroke="none" stroke-width="1" fill="none" fill-rule="evenodd">
        <g id="icon-emoji" transform="translate(0.250000, 0.250000)" fill="#AE88FE" fill-rule="nonzero">
            <path d="M10.75,21.5 C4.822,21.5 0,16.678 0,10.75 C0,4.822 4.822,0 10.75,0 C16.678,0 21.5,4.822 21.5,10.75 C21.5,16.678 16.678,21.5 10.75,21.5 Z M10.75,1.5 C5.65,1.5 1.5,5.65 1.5,10.75 C1.5,15.85 5.65,20 10.75,20 C15.85,20 20,15.85 20,10.75 C20,5.65 15.85,1.5 10.75,1.5 Z" id="形状"></path>
            <path d="M10.75,15.865 C8.858,15.865 7.117,14.915 6.094,13.321 C5.87,12.973 5.971,12.511 6.32,12.286 C6.668,12.06 7.132,12.162 7.356,12.512 C8.103,13.674 9.372,14.367 10.751,14.367 C12.13,14.367 13.399,13.674 14.147,12.513 C14.371,12.163 14.835,12.063 15.183,12.288 C15.533,12.512 15.633,12.976 15.409,13.324 C14.384,14.918 12.643,15.869 10.751,15.869 L10.75,15.865 Z" id="路径"></path>
            <circle id="椭圆形" cx="13.488" cy="8.208" r="1.478"></circle>
            <circle id="椭圆形" cx="8.012" cy="8.208" r="1.478"></circle>
        </g>
    </g>
</svg>