<svg width="18" height="18" viewBox="0 0 18 18" fill="none" xmlns="http://www.w3.org/2000/svg">
<path d="M18 9C18 13.9706 13.9706 18 9 18C4.02944 18 0 13.9706 0 9C0 4.02944 4.02944 0 9 0C13.9706 0 18 4.02944 18 9ZM0.900001 9C0.900001 13.4735 4.52649 17.1 9 17.1C13.4735 17.1 17.1 13.4735 17.1 9C17.1 4.52649 13.4735 0.900001 9 0.900001C4.52649 0.900001 0.900001 4.52649 0.900001 9Z" fill="#7D7F88"/>
<path d="M18 9C18 13.9706 13.9706 18 9 18C4.02944 18 0 13.9706 0 9C0 4.02944 4.02944 0 9 0C13.9706 0 18 4.02944 18 9ZM0.900001 9C0.900001 13.4735 4.52649 17.1 9 17.1C13.4735 17.1 17.1 13.4735 17.1 9C17.1 4.52649 13.4735 0.900001 9 0.900001C4.52649 0.900001 0.900001 4.52649 0.900001 9Z" fill="#19AF00"/>
<path d="M14.0996 6.95435L8.87194 12.1818C8.79732 12.2564 8.70873 12.3156 8.61124 12.356C8.51374 12.3964 8.40924 12.4172 8.30371 12.4172C8.19818 12.4172 8.09369 12.3964 7.99619 12.356C7.89869 12.3156 7.81011 12.2564 7.73549 12.1818L5.23538 9.68167C5.16075 9.60705 5.10156 9.51846 5.06117 9.42096C5.02079 9.32347 5 9.21897 5 9.11344C5 9.00791 5.02079 8.90341 5.06117 8.80592C5.10156 8.70842 5.16075 8.61984 5.23538 8.54522C5.30999 8.47059 5.39858 8.4114 5.49608 8.37101C5.59357 8.33063 5.69807 8.30984 5.8036 8.30984C5.90913 8.30984 6.01363 8.33063 6.11112 8.37101C6.20862 8.4114 6.29721 8.47059 6.37183 8.54522L8.30381 10.4772L12.9631 5.81789C13.0377 5.74327 13.1263 5.68408 13.2238 5.64369C13.3213 5.60331 13.4258 5.58252 13.5313 5.58252C13.6369 5.58252 13.7414 5.60331 13.8389 5.64369C13.9364 5.68408 14.025 5.74327 14.0996 5.81789C14.1742 5.89251 14.2334 5.9811 14.2738 6.0786C14.3142 6.17609 14.3349 6.28059 14.3349 6.38612C14.3349 6.49165 14.3142 6.59615 14.2738 6.69364C14.2334 6.79114 14.1742 6.87973 14.0996 6.95435Z" fill="#19AF00"/>
<path d="M14.0996 5.81789C14.025 5.74327 13.9364 5.68408 13.8389 5.64369C13.7414 5.60331 13.6369 5.58252 13.5313 5.58252C13.4258 5.58252 13.3213 5.60331 13.2238 5.64369C13.1263 5.68408 13.0377 5.74327 12.9631 5.81789L8.30381 10.4772L6.37283 8.54522C6.29821 8.47059 6.20963 8.4114 6.11213 8.37101C6.01463 8.33063 5.91014 8.30984 5.80461 8.30984C5.69908 8.30984 5.59458 8.33063 5.49708 8.37101C5.39959 8.4114 5.311 8.47059 5.23638 8.54522C5.16176 8.61984 5.10256 8.70842 5.06218 8.80592C5.02179 8.90341 5.001 9.00791 5.001 9.11344C5.001 9.21897 5.02179 9.32347 5.06218 9.42096C5.10256 9.51846 5.16176 9.60705 5.23638 9.68167L7.73549 12.1818C7.81011 12.2564 7.89869 12.3156 7.99619 12.356C8.09369 12.3964 8.19818 12.4172 8.30371 12.4172C8.40924 12.4172 8.51374 12.3964 8.61124 12.356C8.70873 12.3156 8.79732 12.2564 8.87194 12.1818L14.0996 6.95435C14.1742 6.87973 14.2334 6.79114 14.2738 6.69364C14.3142 6.59615 14.3349 6.49165 14.3349 6.38612C14.3349 6.28059 14.3142 6.17609 14.2738 6.0786C14.2334 5.9811 14.1742 5.89251 14.0996 5.81789Z" fill="white"/>
</svg>
