<svg width="20" height="20" viewBox="0 0 20 20" fill="none" xmlns="http://www.w3.org/2000/svg">
    <circle cx="10" cy="10" r="8" fill="#7851FF"/>
    <path d="M13.5352 7.87217L13.4962 7.90341L13.5352 7.87217L13.4325 7.74375C13.1432 7.38212 12.7269 7.12137 12.2509 7.00981C11.7556 6.89372 11.2327 6.94795 10.7782 7.16098L10.5951 7.24679C10.3684 7.35305 10.1689 7.4984 10.0057 7.67291C10.0049 7.67372 10.0031 7.67489 10 7.67489C9.99693 7.67489 9.9951 7.67372 9.99434 7.67291C9.83111 7.4984 9.63159 7.35305 9.40489 7.24679L9.22183 7.16098C8.76734 6.94795 8.24443 6.89372 7.74912 7.00981C7.27308 7.12137 6.85683 7.38212 6.56752 7.74375L6.46477 7.87217C6.12975 8.29093 5.95 8.7983 5.95 9.31815V9.46159C5.95 9.69336 5.98032 9.92434 6.04034 10.1494L6.07616 10.2837C6.21277 10.796 6.45744 11.2783 6.79656 11.7022L7.0053 11.9631C7.17462 12.1748 7.35986 12.375 7.55967 12.5623L7.77137 12.7608C8.28324 13.2406 8.87499 13.6406 9.52419 13.9449C9.82306 14.085 10.1769 14.085 10.4758 13.9449C11.125 13.6406 11.7168 13.2406 12.2286 12.7608L12.4403 12.5623C12.6401 12.375 12.8254 12.1748 12.9947 11.9631L13.2034 11.7022C13.5426 11.2783 13.7872 10.796 13.9238 10.2837L13.9597 10.1494C14.0197 9.92434 14.05 9.69336 14.05 9.46159V9.31815C14.05 8.7983 13.8702 8.29093 13.5352 7.87217ZM7.9416 7.6614C8.25238 7.58857 8.58106 7.62198 8.86974 7.7573L9.05281 7.8431C9.28019 7.94968 9.46826 8.12437 9.58533 8.34387C9.69674 8.55275 9.84037 8.67628 9.99935 8.67668C10.1585 8.67708 10.3025 8.5541 10.4147 8.34387C10.5317 8.12437 10.7198 7.94968 10.9472 7.8431L11.1303 7.7573C11.4189 7.62198 11.7476 7.58857 12.0584 7.6614C12.3579 7.7316 12.6269 7.89735 12.8172 8.13526L12.92 8.26369C13.162 8.5663 13.2943 8.93631 13.2943 9.31815V9.46159C13.2943 9.64091 13.2708 9.81947 13.2245 9.99325L13.1886 10.1276C13.0743 10.5564 12.8699 10.9586 12.5882 11.3107L12.3794 11.5716C12.2305 11.7577 12.0678 11.9336 11.8926 12.0978L11.6809 12.2963C11.2248 12.7239 10.6989 13.079 10.1237 13.3486C10.0452 13.3854 9.95482 13.3854 9.87627 13.3486C9.30112 13.079 8.77521 12.7239 8.31914 12.2963L8.10743 12.0978C7.93219 11.9336 7.76948 11.7577 7.62058 11.5716L7.41184 11.3107C7.13013 10.9586 6.92572 10.5564 6.81137 10.1276L6.77554 9.99325C6.7292 9.81947 6.70574 9.64091 6.70574 9.46159V9.31815C6.70574 8.93631 6.83795 8.5663 7.08005 8.26369L7.1828 8.13526C7.37313 7.89735 7.64207 7.7316 7.9416 7.6614Z" fill="white" stroke="white" stroke-width="0.1"/>
</svg>
