<svg width="20" height="20" viewBox="0 0 20 20" fill="none" xmlns="http://www.w3.org/2000/svg">
<circle cx="10" cy="10" r="10" fill="url(#paint0_radial_1_123)"/>
<rect x="5" y="5" width="10" height="10" rx="1.5" stroke="white"/>
<path d="M13.0904 9.86529C13.0904 10.1452 13.0256 10.4168 12.896 10.6801C12.7663 10.9434 12.59 11.1782 12.3671 11.3846C12.1441 11.5909 11.8861 11.7558 11.5931 11.8791C11.3001 12.0025 10.9903 12.0642 10.6636 12.0642H10.3603C10.241 12.0642 10.1126 12.0654 9.97523 12.0677C9.83781 12.0701 9.70169 12.0713 9.56687 12.0713H9.20129C9.05091 12.0713 8.93164 12.0855 8.84348 12.114C8.75533 12.1424 8.71385 12.2041 8.71903 12.299C8.71903 12.3702 8.71774 12.452 8.71514 12.5445C8.71255 12.637 8.71125 12.7212 8.71125 12.7971C8.71125 12.9205 8.67495 12.9999 8.60236 13.0355C8.52976 13.0711 8.43383 13.0462 8.31456 12.9608C8.19011 12.8754 8.0475 12.7746 7.88675 12.6584C7.726 12.5421 7.56006 12.4223 7.38894 12.299C7.21782 12.1757 7.04929 12.0547 6.88335 11.9361C6.71741 11.8175 6.56963 11.7107 6.43999 11.6159C6.32072 11.5305 6.25979 11.4498 6.2572 11.3739C6.2546 11.298 6.30776 11.2174 6.41665 11.132C6.53073 11.0466 6.66426 10.9458 6.81724 10.8295C6.97021 10.7133 7.12966 10.5935 7.2956 10.4702C7.46154 10.3468 7.62488 10.2258 7.78563 10.1072C7.94639 9.98864 8.08899 9.88189 8.21344 9.78701C8.34827 9.68264 8.46105 9.64232 8.5518 9.66604C8.64254 9.68976 8.68792 9.76566 8.68792 9.89375C8.68792 9.93171 8.68921 9.97796 8.69181 10.0325C8.6944 10.0871 8.69699 10.1452 8.69959 10.2069C8.70218 10.2685 8.70477 10.3278 8.70736 10.3848C8.70996 10.4417 8.71125 10.4915 8.71125 10.5342C8.71125 10.6243 8.74107 10.6801 8.8007 10.7014C8.86034 10.7228 8.94201 10.7335 9.04572 10.7335C9.27907 10.7287 9.54094 10.7263 9.83133 10.7263H10.6403C10.7595 10.7263 10.8788 10.7014 10.9981 10.6516C11.1173 10.6018 11.2262 10.5354 11.3248 10.4524C11.4233 10.3693 11.5037 10.2733 11.5659 10.1642C11.6281 10.0551 11.6592 9.93882 11.6592 9.81548V9.31735C11.6592 9.12759 11.6579 8.94375 11.6553 8.76585C11.6528 8.58795 11.6515 8.43258 11.6515 8.29974V8.05068C11.6515 7.94631 11.6865 7.85973 11.7565 7.79094C11.8265 7.72215 11.9146 7.66997 12.0209 7.63439C12.1272 7.59881 12.2426 7.58102 12.3671 7.58102C12.4915 7.58102 12.6069 7.59762 12.7132 7.63083C12.8195 7.66404 12.9077 7.71266 12.9777 7.77671C13.0477 7.84075 13.0827 7.92022 13.0827 8.0151V8.54169C13.0827 8.66504 13.084 8.79669 13.0866 8.93664C13.0891 9.07659 13.0904 9.21061 13.0904 9.3387V9.86529Z" fill="white"/>
<defs>
    <radialGradient id="paint0_radial_1_123" cx="0" cy="0" r="1" gradientUnits="userSpaceOnUse" gradientTransform="translate(17.0833 1.29144e-06) rotate(90) scale(21.6667)">
        <stop stop-color="#7D7F88"/>
        <stop offset="1" stop-color="#7D7F88"/>
    </radialGradient>
</defs>
</svg>
