<?xml version="1.0" encoding="UTF-8"?>
<svg width="21px" height="20px" viewBox="0 0 21 20" version="1.1" xmlns="http://www.w3.org/2000/svg" xmlns:xlink="http://www.w3.org/1999/xlink">
    <title>icon-theme-dark</title>
    <g id="页面-1" stroke="none" stroke-width="1" fill="none" fill-rule="evenodd">
        <g id="icon-theme-dark" transform="translate(0.157804, 0.100000)" fill="#848391" fill-rule="nonzero">
            <path d="M9.94219591,19.9 C9.64219591,19.9 9.34219591,19.9 9.04219591,19.9 C3.54219591,19.4 -0.457804088,14.5 0.0421959122,9 C0.442195912,4.2 4.24219591,0.4 9.04219591,0 C9.44219591,0 9.84219591,0.2 10.0421959,0.5 C10.2421959,0.8 10.2421959,1.3 9.94219591,1.6 C7.94219591,4.3 8.54219591,8 11.2421959,10 C13.3421959,11.6 16.2421959,11.6 18.3421959,10 C18.6421959,9.8 19.0421959,9.7 19.4421959,9.9 C19.7421959,10.1 19.9421959,10.5 19.9421959,10.9 C19.7421959,13.6 18.4421959,16 16.3421959,17.7 C14.4421959,19.1 12.2421959,19.9 9.94219591,19.9 Z M7.14219591,2.3 C4.24219591,3.3 2.14219591,5.9 1.94219591,9.1 C1.54219591,13.5 4.74219591,17.4 9.14219591,17.8 C11.2421959,18 13.3421959,17.4 14.9421959,16 C16.0421959,15.1 16.8421959,13.9 17.3421959,12.6 C14.8421959,13.5 12.0421959,13.1 9.84219591,11.5 C7.04219591,9.3 5.94219591,5.6 7.14219591,2.3 Z" id="形状"></path>
        </g>
    </g>
</svg>