<?xml version="1.0" encoding="UTF-8"?>
<svg width="16px" height="16px" viewBox="0 0 16 16" version="1.1" xmlns="http://www.w3.org/2000/svg" xmlns:xlink="http://www.w3.org/1999/xlink">
    <title>标签备份 6</title>
    <g id="页面-1" stroke="none" stroke-width="1" fill="none" fill-rule="evenodd">
        <g id="标签备份-6">
            <path d="M8,0 C12.418278,-8.11624501e-16 16,3.581722 16,8 C16,12.418278 12.418278,16 8,16 C3.581722,16 5.41083001e-16,12.418278 0,8 C-5.41083001e-16,3.581722 3.581722,8.11624501e-16 8,0 Z" id="Rectangle-10备份-9" fill="#8859EC"></path>
            <g id="主持人" transform="translate(2.000000, 2.000000)" fill="#FFFFFF" fill-rule="nonzero">
                <path d="M3.55691964,3.4428759 C3.55691964,4.79203899 4.65072398,5.88575177 6,5.88575177 C7.34927602,5.88575177 8.44308036,4.79203899 8.44308036,3.4428759 C8.44308036,2.57012041 7.97743189,1.76366107 7.22154019,1.32728331 C6.46564849,0.890905562 5.53435151,0.890905562 4.77845981,1.32728331 C4.02256811,1.76366107 3.55691964,2.57012041 3.55691964,3.4428759 L3.55691964,3.4428759 Z M11,9.5026365 C11,11.4991212 1,11.4991212 1,9.5026365 C1,7.50615184 3.23883929,6.3053595 6,6.3053595 C8.76116071,6.3053595 11,7.50615184 11,9.5026365 Z" id="形状结合"></path>
            </g>
        </g>
    </g>
</svg>