<?xml version="1.0" standalone="no"?><!DOCTYPE svg PUBLIC "-//W3C//DTD SVG 1.1//EN" "http://www.w3.org/Graphics/SVG/1.1/DTD/svg11.dtd"><svg t="1668433320513" class="icon" viewBox="0 0 1024 1024" version="1.1" xmlns="http://www.w3.org/2000/svg" p-id="2696" xmlns:xlink="http://www.w3.org/1999/xlink" width="200" height="200"><path d="M953.747408 888.433927l-88.127903-0.132756 0.33189 91.446806a44.252023 44.252023 0 0 1-88.504046 0l0.22126-91.601688-89.389087-0.154882a44.252023 44.252023 0 0 1-44.252023-44.252023 43.079344 43.079344 0 0 1 44.252023-42.858084L777.801365 800.54941l0.132756-90.451136a44.252023 44.252023 0 0 1 44.252023-44.252023 43.079344 43.079344 0 0 1 42.858084 44.252023l0.33189 90.119245 88.37129-0.309764a44.252023 44.252023 0 0 1 0 88.526172zM641.947654 566.655342a431.700611 431.700611 0 0 1 57.52763 30.688778 43.920133 43.920133 0 0 1 21.240971 14.249151c4.557958 3.208272 9.469933 5.951897 13.895135 9.315051h-4.425202l2.765751 44.252023h-7.500717a44.075015 44.075015 0 0 1-38.410756 22.657036v9.005287c-5.442999-4.425202-11.063006-8.341506-16.860021-12.368441a44.252023 44.252023 0 0 1-14.227026-9.425681 351.538071 351.538071 0 0 0-177.583368-54.828256c-3.783548 0.132756-7.522844 0.575276-11.350644 0.575276s-7.522844-0.44252-11.306392-0.575276A354.016184 354.016184 0 0 0 115.547714 930.672483H114.463539v0.531025a44.252023 44.252023 0 1 1-88.504046 0l-0.398268-4.093312a43.676747 43.676747 0 0 1 3.208272-16.351123 443.383145 443.383145 0 0 1 263.299537-344.037353 310.361564 310.361564 0 1 1 349.87862-0.066378z m-175.105255-477.921849a221.680509 221.680509 0 1 0 221.769013 221.769013A221.680509 221.680509 0 0 0 466.842399 88.821997z" p-id="2697" fill="#7D7F88"></path></svg>