<?xml version="1.0" encoding="UTF-8"?>
<svg width="22px" height="22px" viewBox="0 0 22 22" version="1.1" xmlns="http://www.w3.org/2000/svg" xmlns:xlink="http://www.w3.org/1999/xlink">
    <title>icon-profile</title>
    <g id="页面-1" stroke="none" stroke-width="1" fill="none" fill-rule="evenodd" opacity="0.597769" stroke-linecap="round" stroke-linejoin="round">
        <g id="icon-profile" transform="translate(1.000000, 1.000000)" stroke="#FFFFFF" stroke-width="1.5">
            <path d="M10.12,10.78 C10.05,10.77 9.96,10.77 9.88,10.78 C8.12,10.72 6.71997,9.28 6.71997,7.50998 C6.71997,5.69998 8.18,4.22998 10,4.22998 C11.81,4.22998 13.28,5.69998 13.28,7.50998 C13.27,9.28 11.88,10.72 10.12,10.78 Z" id="路径"></path>
            <path d="M16.74,17.3801 C14.96,19.0101 12.6,20.0001 10,20.0001 C7.40001,20.0001 5.04001,19.0101 3.26001,17.3801 C3.36001,16.4401 3.96001,15.5201 5.03001,14.8001 C7.77001,12.9801 12.25,12.9801 14.97,14.8001 C16.04,15.5201 16.64,16.4401 16.74,17.3801 Z" id="路径"></path>
            <path d="M10,20 C15.5228,20 20,15.5228 20,10 C20,4.47715 15.5228,0 10,0 C4.47715,0 0,4.47715 0,10 C0,15.5228 4.47715,20 10,20 Z" id="路径"></path>
        </g>
    </g>
</svg>