<svg width="21" height="25" viewBox="0 0 21 25" fill="none" xmlns="http://www.w3.org/2000/svg">
<path fill-rule="evenodd" clip-rule="evenodd" d="M0.938429 14.5105V14.2642C0.97457 13.5353 1.20817 12.8291 1.61515 12.2183C2.29256 11.4846 2.75629 10.5856 2.95768 9.61548C2.95768 8.86569 2.95768 8.10519 3.02317 7.3554C3.36153 3.74572 6.93069 1.25 10.4562 1.25H10.5435C14.069 1.25 17.6382 3.74572 17.9874 7.3554C18.0529 8.10519 17.9874 8.86569 18.042 9.61548C18.2461 10.5878 18.7094 11.4897 19.3845 12.229C19.7946 12.8344 20.0285 13.538 20.0613 14.2642V14.4998C20.0856 15.4791 19.7484 16.4339 19.1117 17.1883C18.2703 18.0704 17.1286 18.6192 15.9027 18.7307C12.3079 19.1164 8.68091 19.1164 5.08608 18.7307C3.86154 18.6144 2.72148 18.0664 1.87711 17.1883C1.25025 16.4333 0.917521 15.4842 0.938429 14.5105Z" stroke="#1A1E25" stroke-width="1.5" stroke-linecap="round" stroke-linejoin="round"/>
<path d="M7.74951 22.4583C8.3112 23.1633 9.13603 23.6195 10.0415 23.7261C10.9469 23.8326 11.8583 23.5807 12.5739 23.0259C12.794 22.8619 12.992 22.6711 13.1633 22.4583" stroke="#1A1E25" stroke-width="1.5" stroke-linecap="round" stroke-linejoin="round"/>
</svg>
