<svg width="22" height="16" viewBox="0 0 22 16" fill="none" xmlns="http://www.w3.org/2000/svg">
<path d="M21.7894 11.3641C21.5217 11.0955 21.0863 11.0955 20.8177 11.3641L18.7827 13.3991V4.01242C18.7827 2.11675 17.24 0.574921 15.3452 0.574921H9.9827C9.6032 0.574921 9.2952 0.882921 9.2952 1.26242C9.2952 1.64192 9.6032 1.94992 9.9827 1.94992H15.3452C16.4819 1.94992 17.4077 2.87575 17.4077 4.01242V13.3991L15.3727 11.3641C15.1041 11.0955 14.6687 11.0955 14.401 11.3641C14.1334 11.6327 14.1315 12.0681 14.401 12.3358L17.6094 15.5441C17.7423 15.6788 17.9183 15.7458 18.0952 15.7458C18.2721 15.7458 18.4463 15.6798 18.581 15.5441L21.7894 12.3358C22.0589 12.0681 22.0589 11.6327 21.7894 11.3641V11.3641ZM12.0177 14.3708H6.6552C5.51853 14.3708 4.5927 13.4449 4.5927 12.3083V2.92159L6.6277 4.95659C6.76337 5.09134 6.93937 5.15825 7.11537 5.15825C7.29137 5.15825 7.46737 5.09134 7.6012 4.95659C7.86978 4.68801 7.86978 4.25259 7.6012 3.98492L4.39287 0.776588C4.12428 0.507088 3.68887 0.507088 3.4212 0.776588L0.212867 3.98492C-0.0566328 4.25259 -0.0566328 4.68801 0.212867 4.95659C0.482367 5.22517 0.915951 5.22517 1.18453 4.95659L3.21953 2.92159V12.3083C3.21953 14.2039 4.76228 15.7458 6.65703 15.7458H12.0195C12.399 15.7458 12.707 15.4378 12.707 15.0583C12.707 14.6788 12.3981 14.3708 12.0195 14.3708H12.0177Z" fill="#8F8F8F"/>
</svg>
