<svg width="16" height="16" viewBox="0 0 16 16" fill="none" xmlns="http://www.w3.org/2000/svg">
<path d="M8 8C12.4868 8 16 6.24296 16 4.00107C16 1.75704 12.4845 0 8 0C3.51317 0 0 1.75704 0 4.00107C0 6.24296 3.51317 8 8 8ZM8 1.35157C11.8455 1.35157 14.5255 2.74604 14.5255 3.99893C14.5255 5.25181 11.8455 6.64629 8 6.64629C4.15448 6.64629 1.47689 5.25181 1.47689 3.99893C1.47689 2.74819 4.15448 1.35157 8 1.35157Z" fill="#7D7F88"/>
<path d="M14.5255 7.19624V8.10647C14.5255 9.32568 11.8455 10.6827 8 10.6827C4.15448 10.6827 1.47689 9.32568 1.47689 8.10647V7.19624C0.870684 6.84551 0.369807 6.44468 0 6V8.10647C0 10.2902 3.51317 12 8 12C12.4868 12 16 10.2902 16 8.10647V6C15.6325 6.44468 15.1317 6.84551 14.5255 7.19624Z" fill="#7D7F88"/>
<path d="M14.5255 11.1962V12.1065C14.5255 13.3257 11.8455 14.6827 8 14.6827C4.15448 14.6827 1.47689 13.3257 1.47689 12.1065V11.1962C0.870684 10.8455 0.369807 10.4447 0 10V12.1065C0 14.2902 3.51317 16 8 16C12.4868 16 16 14.2902 16 12.1065V10C15.6325 10.4447 15.1317 10.8455 14.5255 11.1962Z" fill="#7D7F88"/>
</svg>
