<?xml version="1.0" standalone="no"?><!DOCTYPE svg PUBLIC "-//W3C//DTD SVG 1.1//EN" "http://www.w3.org/Graphics/SVG/1.1/DTD/svg11.dtd"><svg t="1684079310569" class="icon" viewBox="0 0 1024 1024" version="1.1" xmlns="http://www.w3.org/2000/svg" p-id="3253" xmlns:xlink="http://www.w3.org/1999/xlink" width="200" height="200"><path d="M372.516571 118.491429c-27.282286 29.110857-42.569143 68.754286-42.569142 110.006857V256H218.624c-38.546286 0-75.556571 16.384-102.838857 45.568S73.142857 370.322286 73.142857 411.648v54.857143c0 17.042286 6.290286 33.353143 17.554286 45.348571a58.002286 58.002286 0 0 0 42.422857 18.797715h11.922286L135.168 761.417143c-1.024 24.429714 2.998857 48.859429 11.922286 71.753143 8.923429 22.893714 22.454857 43.885714 39.862857 61.44 17.408 17.700571 38.326857 31.817143 61.44 41.398857 23.113143 9.581714 48.054857 14.555429 73.142857 14.628571h307.785143c25.161143-0.073143 50.029714-5.046857 73.142857-14.628571 23.113143-9.581714 44.032-23.698286 61.44-41.325714 17.408-17.700571 31.012571-38.619429 39.862857-61.44 8.923429-22.966857 12.946286-47.396571 11.922286-71.826286l-9.874286-230.765714h11.995429a58.002286 58.002286 0 0 0 42.422857-18.797715 66.413714 66.413714 0 0 0 17.481143-45.348571v-54.857143c0-41.325714-15.36-80.896-42.642286-110.08A140.873143 140.873143 0 0 0 732.233143 256H620.909714v-27.501714c0-41.252571-15.36-80.896-42.569143-110.08C551.058286 89.234286 513.974857 72.850286 475.428571 72.850286c-38.619429 0-75.629714 16.384-102.912 45.568z m62.171429 745.618285l6.436571-138.971428a47.762286 47.762286 0 0 0-10.971428-32.914286 41.691429 41.691429 0 0 0-29.622857-14.994286 41.179429 41.179429 0 0 0-30.866286 11.702857 47.104 47.104 0 0 0-13.970286 31.744l-6.729143 143.36h-27.428571a99.986286 99.986286 0 0 1-70.509714-29.257142 94.793143 94.793143 0 0 1-27.062857-69.778286l9.801142-229.522286h483.328l9.801143 229.522286a92.891429 92.891429 0 0 1-27.062857 69.851428 97.865143 97.865143 0 0 1-70.582857 29.257143h-194.56z m-1.609143-680.96a58.002286 58.002286 0 0 1 42.349714-18.724571c15.872 0 31.158857 6.729143 42.422858 18.797714 11.190857 11.995429 17.554286 28.306286 17.554285 45.348572v73.142857c0 25.307429 19.090286 45.787429 42.715429 45.787428h154.112c15.872 0 31.085714 6.802286 42.349714 18.797715 11.190857 11.995429 17.554286 28.306286 17.554286 45.348571v27.428571H158.72v-27.428571c0-17.042286 6.363429-33.353143 17.554286-45.348571a58.002286 58.002286 0 0 1 42.422857-18.797715h154.038857c23.625143 0 42.788571-20.48 42.788571-45.714285V228.498286c0-16.969143 6.290286-33.28 17.554286-45.348572z" fill="#ffffff" p-id="3254"></path></svg>