<?xml version="1.0" encoding="UTF-8"?>
<svg width="24px" height="24px" viewBox="0 0 24 24" version="1.1" xmlns="http://www.w3.org/2000/svg" xmlns:xlink="http://www.w3.org/1999/xlink">
    <title>编组 10</title>
    <g id="页面-1备份-2" stroke="none" stroke-width="1" fill="none" fill-rule="evenodd">
        <g id="主页" transform="translate(-301.000000, -54.000000)">
            <g id="编组-10" transform="translate(301.000000, 54.000000)">
                <rect id="矩形" x="0" y="0" width="24" height="24"></rect>
                <g id="编组-8" transform="translate(2.500000, 2.000000)">
                    <path d="M8.51264883,0.8 C10.6405037,0.8 12.5661095,1.68251116 13.9602854,3.10685516 C15.3605935,4.53746415 16.2252977,6.51421401 16.2252977,8.69685143 C16.2252977,10.8794889 15.3605935,12.8562387 13.9602854,14.2868477 C12.5661095,15.7111917 10.6405037,16.5937029 8.51264883,16.5937029 C6.38479399,16.5937029 4.45918813,15.7111917 3.06501228,14.2868477 C1.66470413,12.8562387 0.8,10.8794889 0.8,8.69685143 C0.8,6.51421401 1.66470413,4.53746415 3.06501228,3.10685516 C4.45918813,1.68251116 6.38479399,0.8 8.51264883,0.8 Z" id="路径" stroke="#999999" stroke-width="1.6"></path>
                    <path d="M16.3841941,13.0836527 C16.8012715,13.0774365 17.1444188,13.4105052 17.150635,13.8275826 C17.1507198,13.8332692 17.1507403,13.8389565 17.1506966,13.8446435 L17.1074537,19.4702617 C17.1041527,19.8996974 16.7584759,20.2478779 16.3290751,20.2542778 C15.9119978,20.260494 15.5688505,19.9274253 15.5626343,19.5103479 C15.5625495,19.5046613 15.562529,19.498974 15.5625727,19.493287 L15.6058156,13.8676688 C15.6091166,13.4382331 15.9547934,13.0900526 16.3841941,13.0836527 Z" id="矩形" fill="#999999" transform="translate(16.356635, 16.668965) rotate(-45.000000) translate(-16.356635, -16.668965) "></path>
                </g>
            </g>
        </g>
    </g>
</svg>