<svg width="19" height="34" viewBox="0 0 19 34" fill="none" xmlns="http://www.w3.org/2000/svg">
<path d="M5.19317e-07 31.7545C5.47238e-07 31.1157 0.211112 30.477 0.633334 30.0511L14.3556 18.3405C14.5667 17.9147 14.7778 17.7018 14.7778 17.063C14.7778 16.8501 14.5667 16.2114 14.3556 15.9984L0.844446 3.64911C1.78507e-06 2.79743 1.84091e-06 1.51991 0.633335 0.668234C1.47778 -0.183444 2.74445 -0.183444 3.58889 0.455314L17.1 12.8046C18.3667 13.8692 19 15.5726 19 17.2759C19 18.9793 18.1556 20.4697 16.8889 21.7473L3.37778 33.4578C2.53333 34.3095 1.26667 34.0966 0.422224 33.2449C0.211113 32.8191 5.00703e-07 32.1803 5.19317e-07 31.7545Z" fill="#373737"/>
</svg>
