<?xml version="1.0" encoding="UTF-8"?>
<svg width="24px" height="24px" viewBox="0 0 24 24" version="1.1" xmlns="http://www.w3.org/2000/svg" xmlns:xlink="http://www.w3.org/1999/xlink">
    <title>流行排序-未选中</title>
    <g id="流行排序-未选中" stroke="none" stroke-width="1" fill="none" fill-rule="evenodd">
        <g id="编组" fill="#B8B8B8" fill-rule="nonzero">
            <path d="M19.5,2.25 C21.2949147,2.25 22.75,3.70548742 22.75,5.5 L22.75,18.5 C22.75,20.2945126 21.2949147,21.75 19.5,21.75 L4.5,21.75 C2.70508535,21.75 1.25,20.2945126 1.25,18.5 L1.25,5.5 C1.25,3.70548742 2.70508535,2.25 4.5,2.25 Z M19.5,3.75 L4.5,3.75 C3.53360526,3.75 2.75,4.53382178 2.75,5.5 L2.75,18.5 C2.75,19.4661782 3.53360526,20.25 4.5,20.25 L19.5,20.25 C20.4663947,20.25 21.25,19.4661782 21.25,18.5 L21.25,5.5 C21.25,4.53382178 20.4663947,3.75 19.5,3.75 Z M18,7 L18,13 L16,13 L15.9998932,10.414 L11,15.4142136 L9,13.415 L5.70710678,16.7071068 L4.29289322,15.2928932 L9,10.5857864 L11,12.585 L14.5848932,9 L12,9 L12,7 L18,7 Z" id="形状结合"></path>
        </g>
    </g>
</svg>