<?xml version="1.0" encoding="UTF-8"?>
<svg width="35px" height="20px" viewBox="0 0 35 20" version="1.1" xmlns="http://www.w3.org/2000/svg" xmlns:xlink="http://www.w3.org/1999/xlink">
    <title>icon-drawer-arrow</title>
    <g id="页面-1" stroke="none" stroke-width="1" fill="none" fill-rule="evenodd">
        <g id="icon-drawer-arrow" transform="translate(0.499999, 0.500001)" fill="#FFFFFF" fill-rule="nonzero">
            <path d="M7.50000168,24.2544992 C7.50000168,23.6156992 7.71111316,22.9769992 8.13333516,22.5510992 L21.8556012,10.8404992 C22.0667012,10.4146992 22.2778012,10.2017992 22.2778012,9.56299921 C22.2778012,9.35009921 22.0667012,8.71139921 21.8556012,8.49839921 L8.34444716,-3.85089079 C7.50000168,-4.70257079 7.50000168,-5.98009079 8.13333616,-6.83176679 C8.97778116,-7.68344479 10.2444512,-7.68344479 11.0888912,-7.04468679 L24.6000012,5.30459921 C25.8667012,6.36919921 26.5000017,8.07259921 26.5000017,9.77589921 C26.5000017,11.4792992 25.6556012,12.9696992 24.3889012,14.2472992 L10.8777812,25.9577992 C10.0333312,26.8094992 8.76667116,26.5965992 7.92222516,25.7448992 C7.71111416,25.3190992 7.50000168,24.6802992 7.50000168,24.2544992 Z" id="路径" transform="translate(17.000001, 9.500000) rotate(90.000000) translate(-17.000001, -9.500000) "></path>
        </g>
    </g>
</svg>