<?xml version="1.0" encoding="UTF-8"?>
<svg width="24px" height="24px" viewBox="0 0 24 24" version="1.1" xmlns="http://www.w3.org/2000/svg" xmlns:xlink="http://www.w3.org/1999/xlink">
    <title>最新-未选中</title>
    <g id="最新-未选中" stroke="none" stroke-width="1" fill="none" fill-rule="evenodd">
        <g id="编组" fill="#B8B8B8" fill-rule="nonzero">
            <path d="M19.5,2.25 C21.2949147,2.25 22.75,3.70548742 22.75,5.5 L22.75,18.5 C22.75,20.2945126 21.2949147,21.75 19.5,21.75 L4.5,21.75 C2.70508535,21.75 1.25,20.2945126 1.25,18.5 L1.25,5.5 C1.25,3.70548742 2.70508535,2.25 4.5,2.25 Z M19.5,3.75 L4.5,3.75 C3.53360526,3.75 2.75,4.53382178 2.75,5.5 L2.75,18.5 C2.75,19.4661782 3.53360526,20.25 4.5,20.25 L19.5,20.25 C20.4663947,20.25 21.25,19.4661782 21.25,18.5 L21.25,5.5 C21.25,4.53382178 20.4663947,3.75 19.5,3.75 Z M4.8942,9.5792 L7.0964,12.9903 L7.0964,9.5792 L8.4131,9.5792 L8.4131,15 L7.0964,15 L4.8942,11.5889 L4.8942,15 L3.5775,15 L3.5775,9.5792 L4.8942,9.5792 Z M12.55185,9.5792 L12.55185,10.5802 L10.59605,10.5802 L10.59605,11.7429 L12.32085,11.7429 L12.32085,12.7439 L10.59605,12.7439 L10.59605,13.999 L12.55185,13.999 L12.55185,15 L9.27935,15 L9.27935,9.5792 L12.55185,9.5792 Z M14.2728,9.5946 L15.2122,13.4831 L16.1747,9.5946 L17.6685,9.5946 L18.5925,13.4215 L19.3933,9.5946 L20.8101,9.5946 L19.3009,15 L17.7917,15 L16.8446,11.5735 L15.9052,15 L14.396,15 L12.8637,9.5946 L14.2728,9.5946 Z" id="形状结合"></path>
        </g>
    </g>
</svg>