<?xml version="1.0" standalone="no"?><!DOCTYPE svg PUBLIC "-//W3C//DTD SVG 1.1//EN" "http://www.w3.org/Graphics/SVG/1.1/DTD/svg11.dtd"><svg t="1688565297136" class="icon" viewBox="0 0 1024 1024" version="1.1" xmlns="http://www.w3.org/2000/svg" p-id="1464" xmlns:xlink="http://www.w3.org/1999/xlink" width="48" height="48"><path d="M1024 512c0 282.7776-229.2224 512-512 512S0 794.7776 0 512 229.2224 0 512 0s512 229.2224 512 512z" fill="#000000" p-id="1465" data-spm-anchor-id="a313x.7781069.0.i0" class="selected"></path><path d="M743.0656 652.8l-10.3168 61.4272A20.0576 20.0576 0 0 1 713.1392 729.6H310.8608a20.0576 20.0576 0 0 1-19.6096-15.3728L280.9344 652.8h462.1312z m-231.808-358.3872c6.528-0.2688 12.6592 2.624 16.6144 7.6672L657.1904 466.048l105.1264-69.12a20.3904 20.3904 0 0 1 22.592 0.1792c6.7968 4.6336 10.0096 12.8768 8.192 20.8L752.3456 601.6H271.6416L230.912 417.92c-1.792-7.68 1.1904-15.6928 7.6032-20.4032a20.352 20.352 0 0 1 21.9904-1.28l124.48 70.1696 110.2592-163.136A20.224 20.224 0 0 1 511.2576 294.4z" fill="#FFFFFF" p-id="1466"></path></svg>