<svg width="10" height="10" viewBox="0 0 10 10" fill="none" xmlns="http://www.w3.org/2000/svg">
<circle cx="5" cy="5" r="5" fill="#7851FF"/>
<path d="M7.02394 2.6001H3.02394C2.74898 2.6001 2.5238 2.82527 2.5238 3.10024V7.60038L3.5238 6.6001H7.02394C7.29891 6.6001 7.5238 6.37492 7.5238 6.09996V3.10024C7.5238 2.82527 7.29891 2.60038 7.02394 2.60038V2.6001ZM3.5238 5.60066V4.98303L5.24408 3.26303C5.25561 3.25118 5.26939 3.24175 5.28462 3.23531C5.29985 3.22887 5.31622 3.22556 5.33275 3.22556C5.34929 3.22556 5.36566 3.22887 5.38089 3.23531C5.39612 3.24175 5.4099 3.25118 5.42143 3.26303L5.86394 3.70555C5.87585 3.71708 5.88531 3.73088 5.89177 3.74614C5.89824 3.76139 5.90157 3.77779 5.90157 3.79436C5.90157 3.81093 5.89824 3.82733 5.89177 3.84259C5.88531 3.85785 5.87585 3.87165 5.86394 3.88317L4.14143 5.60066H3.5238ZM6.27373 5.60066H4.64884L5.14898 5.10052H6.27373C6.41136 5.10052 6.5238 5.21296 6.5238 5.35059C6.52366 5.41686 6.49726 5.48039 6.4504 5.52725C6.40353 5.57412 6.34001 5.60051 6.27373 5.60066Z" fill="white"/>
</svg>
