<?xml version="1.0" encoding="UTF-8"?>
<svg width="12px" height="12px" viewBox="0 0 12 12" version="1.1" xmlns="http://www.w3.org/2000/svg" xmlns:xlink="http://www.w3.org/1999/xlink">
    <title>icon-warning-white</title>
    <g id="页面-1" stroke="none" stroke-width="1" fill="none" fill-rule="evenodd">
        <g id="icon-warning-white" fill-rule="nonzero">
            <path d="M6.00669,0 C6.83612,0 7.61427,0.158305 8.34114,0.474916 C9.068,0.791527 9.70123,1.21962 10.2408,1.7592 C10.7804,2.29877 11.2085,2.93422 11.5251,3.66555 C11.8417,4.39688 12,5.17726 12,6.00669 C12,6.83612 11.8417,7.61427 11.5251,8.34114 C11.2085,9.068 10.7804,9.70123 10.2408,10.2408 C9.70123,10.7804 9.068,11.2085 8.34114,11.5251 C7.61427,11.8417 6.83612,12 6.00669,12 C5.17726,12 4.39688,11.8417 3.66555,11.5251 C2.93422,11.2085 2.29877,10.7804 1.7592,10.2408 C1.21962,9.70123 0.791527,9.068 0.474916,8.34114 C0.158305,7.61427 0,6.83612 0,6.00669 C0,5.17726 0.158305,4.39688 0.474916,3.66555 C0.791527,2.93422 1.21962,2.29877 1.7592,1.7592 C2.29877,1.21962 2.93422,0.791527 3.66555,0.474916 C4.39688,0.158305 5.17726,0 6.00669,0 Z" id="路径" fill="#FFFFFF"></path>
            <path d="M6.7291,5.17726 C6.7291,4.96321 6.65998,4.78261 6.52174,4.63545 C6.3835,4.48829 6.21182,4.41472 6.00669,4.41472 C5.80156,4.41472 5.62765,4.48829 5.48495,4.63545 C5.34225,4.78261 5.2709,4.96321 5.2709,5.17726 L5.2709,9.65886 C5.2709,9.87291 5.34225,10.0446 5.48495,10.1739 C5.62765,10.3032 5.80156,10.3679 6.00669,10.3679 C6.21182,10.3679 6.38573,10.301 6.52843,10.1672 C6.67113,10.0334 6.74247,9.85953 6.74247,9.64548 L6.7291,5.17726 Z M6.00669,3.51839 C6.26533,3.51839 6.48606,3.42698 6.6689,3.24415 C6.85173,3.06132 6.94314,2.84058 6.94314,2.58194 C6.94314,2.3233 6.85173,2.10256 6.6689,1.91973 C6.48606,1.7369 6.26533,1.64548 6.00669,1.64548 C5.74805,1.64548 5.52508,1.7369 5.33779,1.91973 C5.1505,2.10256 5.05686,2.3233 5.05686,2.58194 C5.05686,2.84058 5.1505,3.06132 5.33779,3.24415 C5.52508,3.42698 5.74805,3.51839 6.00669,3.51839 Z" id="形状" fill="#000000"></path>
        </g>
    </g>
</svg>