<svg width="18" height="18" viewBox="0 0 18 18" fill="none" xmlns="http://www.w3.org/2000/svg">
<g clip-path="url(#clip0_2082_2207)">
<path d="M8.99968 2.24971C8.16242 2.24176 7.34169 2.48276 6.64166 2.94213C5.94164 3.4015 5.39389 4.05851 5.06796 4.82976C4.74203 5.60101 4.65262 6.45171 4.81107 7.27387C4.96953 8.09603 5.3687 8.85257 5.95792 9.44744C6.54714 10.0423 7.29984 10.4487 8.12045 10.615C8.94106 10.7813 9.79258 10.7 10.5669 10.3814C11.3412 10.0629 12.0034 9.52144 12.4695 8.82583C12.9355 8.13022 13.1843 7.31182 13.1844 6.47453C13.1894 5.35944 12.7514 4.28799 11.9667 3.49574C11.182 2.70349 10.1148 2.2553 8.99968 2.24971ZM12.7767 12.1442C12.7368 12.072 12.7239 11.9881 12.7402 11.9072C12.7564 11.8264 12.8008 11.7539 12.8654 11.7027C13.6614 11.0913 14.3056 10.3046 14.7482 9.40369C15.1908 8.50281 15.4197 7.51204 15.4172 6.50833C15.429 4.79433 14.7595 3.14581 13.5561 1.92532C12.3526 0.704821 10.7137 0.0122825 8.99968 0C7.28568 0.0122825 5.64674 0.704821 4.44328 1.92532C3.23981 3.14581 2.57038 4.79433 2.58218 6.50833C2.57967 7.51204 2.80858 8.50281 3.25114 9.40369C3.69371 10.3046 4.338 11.0913 5.13397 11.7027C5.19859 11.7539 5.24296 11.8264 5.2592 11.9072C5.27545 11.9881 5.26251 12.072 5.22269 12.1442L2.94499 15.3091C2.92231 15.3502 2.91272 15.3972 2.91752 15.4439C2.92231 15.4906 2.94126 15.5347 2.97183 15.5703C3.00239 15.606 3.0431 15.6314 3.08852 15.6432C3.13394 15.655 3.18189 15.6527 3.22594 15.6365L4.85038 15.026C4.92686 14.9973 5.01164 15 5.0861 15.0337C5.16056 15.0673 5.21861 15.1292 5.24752 15.2056L5.88124 16.8385C5.90043 16.889 5.93385 16.9328 5.97745 16.9646C6.02104 16.9964 6.07295 17.0149 6.12685 17.0178C6.18076 17.0207 6.23435 17.0079 6.28112 16.981C6.32789 16.954 6.36583 16.9141 6.39033 16.866L8.85815 13.287C8.87167 13.2609 8.89213 13.239 8.91728 13.2237C8.94242 13.2084 8.9713 13.2003 9.00073 13.2003C9.03017 13.2003 9.05904 13.2084 9.08419 13.2237C9.10934 13.239 9.12979 13.2609 9.14332 13.287L11.4601 16.866C11.4846 16.9141 11.5225 16.954 11.5693 16.981C11.6161 17.0079 11.6697 17.0207 11.7236 17.0178C11.7775 17.0149 11.8294 16.9964 11.873 16.9646C11.9166 16.9328 11.95 16.889 11.9692 16.8385L12.6029 15.2056C12.6318 15.1292 12.6899 15.0673 12.7643 15.0337C12.8388 15 12.9236 14.9973 13 15.026L14.6245 15.6365C14.6685 15.6527 14.7165 15.655 14.7619 15.6432C14.8073 15.6314 14.848 15.606 14.8786 15.5703C14.9092 15.5347 14.9281 15.4906 14.9329 15.4439C14.9377 15.3972 14.9281 15.3502 14.9054 15.3091L12.7767 12.1442ZM8.99968 11.7851C7.6413 11.7243 6.35872 11.1419 5.41898 10.1592C4.47924 9.17645 3.95477 7.86912 3.95477 6.50938C3.95477 5.14965 4.47924 3.84231 5.41898 2.85957C6.35872 1.87684 7.6413 1.29444 8.99968 1.23365C10.4003 1.23365 11.7435 1.79004 12.7339 2.78042C13.7243 3.7708 14.2807 5.11405 14.2807 6.51466C14.2807 7.91528 13.7243 9.25852 12.7339 10.2489C11.7435 11.2393 10.4003 11.7957 8.99968 11.7957V11.7851Z" fill="url(#paint0_linear_2082_2207)"/>
<path d="M9.62749 3.90909V9H8.55114V4.93075H8.52131L7.35547 5.66158V4.70703L8.61577 3.90909H9.62749Z" fill="white"/>
</g>
<defs>
<linearGradient id="paint0_linear_2082_2207" x1="9" y1="17" x2="9" y2="-7.86792e-08" gradientUnits="userSpaceOnUse">
<stop stop-color="#FF8078"/>
<stop offset="0.303572" stop-color="#EEB134"/>
</linearGradient>
<clipPath id="clip0_2082_2207">
<rect width="18" height="18" fill="white"/>
</clipPath>
</defs>
</svg>
