<svg width="48" height="49" viewBox="0 0 48 49" fill="none" xmlns="http://www.w3.org/2000/svg">
<path d="M21.818 8.13632L21.818 30.1323L13.8227 21.4705C13.5281 21.1517 13.119 20.9629 12.6853 20.9457C12.2516 20.9285 11.8288 21.0843 11.51 21.3789C11.1911 21.6734 11.0023 22.0825 10.9852 22.5162C10.968 22.95 11.1238 23.3728 11.4183 23.6916L22.2521 35.4287C22.4055 35.5943 22.5915 35.7265 22.7984 35.8168C23.0053 35.9072 23.2286 35.9539 23.4543 35.9539C23.6801 35.9539 23.9034 35.9072 24.1103 35.8168C24.3171 35.7265 24.5031 35.5943 24.6565 35.4287L35.4903 23.6905C35.6365 23.5328 35.75 23.3478 35.8245 23.1461C35.899 22.9444 35.933 22.73 35.9245 22.5151C35.916 22.3003 35.8652 22.0892 35.7749 21.894C35.6847 21.6989 35.5568 21.5234 35.3987 21.3778C35.2407 21.232 35.0555 21.1189 34.8538 21.0447C34.652 20.9705 34.4377 20.9369 34.2229 20.9456C34.0081 20.9543 33.7972 21.0052 33.6021 21.0955C33.407 21.1857 33.2316 21.3135 33.086 21.4716L25.0907 30.1323L25.0907 8.13632C25.0907 7.70232 24.9183 7.28611 24.6114 6.97923C24.3045 6.67235 23.8883 6.49996 23.4543 6.49995C23.0203 6.49996 22.6041 6.67235 22.2972 6.97923C21.9904 7.28611 21.818 7.70232 21.818 8.13632Z" fill="#797979"/>
<rect x="40" y="41.5" width="33" height="3" rx="1.5" transform="rotate(-180 40 41.5)" fill="#797979"/>
</svg>
