<svg width="42" height="42" viewBox="0 0 42 42" fill="none" xmlns="http://www.w3.org/2000/svg">
<circle cx="21" cy="21" r="21" fill="#EEB134"/>
<path d="M13.1329 32.6457L28.6864 17.0922L28.2151 28.8705C28.1979 29.3042 28.3537 29.727 28.6483 30.0459C28.9428 30.3647 29.3519 30.5535 29.7857 30.5707C30.2194 30.5879 30.6422 30.432 30.961 30.1375C31.2798 29.843 31.4686 29.4338 31.4858 29.0001L32.1245 13.0401C32.1332 12.8145 32.0951 12.5896 32.0127 12.3794C31.9304 12.1692 31.8054 11.9783 31.6458 11.8187C31.4862 11.659 31.2953 11.5341 31.0851 11.4517C30.8749 11.3693 30.65 11.3313 30.4244 11.3399L14.4636 11.9794C14.2487 11.9876 14.0376 12.0381 13.8423 12.1281C13.647 12.218 13.4713 12.3456 13.3254 12.5035C13.1795 12.6615 13.0662 12.8466 12.992 13.0485C12.9178 13.2503 12.8842 13.4647 12.893 13.6796C12.9017 13.8943 12.9526 14.1053 13.0428 14.3004C13.133 14.4955 13.2608 14.6709 13.4188 14.8166C13.5768 14.9623 13.762 15.0754 13.9638 15.1496C14.1655 15.2237 14.3799 15.2573 14.5947 15.2486L26.3723 14.778L10.8187 30.3315C10.5119 30.6384 10.3395 31.0546 10.3395 31.4886C10.3395 31.9226 10.5119 32.3388 10.8187 32.6457C11.1256 32.9526 11.5418 33.125 11.9758 33.125C12.4098 33.125 12.826 32.9526 13.1329 32.6457Z" fill="black"/>
</svg>
