<?xml version="1.0" encoding="UTF-8"?>
<svg width="12px" height="12px" viewBox="0 0 12 12" version="1.1" xmlns="http://www.w3.org/2000/svg" xmlns:xlink="http://www.w3.org/1999/xlink">
    <title>编组</title>
    <defs>
        <linearGradient x1="-7.64104956e-07%" y1="40.450922%" x2="28.2037609%" y2="74.2243641%" id="linearGradient-1">
            <stop stop-color="#917AFD" offset="0%"></stop>
            <stop stop-color="#6246EA" offset="100%"></stop>
        </linearGradient>
        <linearGradient x1="-7.64104956e-07%" y1="45.5411068%" x2="28.2037609%" y2="61.311443%" id="linearGradient-2">
            <stop stop-color="#917AFD" offset="0%"></stop>
            <stop stop-color="#6246EA" offset="100%"></stop>
        </linearGradient>
    </defs>
    <g id="页面-1备份-2" stroke="none" stroke-width="1" fill="none" fill-rule="evenodd">
        <g id="主页" transform="translate(-316.000000, -192.000000)" fill-rule="nonzero">
            <g id="编组" transform="translate(316.000000, 192.000000)">
                <path d="M0,2.7692316 C0,4.29863598 2.6862915,5.5384632 6,5.5384632 C9.3137085,5.5384632 12,4.29863598 12,2.7692316 C12,1.23982722 9.3137085,0 6,0 C2.6862915,0 0,1.23982722 0,2.7692316 L0,2.7692316 Z" id="路径" fill="url(#linearGradient-1)"></path>
                <path d="M6,6.73845545 C3.41538281,6.73845545 1.29230859,5.9999982 0.369234375,4.98461508 C0.184617188,5.26152923 0,5.53845509 0,5.90770129 C0,7.38460408 2.67691406,8.67691306 6,8.67691306 C9.32308594,8.67691306 12,7.38460408 12,5.90767786 C12,5.53844337 11.8153828,5.26152923 11.6307656,4.89229474 C10.7076914,5.9999982 8.58461719,6.73845545 6,6.73845545 Z" id="路径" fill="url(#linearGradient-2)"></path>
                <path d="M6,9.96923376 C3.41538281,9.96923376 1.29230859,9.23076479 0.369234375,8.21538168 C0.184617188,8.58461616 0,8.86154203 0,9.23076479 C0,10.707691 2.67691406,12 6,12 C9.32308594,12 12,10.7999996 12,9.23076479 C12,8.86154203 11.8153828,8.58461616 11.6307656,8.21538168 C10.7076914,9.32308513 8.58461719,9.96923376 6,9.96923376 Z" id="路径" fill="url(#linearGradient-2)"></path>
            </g>
        </g>
    </g>
</svg>