<svg width="15" height="16" viewBox="0 0 15 16" fill="none" xmlns="http://www.w3.org/2000/svg">
<path d="M7.00957 8.21206C10.9409 8.21206 14.0191 6.53247 14.0191 4.3894C14.0191 2.24429 10.9389 0.564697 7.00957 0.564697C3.07822 0.564697 0 2.24429 0 4.3894C0 6.53247 3.07822 8.21206 7.00957 8.21206V8.21206ZM7.00957 1.85669C10.379 1.85669 12.7271 3.1897 12.7271 4.38735C12.7271 5.58501 10.379 6.91802 7.00957 6.91802C3.64014 6.91802 1.29404 5.58501 1.29404 4.38735C1.29404 3.19175 3.64014 1.85669 7.00957 1.85669V1.85669Z" fill="#EEB134"/>
<path d="M12.7271 7.38726V8.2814C12.7271 9.47905 10.379 10.8121 7.00957 10.8121C3.64014 10.8121 1.29404 9.47905 1.29404 8.2814V7.38726C0.76289 7.04272 0.324023 6.64897 0 6.21216V8.2814C0 10.4265 3.07822 12.1061 7.00957 12.1061C10.9409 12.1061 14.0191 10.4265 14.0191 8.2814V6.21216C13.6972 6.64897 13.2583 7.04272 12.7271 7.38726Z" fill="#EEB134"/>
<path d="M12.7271 11.2811V12.1752C12.7271 13.3729 10.379 14.7059 7.00957 14.7059C3.64014 14.7059 1.29404 13.3729 1.29404 12.1752V11.2811C0.76289 10.9365 0.324023 10.5428 0 10.106V12.1752C0 14.3203 3.07822 15.9999 7.00957 15.9999C10.9409 15.9999 14.0191 14.3203 14.0191 12.1752V10.106C13.6972 10.5428 13.2583 10.9365 12.7271 11.2811Z" fill="#EEB134"/>
</svg>
