<?xml version="1.0" encoding="UTF-8"?>
<svg width="24px" height="24px" viewBox="0 0 24 24" version="1.1" xmlns="http://www.w3.org/2000/svg" xmlns:xlink="http://www.w3.org/1999/xlink">
    <title>icon-theme-light</title>
    <g id="页面-1" stroke="none" stroke-width="1" fill="none" fill-rule="evenodd">
        <g id="icon-theme-light" fill="#1A1E25" fill-rule="nonzero">
            <path d="M12,18 C8.7,18 6,15.3 6,12 C6,8.7 8.7,6 12,6 C15.3,6 18,8.7 18,12 C18,15.3 15.3,18 12,18 Z M12,8 C9.8,8 8,9.8 8,12 C8,14.2 9.8,16 12,16 C14.2,16 16,14.2 16,12 C16,9.8 14.2,8 12,8 Z" id="形状"></path>
            <path d="M12,4 C11.4,4 11,3.6 11,3 L11,1 C11,0.4 11.4,0 12,0 C12.6,0 13,0.4 13,1 L13,3 C13,3.6 12.6,4 12,4 Z" id="路径"></path>
            <path d="M12,24 C11.4,24 11,23.6 11,23 L11,21 C11,20.4 11.4,20 12,20 C12.6,20 13,20.4 13,21 L13,23 C13,23.6 12.6,24 12,24 Z" id="路径"></path>
            <path d="M5.6,6.6 C5.3,6.6 5.1,6.5 4.9,6.3 L3.5,4.9 C3.1,4.5 3.1,3.9 3.5,3.5 C3.9,3.1 4.5,3.1 4.9,3.5 L6.3,4.9 C6.7,5.3 6.7,5.9 6.3,6.3 C6.2,6.5 5.9,6.6 5.6,6.6 Z" id="路径"></path>
            <path d="M19.8,20.8 C19.5,20.8 19.3,20.7 19.1,20.5 L17.7,19.1 C17.3,18.7 17.3,18.1 17.7,17.7 C18.1,17.3 18.7,17.3 19.1,17.7 L20.5,19.1 C20.9,19.5 20.9,20.1 20.5,20.5 C20.3,20.7 20,20.8 19.8,20.8 Z" id="路径"></path>
            <path d="M3,13 L1,13 C0.4,13 0,12.6 0,12 C0,11.4 0.4,11 1,11 L3,11 C3.6,11 4,11.4 4,12 C4,12.6 3.6,13 3,13 Z" id="路径"></path>
            <path d="M23,13 L21,13 C20.4,13 20,12.6 20,12 C20,11.4 20.4,11 21,11 L23,11 C23.6,11 24,11.4 24,12 C24,12.6 23.6,13 23,13 Z" id="路径"></path>
            <path d="M4.2,20.8 C3.9,20.8 3.7,20.7 3.5,20.5 C3.1,20.1 3.1,19.5 3.5,19.1 L4.9,17.7 C5.3,17.3 5.9,17.3 6.3,17.7 C6.7,18.1 6.7,18.7 6.3,19.1 L4.9,20.5 C4.7,20.7 4.5,20.8 4.2,20.8 Z" id="路径"></path>
            <path d="M18.4,6.6 C18.1,6.6 17.9,6.5 17.7,6.3 C17.3,5.9 17.3,5.3 17.7,4.9 L19.1,3.5 C19.5,3.1 20.1,3.1 20.5,3.5 C20.9,3.9 20.9,4.5 20.5,4.9 L19.1,6.3 C18.9,6.5 18.6,6.6 18.4,6.6 Z" id="路径"></path>
        </g>
    </g>
</svg>