<svg width="20" height="20" viewBox="0 0 20 20" fill="none" xmlns="http://www.w3.org/2000/svg">
    <circle cx="10" cy="10" r="8" fill="#7851FF"/>
    <path d="M6.28043 13.91C6.36729 13.9105 6.451 13.8772 6.51311 13.8172C6.57525 13.7571 6.61067 13.6751 6.6112 13.5892V13.5889C6.6112 12.8324 7.04136 12.1298 7.64965 11.6144C8.258 11.0989 9.03706 10.7773 9.72173 10.7773C9.74502 10.7773 9.76189 10.7821 9.7828 10.7881C9.79244 10.7909 9.80294 10.7939 9.81532 10.7968C9.83259 10.8009 9.85463 10.8044 9.87833 10.7998C9.89629 10.7963 9.91262 10.7886 9.9274 10.777C11.2774 10.7555 12.3759 9.67684 12.3759 8.36364C12.3759 7.0377 11.2771 5.95 9.90774 5.95C8.53836 5.95 7.43958 7.0377 7.43958 8.36364C7.43958 9.21828 7.82379 9.95601 8.51741 10.38C7.01173 10.8796 5.95 12.3123 5.95 13.5889L5.95 13.5892C5.95026 13.6318 5.95909 13.6738 5.97596 13.7129C5.99283 13.7521 6.01738 13.7875 6.04817 13.8172C6.07895 13.847 6.11537 13.8704 6.1553 13.8863C6.19506 13.9021 6.23757 13.9102 6.28043 13.91ZM6.28043 13.91L6.28069 13.86L6.28099 13.91C6.2808 13.91 6.28062 13.91 6.28043 13.91ZM12.5619 13.7273V12.5955H13.721C13.8079 12.5955 13.8914 12.5617 13.9532 12.5013C14.0151 12.4409 14.05 12.3587 14.05 12.2727C14.05 12.1868 14.0151 12.1046 13.9532 12.0441C13.8914 11.9837 13.8079 11.95 13.721 11.95H12.5619V10.8182C12.5619 10.7322 12.527 10.65 12.4651 10.5896C12.4033 10.5292 12.3198 10.4955 12.2329 10.4955C12.146 10.4955 12.0624 10.5292 12.0006 10.5896C11.9388 10.65 11.9039 10.7322 11.9039 10.8182V11.95H10.7448C10.6579 11.95 10.5743 11.9837 10.5125 12.0441C10.4507 12.1046 10.4158 12.1868 10.4158 12.2727C10.4158 12.3587 10.4507 12.4409 10.5125 12.5013C10.5743 12.5617 10.6579 12.5955 10.7448 12.5955H11.9039V13.7273C11.9039 13.8132 11.9388 13.8954 12.0006 13.9559C12.0624 14.0163 12.146 14.05 12.2329 14.05C12.3198 14.05 12.4033 14.0163 12.4651 13.9559C12.527 13.8954 12.5619 13.8132 12.5619 13.7273ZM8.09762 8.36364C8.09762 7.39557 8.90323 6.59545 9.90774 6.59545C10.9122 6.59545 11.7179 7.39557 11.7179 8.36364C11.7179 9.3317 10.9122 10.1318 9.90774 10.1318C8.90323 10.1318 8.09762 9.3317 8.09762 8.36364Z" fill="white" stroke="white" stroke-width="0.1"/>
</svg>
