<?xml version="1.0" encoding="UTF-8"?>
<svg width="16px" height="16px" viewBox="0 0 16 16" version="1.1" xmlns="http://www.w3.org/2000/svg" xmlns:xlink="http://www.w3.org/1999/xlink">
    <title>标签备份 7</title>
    <g id="页面-1" stroke="none" stroke-width="1" fill="none" fill-rule="evenodd">
        <g id="标签备份-7">
            <path d="M8,0 C12.418278,-8.11624501e-16 16,3.581722 16,8 C16,12.418278 12.418278,16 8,16 C3.581722,16 5.41083001e-16,12.418278 0,8 C-5.41083001e-16,3.581722 3.581722,8.11624501e-16 8,0 Z" id="Rectangle-10备份-9" fill="#8859EC"></path>
            <g id="联合主持人" transform="translate(2.000000, 2.000000)" fill="#FFFFFF" fill-rule="nonzero">
                <path d="M9.59062781,8.36119456 C10.4469077,8.70675434 11,9.28522521 11,10.0431449 C11,10.8183138 8.41583093,11.122497 6.38772932,10.9556943 L6.30996814,10.9490432 L6.23523561,10.9421602 C6.15411899,10.9344228 6.07404957,10.925909 5.99523748,10.916619 L5.93559399,10.9094102 L5.8532801,10.8988601 C5.82161742,10.8946642 5.79018762,10.8903379 5.7590052,10.8858809 L5.93559399,10.9094102 C5.85319099,10.8992014 5.77224463,10.8881299 5.69300116,10.8761955 C5.65315636,10.8701934 5.61401132,10.8640176 5.57532165,10.8576266 C5.52365867,10.8490901 5.4731686,10.8402369 5.42355058,10.8310056 C5.38672117,10.8241562 5.34989225,10.8170012 5.31358688,10.8096323 C5.27630264,10.8020643 5.23964759,10.7942876 5.20357512,10.7862863 C5.15784952,10.7761438 5.1130671,10.765642 5.06928709,10.7547793 C5.06009893,10.7525012 5.05015974,10.750005 5.0402735,10.7474901 C5.00965266,10.7396962 4.9801775,10.7318973 4.9512111,10.7239258 C4.91966901,10.7152459 4.88868643,10.7063481 4.8583374,10.6972451 C4.8307923,10.6889845 4.80359281,10.6804977 4.77694381,10.6718396 C4.75303757,10.6640786 4.72884895,10.6559264 4.7051484,10.6476275 C4.68576307,10.6408379 4.66694757,10.6340408 4.64845937,10.6271481 C4.56093997,10.5945116 4.48093849,10.5598244 4.4091942,10.5230056 C4.37393767,10.5049216 4.34038921,10.4861492 4.30898596,10.466853 C4.29963876,10.4611166 4.28991415,10.4549643 4.28040767,10.4487597 C4.27198099,10.4432606 4.26366362,10.4376775 4.25552287,10.4320526 C4.22879415,10.4135767 4.20412142,10.3947773 4.18142018,10.3755332 C4.17813652,10.3727555 4.1743031,10.3694504 4.17052786,10.3661322 C4.14973292,10.3478274 4.13107791,10.3295345 4.11418975,10.3108621 C4.10510795,10.3007964 4.09698984,10.2911926 4.08933888,10.2814905 C4.07677182,10.2655897 4.06517859,10.2489626 4.05495744,10.2320564 C4.05026365,10.2242864 4.04593295,10.2165976 4.041886,10.208852 C4.03234544,10.1906033 4.02434754,10.1719428 4.01799616,10.1529633 C4.01486929,10.1435911 4.01222329,10.1344642 4.00995795,10.1252647 C4.00339897,10.0987517 4,10.0712581 4,10.0431449 C4,8.76733821 5.5671875,8 7.5,8 L7.591,8.001 L7.70563324,8.00292445 C7.72306261,8.00342286 7.74045778,8.00398471 7.75781784,8.00460982 L7.5,8 C7.61205283,8 7.7228768,8.00257901 7.83223779,8.00768659 C7.89756022,8.01073244 7.9628743,8.01471921 8.02760714,8.01961154 C8.05047016,8.02134031 8.07301659,8.02316106 8.09548988,8.02509189 C8.1750679,8.03192656 8.25392178,8.0401653 8.33175655,8.04977015 C8.34846841,8.05183129 8.36552905,8.05400755 8.38253942,8.05624959 C8.45223482,8.06544162 8.52059289,8.07565551 8.58804934,8.08694289 C8.60829775,8.09033038 8.62864,8.09384581 8.64889768,8.09745925 C8.803678,8.12506262 8.95369634,8.15843396 9.09789947,8.1973533 C9.12023364,8.20338011 9.1426245,8.20959598 9.16487009,8.2159466 C9.29367563,8.25272146 9.41749622,8.29396994 9.535816,8.33958956 L9.59062781,8.36119456 L9.59062781,8.36119456 Z M5.5,6.77482355 L5.58660742,6.77644709 C5.7279932,6.98775285 5.90350572,7.17421493 6.10527048,7.32790397 C4.40026606,7.65814323 3.2,8.61466021 3.2,10.0431449 C3.2,10.3745925 3.37217841,10.659142 3.66781058,10.8967934 C2.17154853,10.7150492 1,10.3006599 1,9.65237285 C1,7.85553666 3.01495536,6.77482355 5.5,6.77482355 Z M6.0599134,5.92109616 L6.04505412,5.86591471 C6.04003974,5.84598314 6.03542721,5.82589346 6.03122499,5.80565461 C6.02411395,5.77156013 6.01826395,5.73736263 6.01359171,5.70279133 C6.01179583,5.68940248 6.01015957,5.67595175 6.0087031,5.66244734 C6.00295496,5.60921381 6,5.55495199 6,5.5 C6,4.96410162 6.28589838,4.46891109 6.74999999,4.2009619 C6.9820508,4.0669873 7.2410254,4 7.5,4 L7.65516937,4.00803848 C7.66689199,4.00925643 7.67860348,4.01061278 7.69030132,4.01210754 C7.88448548,4.03692052 8.07490712,4.09987197 8.25000001,4.2009619 C8.71410162,4.46891109 9,4.96410162 9,5.5 C9,6.32842713 8.32842712,7 7.5,7 C6.84603732,7 6.28981943,6.58150483 6.08454757,5.99771573 C6.08369648,5.99452237 6.08250311,5.99110736 6.08132189,5.98768675 L6.0599134,5.92109616 L6.0599134,5.92109616 Z M6.59938617,2.29455498 C6.9739575,2.51079574 7.26933899,2.82800942 7.45918052,3.20056009 C7.13923652,3.20617011 6.82073874,3.27834736 6.52473475,3.41698477 L6.34999999,3.50814157 L6.20175196,3.601411 C5.57798878,4.02778577 5.2,4.73698278 5.2,5.5 C5.2,5.81662752 5.26398015,6.11831167 5.37971882,6.3927457 C4.22183758,6.33204924 3.30122768,5.37281976 3.30122768,4.19858831 C3.30122768,3.41310837 3.7203113,2.68729496 4.40061383,2.29455498 C5.08091636,1.90181501 5.91908364,1.90181501 6.59938617,2.29455498 Z" id="形状结合"></path>
            </g>
        </g>
    </g>
</svg>