<svg width="20" height="18" viewBox="0 0 20 18" fill="none" xmlns="http://www.w3.org/2000/svg">
<path d="M1.19701 1.50829C2.56335 3.09397 3.93321 4.21863 5.31013 4.88469C6.7116 5.5565 8.22929 5.93189 9.77364 5.98873C9.62666 5.1698 9.62666 4.42367 9.77364 3.74911C9.9947 2.73607 10.8766 1.50829 12.3123 0.913808C12.9237 0.660244 14.1525 0.554693 15.2096 0.913808C15.6552 1.06425 16.1561 1.41123 16.7123 1.95597C17.0874 1.93292 17.4801 1.85284 17.8893 1.71454C18.2985 1.57623 18.8042 1.30932 19.405 0.913808C19.1404 1.66843 18.85 2.20468 18.5325 2.52376C18.2151 2.84162 17.8623 3.1061 17.4707 3.3172C17.9305 3.32812 18.4091 3.24926 18.9053 3.08184C19.4015 2.9132 19.7636 2.77004 19.9894 2.64872C19.4544 3.3536 19.0464 3.82797 18.7665 4.07183C18.4867 4.31448 18.1939 4.58502 17.8893 4.88348C17.9328 6.01299 17.8211 7.15221 17.553 8.2987C17.1497 10.0203 16.5136 12.4152 14.7298 14.326C12.9449 16.2356 10.3145 17.5253 7.09859 17.6563C3.88265 17.7873 1.57564 16.6772 1.1053 16.4843C0.723261 16.3204 0.353777 16.127 0 15.9056C1.66382 15.9141 2.89258 15.7576 3.68746 15.4361C4.5298 15.0858 5.31593 14.606 6.01916 14.013C4.95267 13.9281 4.11429 13.6393 3.50285 13.1431C2.89141 12.6481 2.44811 11.9796 2.17414 11.1401H3.95908C4.0602 11.077 3.90734 10.9496 3.50285 10.7567C2.89376 10.4667 1.77435 9.99722 1.19819 8.88227C0.811335 8.13977 0.619672 7.42276 0.619672 6.73364C1.13352 6.97629 1.50391 7.12188 1.7285 7.17283C1.95426 7.22257 2.18237 7.25776 2.41401 7.27596V7.01633C1.46275 6.26898 0.906578 5.42458 0.745487 4.48069C0.58322 3.5368 0.733729 2.54559 1.19701 1.50829Z" fill="white"/>
</svg>
