<?xml version="1.0" encoding="UTF-8"?>
<svg width="25px" height="25px" viewBox="0 0 25 25" version="1.1" xmlns="http://www.w3.org/2000/svg" xmlns:xlink="http://www.w3.org/1999/xlink">
    <title>编组</title>
    <g id="页面-1" stroke="none" stroke-width="1" fill="none" fill-rule="evenodd">
        <g id="编组" fill="#D6D6D6" fill-rule="nonzero">
            <path d="M20.8551,4.14900843 C19.2027,2.49606843 17.0972,1.37025843 14.8049,0.913948425 C12.5125,0.457638425 10.1364,0.691338425 7.9769,1.58548843 C5.8174,2.47963843 3.97163,3.99405843 2.67299,5.93722843 C1.37436,7.88038843 0.6812,10.1650184 0.6812,12.5021184 C0.6812,14.8392184 1.37436,17.1238184 2.67299,19.0670184 C3.97163,21.0102184 5.8174,22.5246184 7.9769,23.4187184 C10.1364,24.3129184 12.5125,24.5466184 14.8049,24.0903184 C17.0972,23.6340184 19.2027,22.5081184 20.8551,20.8552184 C23.07,18.6395184 24.3143,15.6349184 24.3143,12.5021184 C24.3143,9.36931843 23.07,6.36470843 20.8551,4.14900843 Z M14.9722,14.9729184 C14.4836,15.4608184 13.8613,15.7930184 13.184,15.9274184 C12.5066,16.0618184 11.8046,15.9924184 11.1667,15.7280184 C10.5288,15.4636184 9.9836,15.0160184 9.6001,14.4418184 C9.2165,13.8676184 9.0118,13.1926184 9.0118,12.5021184 C9.0118,11.8116184 9.2165,11.1366184 9.6001,10.5624184 C9.9836,9.98821843 10.5288,9.54061843 11.1667,9.27621843 C11.8046,9.01177843 12.5066,8.94238843 13.184,9.07679843 C13.8613,9.21120843 14.4836,9.54341843 14.9722,10.0313184 C15.2969,10.3557184 15.5546,10.7408184 15.7303,11.1648184 C15.9061,11.5887184 15.9966,12.0432184 15.9966,12.5021184 C15.9966,12.9610184 15.9061,13.4155184 15.7303,13.8394184 C15.5546,14.2634184 15.2969,14.6485184 14.9722,14.9729184 Z M24.4746,21.9274184 C24.2229,21.6749184 23.902,21.5027184 23.5524,21.4327184 C23.2028,21.3627184 22.8403,21.3980184 22.5108,21.5342184 C22.1813,21.6703184 21.8996,21.9012184 21.7014,22.1975184 C21.5032,22.4939184 21.3974,22.8423184 21.3974,23.1988184 C21.3974,23.5553184 21.5032,23.9038184 21.7014,24.2001184 C21.8996,24.4965184 22.1813,24.7273184 22.5108,24.8635184 C22.8403,24.9996184 23.2028,25.0349184 23.5524,24.9649184 C23.902,24.8949184 24.2229,24.7228184 24.4746,24.4702184 C24.8111,24.1326184 25,23.6754184 25,23.1988184 C25,22.7222184 24.8111,22.2650184 24.4746,21.9274184 Z M0.52365,3.07678843 C0.77557,3.33074843 1.09726,3.50415843 1.4479,3.57500843 C1.79854,3.64585843 2.16233,3.61096843 2.4931,3.47475843 C2.82388,3.33854843 3.10673,3.10714843 3.30577,2.80993843 C3.50482,2.51271843 3.61108,2.16308843 3.61108,1.80538843 C3.61108,1.44768843 3.50482,1.09804843 3.30577,0.800838425 C3.10673,0.503628425 2.82388,0.272238425 2.4931,0.136026425 C2.16233,-0.000186574834 1.79854,-0.0350795748 1.4479,0.0357734252 C1.09726,0.106626425 0.77557,0.280028425 0.52365,0.533988425 C0.18822,0.872128425 0,1.32910843 0,1.80538843 C0,2.28166843 0.18822,2.73864843 0.52365,3.07678843 Z" id="形状"></path>
        </g>
    </g>
</svg>