<svg width="42" height="42" viewBox="0 0 42 42" fill="none" xmlns="http://www.w3.org/2000/svg">
<circle cx="21" cy="21" r="21" fill="#FF6200"/>
<path d="M19.8336 7.63632L19.8336 29.6323L11.8383 20.9705C11.5438 20.6517 11.1346 20.4629 10.7009 20.4457C10.2672 20.4285 9.84442 20.5843 9.52558 20.8789C9.20674 21.1734 9.01797 21.5825 9.00078 22.0162C8.9836 22.45 9.13941 22.8728 9.43395 23.1916L20.2678 34.9287C20.4212 35.0943 20.6071 35.2265 20.814 35.3168C21.0209 35.4072 21.2442 35.4539 21.4699 35.4539C21.6957 35.4539 21.919 35.4072 22.1259 35.3168C22.3328 35.2265 22.5187 35.0943 22.6721 34.9287L33.5059 23.1905C33.6521 23.0328 33.7657 22.8478 33.8402 22.6461C33.9147 22.4444 33.9486 22.23 33.9401 22.0151C33.9316 21.8003 33.8808 21.5892 33.7906 21.394C33.7003 21.1989 33.5725 21.0234 33.4143 20.8778C33.2563 20.732 33.0712 20.6189 32.8694 20.5447C32.6677 20.4705 32.4533 20.4369 32.2385 20.4456C32.0237 20.4543 31.8128 20.5052 31.6177 20.5955C31.4226 20.6857 31.2473 20.8135 31.1016 20.9716L23.1063 29.6323L23.1063 7.63632C23.1063 7.20233 22.9339 6.78611 22.627 6.47923C22.3202 6.17235 21.9039 5.99995 21.4699 5.99995C21.036 5.99995 20.6197 6.17235 20.3129 6.47923C20.006 6.78611 19.8336 7.20233 19.8336 7.63632Z" fill="black"/>
</svg>
