<?xml version="1.0" encoding="UTF-8"?>
<svg width="15px" height="16px" viewBox="0 0 15 16" version="1.1" xmlns="http://www.w3.org/2000/svg" xmlns:xlink="http://www.w3.org/1999/xlink">
    <title>推荐(1)</title>
    <defs>
        <linearGradient x1="6.0546875%" y1="2.52602931e-07%" x2="120.812935%" y2="130.897178%" id="linearGradient-1">
            <stop stop-color="#AE88FE" offset="0%"></stop>
            <stop stop-color="#923CFF" offset="45.2009728%"></stop>
            <stop stop-color="#00B2FF" offset="100%"></stop>
        </linearGradient>
    </defs>
    <g id="页面-1" stroke="none" stroke-width="1" fill="none" fill-rule="evenodd">
        <g id="推荐(1)" fill="url(#linearGradient-1)" fill-rule="nonzero">
            <path d="M12.5985102,0 C13.9231351,0 14.9983807,1.03889631 15,2.32067187 L15,2.32067187 L15,15.155664 C15,15.7965517 14.4899061,16.1444175 13.8680773,15.9375784 L13.8680773,15.9375784 L7.50080968,13.806509 L1.13192271,15.9391454 C0.506855226,16.1491184 0,15.7981187 0,15.1572309 L0,15.1572309 L0,2.32067187 C0,1.03889632 1.07362627,0 2.40148981,0 L2.40148981,0 Z M12.5952715,0.932342845 L2.39825111,0.932342845 C1.58533953,0.932342845 0.932743176,1.56382885 0.932743176,2.34574328 L0.932743176,2.34574328 L0.932743176,15.0663471 L7.18989528,12.9697509 C7.38745547,12.9039385 7.6044478,12.9039385 7.80362733,12.9697509 L7.80362733,12.9697509 L14.0607795,15.0663471 L14.0607795,2.34574328 C14.0607795,1.56539581 13.4033251,0.932342845 12.5952715,0.932342845 L12.5952715,0.932342845 Z M6.46118968,3.25301472 C6.96318688,2.27836387 8.03681314,2.2814978 8.53557163,3.25301472 L8.53557163,3.25301472 L8.7784735,3.7215366 L9.41487639,4.96257112 L10.8447587,5.16157538 L11.3872395,5.23835656 C12.5094462,5.39348588 12.8381734,6.38067243 12.0317392,7.14064938 L12.0317392,7.14064938 L11.6414768,7.50261777 L10.6099536,8.46629988 L10.8512361,9.82485661 L10.9403001,10.3309856 C11.1313829,11.409056 10.2650329,12.0233054 9.26265789,11.5171764 L9.26265789,11.5171764 L8.7817122,11.2758641 L7.50242902,10.6302755 L6.22314585,11.2758641 L5.74220015,11.5171764 C4.73820575,12.0233054 3.87023643,11.409056 4.06455791,10.3309856 L4.06455791,10.3309856 L4.15362194,9.82485661 L4.39652381,8.46629988 L3.36500054,7.50418473 L2.97473821,7.1390824 C2.15858795,6.38067243 2.48731513,5.39348587 3.60952177,5.23835656 L3.60952177,5.23835656 L4.15200259,5.16157538 L5.58188492,4.96257112 L6.21828782,3.7215366 Z M7.49757098,3.661992 C7.48785492,3.67766163 7.47651949,3.69646518 7.46680342,3.7168357 L7.46680342,3.7168357 L7.2255209,4.18535756 L6.3235453,5.93565499 L6.0304437,5.97482906 L4.30745979,6.21457437 L3.76497895,6.29135554 C3.74716615,6.29448946 3.73097269,6.29605643 3.71639857,6.29919035 C3.72611464,6.31172606 3.73583072,6.32112783 3.74878549,6.33366354 L3.74878549,6.33366354 L4.13904782,6.69876586 L5.59969773,8.06202349 L5.54949801,8.34564374 L5.25639643,9.98782073 L5.1673324,10.4939497 C5.16409372,10.5158872 5.16247436,10.5346907 5.15923568,10.5550613 C5.17704848,10.5487934 5.19486128,10.5378247 5.21591278,10.5284229 L5.21591278,10.5284229 L5.69685848,10.2871106 L7.49271295,9.37827221 L7.75342761,9.50833012 L9.29342545,10.2855437 L9.77437116,10.5268559 C9.79542265,10.5362577 9.81323545,10.5456595 9.83104825,10.5534943 C9.83104825,10.5346907 9.82780957,10.5143202 9.82295152,10.4923827 L9.82295152,10.4923827 L9.73388752,9.98625377 L9.3905862,8.06045651 L9.60433985,7.86145225 L10.8512361,6.69563194 L11.2414984,6.33366354 C11.2544532,6.32426177 11.2657886,6.31485999 11.2755047,6.30075733 C11.2609306,6.29762341 11.2447371,6.29605643 11.2269243,6.29292251 L11.2269243,6.29292251 L10.6844435,6.21614133 L8.67159667,5.93722195 L8.53881032,5.68024006 L7.76962107,4.18535756 L7.52833855,3.7168357 C7.51862248,3.69646518 7.50728705,3.67922859 7.49757098,3.661992 Z" id="形状结合"></path>
        </g>
    </g>
</svg>