<?xml version="1.0" encoding="UTF-8"?>
<svg width="22px" height="22px" viewBox="0 0 22 22" version="1.1" xmlns="http://www.w3.org/2000/svg" xmlns:xlink="http://www.w3.org/1999/xlink">
    <title>进行中备份 2</title>
    <g id="页面-1" stroke="none" stroke-width="1" fill="none" fill-rule="evenodd">
        <g id="画板" transform="translate(0.000000, -78.000000)">
            <g id="icon_private-message_22" transform="translate(0.000000, 78.000000)">
                <rect id="矩形" opacity="0.374139695" x="0" y="0" width="22" height="22"></rect>
                <g id="编组-12" transform="translate(4.000000, 3.000000)">
                    <path d="M4.03515625,16 C3.13708073,16 3.20462534,16 2,16 C0.8954305,16 0,15.1045695 0,14 L0,2 C0,0.8954305 0.8954305,0 2,0 L12,0 C13.1045695,0 14,0.8954305 14,2 C14,4.68164062 14,4.64331055 14,5.98413086" id="路径" stroke="#B8B8B8" stroke-width="2" stroke-linecap="round" stroke-linejoin="round"></path>
                    <path d="M9.75,10 C10.3022847,10 10.75,10.4477153 10.75,11 L10.749,11.5 L10.75,11.5 C11.3022847,11.5 11.75,11.9477153 11.75,12.5 C11.75,13.0522847 11.3022847,13.5 10.75,13.5 L9.76615392,13.4998722 C9.76077947,13.4999573 9.75539472,13.5 9.75,13.5 C9.19771525,13.5 8.75,13.0522847 8.75,12.5 L8.75,11 C8.75,10.4477153 9.19771525,10 9.75,10 Z" id="形状结合" fill="#B8B8B8"></path>
                    <circle id="椭圆形" stroke="#B8B8B8" stroke-width="2" cx="10" cy="12" r="4"></circle>
                    <path d="" id="矩形" stroke="#B8B8B8" fill="#111111"></path>
                    <rect id="矩形备份" stroke="#B8B8B8" fill="#111111" x="2.5" y="7.5" width="2" height="1" rx="0.5"></rect>
                </g>
            </g>
        </g>
    </g>
</svg>