<svg width="14" height="14" viewBox="0 0 14 14" fill="none" xmlns="http://www.w3.org/2000/svg">
<circle cx="7" cy="7" r="7" fill="#1A1E25"/>
<path d="M10.1823 3.00182H7.26943C7.08633 2.98514 6.91988 3.08522 6.78672 3.21866L3.22471 6.80492C2.9251 7.10516 2.9251 7.62225 3.22471 7.93917L6.05435 10.7748C6.35395 11.0751 6.86995 11.0751 7.1862 10.7748L10.7982 7.13852C10.9313 7.00508 11.0145 6.78824 10.9979 6.60475V3.80247C10.9812 3.36878 10.6151 3.00182 10.1823 3.00182ZM7.30272 8.87327L7.11962 9.05675C7.01975 9.15683 6.8533 9.15683 6.75343 9.05675L4.93913 7.25528C4.83926 7.1552 4.83926 6.9884 4.93913 6.88832L5.12223 6.70483C5.2221 6.60475 5.38855 6.60475 5.48842 6.70483L7.30272 8.52298C7.41923 8.60638 7.41923 8.77319 7.30272 8.87327ZM8.36799 7.80573L8.1849 7.98921C8.08503 8.0893 7.91858 8.0893 7.81871 7.98921L6.00441 6.18775C5.90454 6.08767 5.90454 5.92086 6.00441 5.82078L6.1875 5.6373C6.28737 5.53722 6.45382 5.53722 6.55369 5.6373L8.36799 7.45545C8.48451 7.53885 8.48451 7.70565 8.36799 7.80573ZM9.11701 5.53722C8.75082 5.53722 8.45122 5.23697 8.45122 4.87001C8.45122 4.50304 8.75082 4.2028 9.11701 4.2028C9.4832 4.2028 9.78281 4.50304 9.78281 4.87001C9.78281 5.23697 9.4832 5.53722 9.11701 5.53722Z" fill="white"/>
</svg>
