<svg width="12" height="12" viewBox="0 0 12 12" fill="none" xmlns="http://www.w3.org/2000/svg">
    <path fill-rule="evenodd" clip-rule="evenodd" d="M3.71945 11.6149C4.4236 11.9216 5.17743 12.075 5.98095 12.075C6.78446 12.075 7.54045 11.9216 8.24892 11.6149C8.9574 11.3082 9.57299 10.8934 10.0957 10.3707C10.6184 9.84801 11.0331 9.23242 11.3399 8.52395C11.6466 7.81547 11.7999 7.05948 11.7999 6.25597C11.7999 5.45246 11.6466 4.69863 11.3399 3.99447C11.0331 3.29032 10.6184 2.67689 10.0957 2.15417C9.57299 1.63146 8.9574 1.21674 8.24892 0.910022C7.54045 0.603305 6.78446 0.449949 5.98095 0.449949C5.17743 0.449949 4.4236 0.603305 3.71945 0.910022C3.0153 1.21674 2.40186 1.63146 1.87915 2.15417C1.35643 2.67689 0.941715 3.29032 0.634998 3.99447C0.328281 4.69862 0.174924 5.45246 0.174923 6.25597C0.174923 7.05948 0.328281 7.81547 0.634998 8.52395C0.941715 9.23242 1.35643 9.84801 1.87915 10.3707C2.40186 10.8934 3.0153 11.3082 3.71945 11.6149ZM4.0766 3.83731C4.61131 3.41426 5.32545 3.1835 6.08244 3.22196C6.35025 3.22196 6.57342 3.26042 6.93049 3.33734C8.04455 3.60579 8.71406 4.64343 8.40162 5.60415C8.17845 6.18028 7.73301 6.60257 7.10902 6.87179C6.57342 7.14024 6.39488 7.25562 6.39488 7.64022C6.39488 7.94789 6.08334 8.21711 5.72716 8.21711C5.37009 8.21711 5.05765 7.94789 5.05765 7.64022C5.05765 6.60334 5.86017 6.14259 6.39488 5.87337C6.442 5.84292 6.48678 5.81448 6.52923 5.78753C6.80852 5.61017 6.9869 5.49689 7.06439 5.29725C7.10902 5.10495 7.06439 4.87419 6.93049 4.68189C6.70821 4.48959 6.39577 4.37421 6.08334 4.41267C5.72716 4.37421 5.37009 4.48959 5.05765 4.68189C4.92375 4.7965 4.83537 4.95034 4.83537 5.14264C4.83537 5.45032 4.52294 5.71953 4.16586 5.71953C3.80879 5.71953 3.49636 5.45032 3.49636 5.14264C3.49636 4.64343 3.67489 4.18268 4.0766 3.83731ZM5.05363 9.48373C5.02214 9.41032 5.00833 9.33215 5.01302 9.25399C5.02187 9.10634 5.09618 8.96725 5.2206 8.86544C5.34502 8.76364 5.51005 8.70687 5.68163 8.70687C5.85321 8.70687 6.01825 8.76363 6.14266 8.86544C6.26708 8.96725 6.34139 9.10634 6.35025 9.25399C6.35494 9.33215 6.34112 9.41032 6.30963 9.48373C6.27815 9.55715 6.22966 9.62427 6.16711 9.68103C6.10456 9.73778 6.02927 9.78297 5.94581 9.81386C5.86234 9.84474 5.77246 9.86067 5.68163 9.86067C5.5908 9.86067 5.50092 9.84474 5.41746 9.81386C5.334 9.78297 5.2587 9.73778 5.19615 9.68103C5.1336 9.62427 5.08511 9.55715 5.05363 9.48373Z" fill="#6246EA"/>
</svg>
