<svg width="12" height="12" viewBox="0 0 12 12" fill="none" xmlns="http://www.w3.org/2000/svg">
<path d="M9.42856 8.57148V0.857114C9.42856 0.38377 9.04478 0 8.5714 0H0.857146C0.383793 0 0 0.38377 0 0.857114V8.57148C0 9.04442 0.383793 9.42861 0.857146 9.42861H8.5714C9.04477 9.42861 9.42856 9.04442 9.42856 8.57148ZM7.71428 8.57148H1.71429C1.24094 8.57148 0.857146 8.18729 0.857146 7.71437V1.71424C0.857146 1.2409 1.24094 0.857114 1.71429 0.857114H7.71428C8.18764 0.857114 8.5714 1.24088 8.5714 1.71424V7.71438C8.5714 8.18729 8.18762 8.57148 7.71428 8.57148ZM11.1428 2.57137H10.2857V3.4285C10.759 3.4285 11.1428 3.81229 11.1428 4.28583V10.2857C11.1428 10.7587 10.759 11.1429 10.2857 11.1429H4.2857C3.81235 11.1429 3.42855 10.7587 3.42855 10.2857H2.57141V11.1429C2.57141 11.6158 2.9552 12 3.42855 12H11.1428C11.6162 12 12 11.6158 12 11.1429V3.4285C12 2.95514 11.6162 2.57137 11.1428 2.57137Z" fill="#EEB134"/>
</svg>
