<?xml version="1.0" encoding="UTF-8"?>
<svg width="22px" height="22px" viewBox="0 0 22 22" version="1.1" xmlns="http://www.w3.org/2000/svg" xmlns:xlink="http://www.w3.org/1999/xlink">
    <title>已结束备份 2</title>
    <g id="页面-1" stroke="none" stroke-width="1" fill="none" fill-rule="evenodd">
        <g id="画板" transform="translate(-26.000000, -78.000000)">
            <g id="icon_private-message_22" transform="translate(26.000000, 78.000000)">
                <rect id="矩形" opacity="0.374139695" x="0" y="0" width="22" height="22"></rect>
                <g id="编组-12" transform="translate(4.000000, 3.000000)">
                    <path d="M4.03515625,16 C3.13708073,16 3.20462534,16 2,16 C0.8954305,16 0,15.1045695 0,14 L0,2 C0,0.8954305 0.8954305,0 2,0 L12,0 C13.1045695,0 14,0.8954305 14,2 C14,4.68164062 14,4.64331055 14,5.98413086" id="路径" stroke="#B8B8B8" stroke-width="2" stroke-linecap="round" stroke-linejoin="round"></path>
                    <rect id="矩形" fill="#B8B8B8" x="9" y="11" width="2" height="2"></rect>
                    <circle id="椭圆形" stroke="#B8B8B8" stroke-width="2" cx="10" cy="12" r="4"></circle>
                    <path d="" id="矩形" stroke="#B8B8B8" fill="#111111"></path>
                    <rect id="矩形备份" stroke="#B8B8B8" fill="#111111" x="2.5" y="7.5" width="2" height="1" rx="0.5"></rect>
                </g>
            </g>
        </g>
    </g>
</svg>