<?xml version="1.0" encoding="UTF-8"?>
<svg width="24px" height="24px" viewBox="0 0 24 24" version="1.1" xmlns="http://www.w3.org/2000/svg" xmlns:xlink="http://www.w3.org/1999/xlink">
    <title>编组 9</title>
    <g id="页面-1备份-2" stroke="none" stroke-width="1" fill="none" fill-rule="evenodd">
        <g id="主页" transform="translate(-335.000000, -54.000000)">
            <g id="编组-9" transform="translate(335.000000, 54.000000)">
                <rect id="矩形" x="0" y="0" width="24" height="24"></rect>
                <g id="编组" transform="translate(3.500000, 2.000000)" fill="#999999" fill-rule="nonzero">
                    <path d="M8.42359388,0 C8.86378458,0 9.22963909,0.340765971 9.26265337,0.781841799 L9.26517686,0.845234373 L9.26475629,1.83415853 C12.6798756,2.14266905 15.328696,5.33216078 15.328696,9.1792448 L15.328696,11.6895907 C15.328696,12.7782526 15.6870312,13.8238074 16.3263146,14.6162146 L16.6695088,15.0417901 C17.413517,15.9639407 16.8326943,17.452821 15.6125883,17.452821 L11.902221,17.452821 C11.4533509,18.9642106 10.0700081,20 8.50034996,20 C6.93069181,20 5.54734898,18.9642106 5.09847895,17.452821 L1.38727045,17.452821 C0.167164395,17.452821 -0.413658232,15.9635181 0.330770487,15.0417901 L0.673964744,14.615792 C1.31324817,13.8238074 1.67116276,12.7782526 1.67116276,11.6895907 L1.67116276,9.1792448 C1.67116276,5.38963671 4.24175503,2.23860316 7.58243148,1.85021797 L7.58243148,0.845234373 C7.58243148,0.378424343 7.95903272,0 8.42359388,0 Z M10.0680664,17.452821 L6.93179238,17.452821 C7.27539954,17.9882853 7.86607974,18.3117985 8.50013967,18.3117985 C9.1341996,18.3117985 9.7248798,17.9882853 10.068487,17.452821 L10.0680664,17.452821 Z M8.72178595,3.50053799 L8.42359388,3.50053799 L8.4143411,3.50011538 L8.27849337,3.50011538 C5.62210254,3.50011538 3.41909822,5.94875921 3.35516988,9.04062638 L3.35348756,9.17966741 L3.35348756,11.6895907 C3.35348756,13.1607211 2.86645453,14.5828278 1.9811311,15.679942 L1.91425869,15.7619297 L15.0851795,15.7619297 L15.0195688,15.6803646 C14.1678919,14.6250896 13.6846441,13.2697563 13.6484741,11.8590602 L13.6463712,11.6895907 L13.6463712,9.1792448 C13.6463712,6.0222946 11.4177114,3.50053799 8.72136537,3.50053799 L8.72178595,3.50053799 Z" id="形状"></path>
                </g>
            </g>
        </g>
    </g>
</svg>