<?xml version="1.0" encoding="UTF-8"?>
<svg width="20px" height="20px" viewBox="0 0 20 20" version="1.1" xmlns="http://www.w3.org/2000/svg" xmlns:xlink="http://www.w3.org/1999/xlink">
    <title>转发</title>
    <defs>
        <linearGradient x1="6.8877551%" y1="0%" x2="119.47054%" y2="130.897179%" id="linearGradient-1">
            <stop stop-color="#AE88FE" offset="0%"></stop>
            <stop stop-color="#923CFF" offset="45.2009728%"></stop>
            <stop stop-color="#00B2FF" offset="100%"></stop>
        </linearGradient>
    </defs>
    <g id="页面-1备份-2" stroke="none" stroke-width="1" fill="none" fill-rule="evenodd">
        <g id="消息" transform="translate(-25.000000, -372.000000)" fill="url(#linearGradient-1)" fill-rule="nonzero" stroke="url(#linearGradient-1)" stroke-width="0.595699759">
            <g id="编组-2" transform="translate(25.000000, 372.000000)">
                <g id="编组" transform="translate(4.000000, 3.000000)">
                    <path d="M12.7191701,5.92583002 C12.8736266,5.92583002 13,6.05015428 13,6.20210615 L13,9.07710466 C13,10.4999267 11.8222697,11.6585598 10.3759957,11.6585598 L3.61927123,11.6585598 L5.50258666,13.5303306 C5.61140824,13.6391143 5.61140824,13.8135136 5.50083147,13.9205706 C5.44466549,13.9740991 5.37445802,14 5.30249536,14 C5.23053271,14 5.15681486,13.9740991 5.10240407,13.9188439 L2.73114672,11.5618631 C2.69604298,11.5273286 2.67322555,11.4876139 2.66093924,11.4444458 C2.63285626,11.3512026 2.65742887,11.2458723 2.7329019,11.1716231 L5.12873187,8.84054322 C5.23930864,8.73348622 5.4165825,8.73348622 5.52540409,8.84226994 C5.63422567,8.95105367 5.63422567,9.12545298 5.5236489,9.23250998 L3.59820899,11.1060075 L10.3759957,11.1060075 C11.5133568,11.1060075 12.4383402,10.196023 12.4383402,9.07710466 L12.4383402,6.20210615 C12.4383402,6.05015428 12.5647137,5.92583002 12.7191701,5.92583002 Z M7.69750464,0 C7.76946729,0 7.84318514,0.0259008875 7.89759593,0.081156114 L10.2688533,2.43813687 C10.303957,2.47267139 10.3267744,2.51238608 10.3390608,2.55555423 C10.3671437,2.64879742 10.3425711,2.7541277 10.2670981,2.82837691 L7.87126813,5.15945678 C7.76069136,5.26651378 7.5834175,5.26651378 7.47459591,5.15773006 C7.36577433,5.04894633 7.36577433,4.87454702 7.4763511,4.76749002 L9.40179101,2.89399249 L2.62400425,2.89399249 C1.48664321,2.89399249 0.561659773,3.803977 0.561659773,4.92289534 L0.561659773,7.79789385 C0.561659773,7.94984572 0.435286324,8.07416998 0.280829886,8.07416998 C0.126373449,8.07416998 0,7.94984572 0,7.79789385 L0,4.92289534 C0,3.50007326 1.17773034,2.34144023 2.62400425,2.34144023 L9.38072877,2.34144023 L7.49741334,0.469669426 C7.38859176,0.360885699 7.38859176,0.18648639 7.49916853,0.0794293882 C7.55533451,0.0259008875 7.62554198,0 7.69750464,0 Z" id="形状结合"></path>
                </g>
            </g>
        </g>
    </g>
</svg>