<?xml version="1.0" encoding="UTF-8"?>
<svg width="11px" height="11px" viewBox="0 0 11 11" version="1.1" xmlns="http://www.w3.org/2000/svg" xmlns:xlink="http://www.w3.org/1999/xlink">
    <title>menu-guide-black</title>
    <g id="页面-1" stroke="none" stroke-width="1" fill="none" fill-rule="evenodd">
        <g id="画板" transform="translate(-43.000000, -39.000000)" fill="#1A1E25">
            <g id="menu-guide-black" transform="translate(43.000000, 39.000000)">
                <path d="M5.38978491,0 C4.32378491,0 3.28172491,0.316105 2.39538491,0.908341 C1.50903491,1.500581 0.818213914,2.342351 0.410274914,3.327201 C0.00233491448,4.312051 -0.104400366,5.395761 0.103565914,6.441271 C0.311530914,7.486791 0.824857914,8.447151 1.57863491,9.200931 C2.33240491,9.954721 3.29277491,10.468021 4.33828491,10.676021 C5.38380491,10.883921 6.46750491,10.777221 7.45235491,10.369321 C8.43721491,9.961321 9.27898491,9.270521 9.87121491,8.384181 C10.4634249,7.497831 10.7795249,6.455771 10.7795249,5.389781 C10.7795249,4.681981 10.6401249,3.981121 10.3693249,3.327201 C10.0984249,2.673281 9.70141491,2.079121 9.20092491,1.578631 C8.70044491,1.078141 8.10627491,0.681131 7.45235491,0.410271 C6.79844491,0.13941 6.09757491,0 5.38978491,0 Z M8.59023491,8.590231 C7.84825491,9.329291 6.87301491,9.788321 5.83061491,9.889021 C4.78821491,9.989721 3.74313491,9.725921 2.87338491,9.142631 C2.00363491,8.559311 1.36299491,7.692501 1.06060491,6.689861 C0.758211914,5.687211 0.812760914,4.610741 1.21496491,3.643801 C1.61716491,2.676861 2.34213491,1.879261 3.26640491,1.386841 C4.19066491,0.894431 5.25705491,0.737661 6.28393491,0.943251 C7.31080491,1.148831 8.23465491,1.704041 8.89812491,2.514321 C9.56158491,3.324601 9.92362491,4.339831 9.92262698,5.387081 C9.92232491,5.982431 9.80456491,6.571871 9.57592491,7.121561 C9.34727491,7.671251 9.01230491,8.170361 8.59023491,8.590231 Z" id="形状" fill-rule="nonzero"></path>
                <path d="M5.46022469,1.77278837 C5.51430936,1.79307012 5.55698409,1.83574485 5.57726584,1.88982952 L6.89,5.39045395 L5.57726584,8.89107838 C5.55698409,8.94516305 5.51430936,8.98783778 5.46022469,9.00811953 C5.37403797,9.04043955 5.27961627,9.00943657 5.22809198,8.93835257 L5.20273416,8.89107838 L3.89,5.39045395 L5.20273416,1.88982952 C5.24151819,1.78640546 5.35680062,1.73400435 5.46022469,1.77278837 Z M5.39,4.89045395 C5.11385763,4.89045395 4.89,5.11431158 4.89,5.39045395 C4.89,5.66659633 5.11385763,5.89045395 5.39,5.89045395 C5.66614237,5.89045395 5.89,5.66659633 5.89,5.39045395 C5.89,5.11431158 5.66614237,4.89045395 5.39,4.89045395 Z" id="形状结合" transform="translate(5.390000, 5.390454) rotate(-315.000000) translate(-5.390000, -5.390454) "></path>
            </g>
        </g>
    </g>
</svg>