<?xml version="1.0" encoding="UTF-8"?>
<svg width="12px" height="12px" viewBox="0 0 12 12" version="1.1" xmlns="http://www.w3.org/2000/svg" xmlns:xlink="http://www.w3.org/1999/xlink">
    <title>切片</title>
    <g id="页面-1" stroke="none" stroke-width="1" fill="none" fill-rule="evenodd">
        <g id="menu-faq-light" transform="translate(12.000000, 1.000000)" fill="#1A1E25" fill-rule="nonzero">
            <path d="M5.38978491,0 C4.32378491,0 3.28172491,0.316105 2.39538491,0.908342 C1.50903491,1.500582 0.818213914,2.342342 0.410274914,3.327202 C0.00233491448,4.312052 -0.104400366,5.395762 0.103565914,6.441272 C0.311530914,7.486792 0.824857914,8.447152 1.57863491,9.200932 C2.33240491,9.954682 3.29277491,10.467982 4.33828491,10.675982 C5.38380491,10.883982 6.46750491,10.777182 7.45235491,10.369282 C8.43721491,9.961382 9.27898491,9.270522 9.87121491,8.384182 C10.4634249,7.497832 10.7795249,6.455772 10.7795249,5.389782 C10.7795249,4.681982 10.6401249,3.981122 10.3693249,3.327202 C10.0984249,2.673282 9.70141491,2.079112 9.20092491,1.578632 C8.70044491,1.078142 8.10627491,0.681132 7.45235491,0.410272 C6.79844491,0.13941 6.09757491,0 5.38978491,0 L5.38978491,0 Z M8.59023491,8.590232 C7.84825491,9.329292 6.87301491,9.788282 5.83061491,9.888982 C4.78821491,9.989682 3.74313491,9.725982 2.87338491,9.142632 C2.00363491,8.559312 1.36299491,7.692502 1.06060491,6.689862 C0.758211914,5.687212 0.812760914,4.610742 1.21496491,3.643802 C1.61716491,2.676862 2.34213491,1.879262 3.26640491,1.386842 C4.19066491,0.894432 5.25705491,0.737662 6.28393491,0.943242 C7.31080491,1.148832 8.23465491,1.704042 8.89812491,2.514322 C9.56158491,3.324602 9.92362491,4.339832 9.92262698,5.387082 C9.92232491,5.982432 9.80456491,6.571872 9.57591491,7.121562 C9.34727491,7.671252 9.01230491,8.170362 8.59023491,8.590232 L8.59023491,8.590232 Z" id="形状"></path>
        </g>
        <g id="menu-word-cloud-light" transform="translate(0.000000, 2.000000)" fill="#000000" fill-rule="nonzero">
            <path d="M12,6.04824405 C12,7.72321086 10.658006,9.08108107 9.00257254,9.08108107 L2.57951371,9.08108107 C1.23993963,9.0864073 0.121097179,8.04948619 0.00910931497,6.69883972 C-0.102878549,5.34819324 0.829575824,4.13715292 2.15130978,3.91662195 L2.15130978,3.88196144 C2.16020744,1.88277262 3.66201983,0.214270319 5.62845483,0.0188793824 C7.59488981,-0.176511554 9.38880431,1.16451734 9.78190369,3.12376251 C11.0891618,3.47990718 11.9982087,4.67845343 12,6.04824405 L12,6.04824405 Z M0.866698018,6.48150058 C0.866698018,7.43862448 1.63355172,8.2145267 2.57951371,8.2145267 L9.00257254,8.2145267 C10.1121247,8.20495015 11.0305879,7.33927187 11.1185856,6.22012278 C11.2065833,5.10097369 10.4349522,4.09925021 9.34085364,3.91228939 C9.14955477,3.88209266 9.00208187,3.72577424 8.98116234,3.53102364 C8.79227776,1.93992682 7.41255632,0.772115835 5.83137477,0.865009699 C4.25019318,0.957903564 3.01332874,2.27943806 3.00771763,3.88196144 C3.00846376,4.00946595 3.01704439,4.13680018 3.03340986,4.26322716 C3.04952242,4.38753308 3.01162696,4.5128064 2.9295108,4.60669255 C2.84739465,4.7005787 2.72910982,4.75387155 2.60520594,4.75280705 L2.57951371,4.75280705 C1.63522144,4.75280406 0.869058749,5.52606911 0.866698018,6.48150058 Z" id="形状"></path>
        </g>
    </g>
</svg>