<?xml version="1.0" encoding="UTF-8"?>
<svg width="16px" height="16px" viewBox="0 0 16 16" version="1.1" xmlns="http://www.w3.org/2000/svg" xmlns:xlink="http://www.w3.org/1999/xlink">
    <title>编组</title>
    <defs>
        <linearGradient x1="0%" y1="-26.5733361%" x2="100%" y2="140.838195%" id="linearGradient-1">
            <stop stop-color="#AE88FE" offset="0%"></stop>
            <stop stop-color="#923CFF" offset="48.4375%"></stop>
            <stop stop-color="#00B2FF" offset="100%"></stop>
        </linearGradient>
    </defs>
    <g id="页面-1" stroke="none" stroke-width="1" fill="none" fill-rule="evenodd">
        <g id="切图" transform="translate(-265.000000, -342.000000)" fill="url(#linearGradient-1)">
            <g id="编组-2备份" transform="translate(233.000000, 59.000000)">
                <g id="编组" transform="translate(32.000000, 283.000000)">
                    <path d="M2,1.73221778 L6,1.73221778 C6.55228475,1.73221778 7,2.17993303 7,2.73221778 L7,6.73221778 C7,7.28450253 6.55228475,7.73221778 6,7.73221778 L2,7.73221778 C1.44771525,7.73221778 1,7.28450253 1,6.73221778 L1,2.73221778 C1,2.17993303 1.44771525,1.73221778 2,1.73221778 Z M2,8.73221778 L6,8.73221778 C6.55228475,8.73221778 7,9.17993303 7,9.73221778 L7,13.7322178 C7,14.2845025 6.55228475,14.7322178 6,14.7322178 L2,14.7322178 C1.44771525,14.7322178 1,14.2845025 1,13.7322178 L1,9.73221778 C1,9.17993303 1.44771525,8.73221778 2,8.73221778 Z M9,8.73221778 L13,8.73221778 C13.5522847,8.73221778 14,9.17993303 14,9.73221778 L14,13.7322178 C14,14.2845025 13.5522847,14.7322178 13,14.7322178 L9,14.7322178 C8.44771525,14.7322178 8,14.2845025 8,13.7322178 L8,9.73221778 C8,9.17993303 8.44771525,8.73221778 9,8.73221778 Z M10.7679492,1.13414157 L14.2320508,3.13414157 C14.7103434,3.41028395 14.8742186,4.02187435 14.5980762,4.50016698 L12.5980762,7.96426859 C12.3219338,8.44256121 11.7103434,8.60643637 11.2320508,8.33029399 L7.76794919,6.33029399 C7.28965657,6.05415162 7.12578141,5.44256121 7.40192379,4.96426859 L9.40192379,1.50016698 C9.67806616,1.02187435 10.2896566,0.857999197 10.7679492,1.13414157 Z" id="形状结合"></path>
                </g>
            </g>
        </g>
    </g>
</svg>