<?xml version="1.0" encoding="UTF-8"?>
<svg width="16px" height="16px" viewBox="0 0 16 16" version="1.1" xmlns="http://www.w3.org/2000/svg" xmlns:xlink="http://www.w3.org/1999/xlink">
    <title>Wallet</title>
    <defs>
        <linearGradient x1="0%" y1="-26.5733361%" x2="100%" y2="140.838195%" id="linearGradient-1">
            <stop stop-color="#AE88FE" offset="0%"></stop>
            <stop stop-color="#923CFF" offset="48.4375%"></stop>
            <stop stop-color="#00B2FF" offset="100%"></stop>
        </linearGradient>
        <linearGradient x1="0%" y1="-26.5733361%" x2="100%" y2="140.838195%" id="linearGradient-2">
            <stop stop-color="#B8B8B8" offset="0%"></stop>
            <stop stop-color="#B8B8B8" offset="48.4375%"></stop>
            <stop stop-color="#B8B8B8" offset="100%"></stop>
        </linearGradient>
    </defs>
    <g id="页面-1" stroke="none" stroke-width="1" fill="none" fill-rule="evenodd">
        <g id="Wallet" fill="url(#linearGradient-2)" fill-rule="nonzero">
            <path d="M12.6152,4.784 L16,4.784 C16,1.76444444 14.3712,0 11.6128,0 L4.3872,0 C1.62880001,0 2.66453526e-16,1.76444444 2.66453526e-16,4.7448889 L2.66453526e-16,11.2551111 C2.66453526e-16,14.2355556 1.62880001,16 4.3872,16 L11.6128,16 C14.3712,16 16,14.2355556 16,11.2551111 L16,10.9768889 L12.6152,10.9768889 C11.044,10.9768889 9.77039999,9.59733333 9.77039999,7.896 C9.77039999,6.19377777 11.044,4.81422223 12.6152,4.81422223 L12.6152,4.784 Z M12.6152,6.10844444 L15.4024,6.10844444 C15.7328,6.10844444 16,6.39822221 16,6.75555556 L16,9.00533333 C15.9921738,9.36564192 15.7267717,9.65303249 15.4024,9.65244444 L12.68,9.65244444 C11.8848,9.664 11.1888,9.07466667 11.0088,8.23466667 C10.9188171,7.7121798 11.0461272,7.17249232 11.3552,6.76622223 C11.6694204,6.35373471 12.1296555,6.11362332 12.616,6.10844444 L12.6152,6.10844444 Z M12.736,8.47377777 L12.9992,8.47377777 C13.332481,8.47822454 13.6060094,8.18186237 13.6104,7.81155556 C13.6085018,7.6335618 13.5430385,7.46369752 13.4284137,7.33933735 C13.313789,7.21497718 13.1593941,7.14631001 12.9992,7.14844444 L12.736,7.14844444 C12.5752211,7.14613796 12.4200677,7.2141373 12.304,7.33777777 C12.1897076,7.45947071 12.1249961,7.62766928 12.1248,7.80355556 C12.1248,8.17066667 12.3968,8.47022223 12.736,8.47377777 L12.736,8.47377777 Z M3.7904,4.784 L8.30560001,4.784 C8.46593178,4.78637224 8.62053261,4.71781054 8.73533099,4.59342479 C8.85012936,4.46903905 8.91570281,4.29903863 8.91760001,4.1208889 C8.91549227,3.94289417 8.84982631,3.7731218 8.73505096,3.6489277 C8.62027561,3.5247336 8.46579489,3.45629351 8.30560001,3.45866667 L3.7904,3.45866667 C3.45925944,3.45368913 3.18626517,3.74591394 3.1784,4.11377777 C3.1784,4.48088888 3.4512,4.78044444 3.7904,4.784 Z" id="形状"></path>
        </g>
    </g>
</svg>
