<?xml version="1.0" encoding="UTF-8"?>
<svg width="16px" height="16px" viewBox="0 0 16 16" version="1.1" xmlns="http://www.w3.org/2000/svg" xmlns:xlink="http://www.w3.org/1999/xlink">
    <title>编组 23</title>
    <g id="页面-1" stroke="none" stroke-width="1" fill="none" fill-rule="evenodd">
        <g id="切图" transform="translate(-75.000000, -145.000000)">
            <g id="编组-2" transform="translate(43.000000, 59.000000)">
                <g id="编组-23" transform="translate(32.000000, 86.000000)">
                    <rect id="矩形备份-2" x="0" y="0" width="16" height="16"></rect>
                    <path d="M13.9629387,7.74242016 C15.1283443,8.63026443 15.8042814,9.79607761 15.9724063,11.2539222 C15.977125,11.2945785 15.990625,11.3342035 16,11.3743285 L16,13.7496737 C15.9518438,13.901705 15.9193438,14.0610176 15.8529063,14.2045802 C15.5525315,14.8533931 15.0373131,15.2247683 14.325501,15.2372683 C12.9987205,15.2604871 11.6712525,15.2445496 10.3440971,15.2444871 C10.3349408,15.2444871 10.3258158,15.2382058 10.3017221,15.2293933 C10.3313158,15.1854245 10.3573783,15.1436432 10.3864095,15.1040495 C10.7257218,14.6410805 10.9067842,14.1242677 10.9090342,13.5488923 C10.911503,12.9242669 10.9137217,12.2995791 10.9079405,11.6749537 C10.8979717,10.5992343 10.6020032,9.60404625 10.0484097,8.68370196 C10.0220035,8.63979569 9.99559727,8.59588941 9.96094104,8.53823313 C10.1949409,8.5697019 10.412097,8.60779567 10.6308781,8.62685818 C11.7635025,8.72557699 12.7829394,8.42282681 13.6873139,7.73895141 C13.79772,7.65545136 13.8614388,7.66510762 13.9629387,7.74242016 Z M7.79894231,7.64617636 C8.48247315,8.11711413 9.01831659,8.71617698 9.40284762,9.44845866 C9.78728489,10.1805841 9.97825353,10.9611158 9.97331915,11.7895538 C9.96984728,12.3415541 9.97381603,12.8936169 9.97237853,13.4456485 C9.96965978,14.5051179 9.23247272,15.2447121 8.17428584,15.2455246 C6.05497458,15.2471183 3.93569457,15.2465408 1.81638331,15.2457433 C0.876290112,15.2453683 0.220259246,14.7103992 0.0236031112,13.7882425 C0.0206343629,13.7743674 0.00810312025,13.7624924 9.37499408e-06,13.7496799 L9.37499408e-06,11.3743348 C0.0609468393,11.0588971 0.100978066,10.7376782 0.186540516,10.4290842 C0.497977833,9.30567733 1.13678996,8.40502055 2.07625816,7.71564515 C2.14803937,7.66295762 2.19428934,7.65052011 2.27578929,7.71158264 C3.9597883,8.97380213 6.05250583,8.96448963 7.7294111,7.69220763 C7.74978608,7.67677012 7.77209857,7.66389512 7.79894231,7.64617636 Z M4.99744707,0.747899681 C6.9146647,0.753822317 8.47160129,2.31804198 8.46860562,4.23529311 C8.46560129,6.15073173 6.89969596,7.71442015 4.98554083,7.71342062 C3.0676982,7.71245139 1.49616787,6.13329422 1.50447855,4.21557435 C1.51285536,2.30035447 3.08251069,0.74207231 4.99744707,0.747899681 Z M13.4868671,1.78430417 C14.85621,3.16621123 14.8230538,5.4123688 13.4167421,6.74474458 C11.9642742,8.12087038 9.82883799,7.93958903 8.63093244,6.75352583 C9.67093183,5.07389985 9.67318183,3.39439886 8.62930744,1.70346037 C9.90577545,0.461834646 12.0851492,0.369740842 13.4868671,1.78430417 Z" id="形状结合" fill="#B8B8B8"></path>
                </g>
            </g>
        </g>
    </g>
</svg>