<?xml version="1.0" encoding="UTF-8"?>
<svg width="16px" height="16px" viewBox="0 0 16 16" version="1.1" xmlns="http://www.w3.org/2000/svg" xmlns:xlink="http://www.w3.org/1999/xlink">
    <title>编组 19</title>
    <g id="页面-1" stroke="none" stroke-width="1" fill="none" fill-rule="evenodd">
        <g id="切图" transform="translate(-75.000000, -96.000000)">
            <g id="编组-2" transform="translate(43.000000, 59.000000)">
                <g id="编组-19" transform="translate(32.000000, 37.000000)">
                    <rect id="矩形" x="0" y="0" width="16" height="16"></rect>
                    <path d="M0,8.21875 L0,7.78125 C0.09428125,7.31428125 0.39584375,6.9870625 0.72090625,6.66359375 C2.70309375,4.69125 4.680375,2.7139375 6.6529375,0.73190625 C6.9796875,0.40359375 7.3081875,0.094875 7.78125,0 L8.21875,0 C8.68596875,0.09359375 9.01228125,0.39640625 9.33540625,0.72103125 C11.31475,2.70971875 13.2985312,4.6940625 15.2878125,6.6728125 C15.6178437,7.00109375 15.918,7.33528125 16,7.8125 L16,8.1875 C15.9908125,8.21125 15.977875,8.23421875 15.973,8.2588125 C15.8284062,8.983875 15.2550312,9.46228125 14.5188125,9.470875 C14.4432812,9.47178125 14.36775,9.471 14.2834062,9.471 L14.2834062,9.68165625 C14.2829687,11.227375 14.2875625,12.773125 14.2797812,14.3188125 C14.2760937,15.0517187 13.7771562,15.7013125 13.0785312,15.9183125 C12.9804375,15.94875 12.8804062,15.9729375 12.78125,16 L9.90625,16 C9.62946875,15.8968125 9.53134375,15.6938125 9.53315625,15.4044375 C9.54059375,14.2131875 9.53709375,13.021875 9.53584375,11.8305625 C9.5353125,11.2990625 9.2128125,10.97875 8.6786875,10.9769062 C8.2365,10.975375 7.7943125,10.9761875 7.35215625,10.9766562 C6.7743125,10.9772812 6.4628125,11.2863125 6.4625625,11.8604375 C6.462,13.0413437 6.458125,14.22225 6.46540625,15.403125 C6.46715625,15.69175 6.37103125,15.8964062 6.09375,16 L3.21875,16 C3.20553125,15.992375 3.1929375,15.9795625 3.179,15.9778437 C2.4326875,15.8854062 1.69634375,15.1917812 1.71025,14.1785625 C1.730875,12.6741562 1.7155625,11.1692812 1.7155625,9.664625 L1.7155625,9.4704375 C1.60646875,9.4704375 1.5186875,9.47428125 1.4313125,9.46978125 C0.85884375,9.440375 0.4326875,9.17209375 0.1639375,8.66803125 C0.0896875,8.52871875 0.05359375,8.36909375 0,8.21875" id="Fill-41" fill="#B8B8B8"></path>
                </g>
            </g>
        </g>
    </g>
</svg>