<?xml version="1.0" encoding="UTF-8"?>
<svg width="16px" height="16px" viewBox="0 0 16 16" version="1.1" xmlns="http://www.w3.org/2000/svg" xmlns:xlink="http://www.w3.org/1999/xlink">
    <title>编组 20</title>
    <defs>
        <linearGradient x1="0%" y1="-20.1467431%" x2="100%" y2="133.214391%" id="linearGradient-1">
            <stop stop-color="#AE88FE" offset="0%"></stop>
            <stop stop-color="#923CFF" offset="48.4375%"></stop>
            <stop stop-color="#00B2FF" offset="100%"></stop>
        </linearGradient>
    </defs>
    <g id="页面-1" stroke="none" stroke-width="1" fill="none" fill-rule="evenodd">
        <g id="切图" transform="translate(-265.000000, -194.000000)">
            <g id="编组-2备份" transform="translate(233.000000, 59.000000)">
                <g id="编组-20" transform="translate(32.000000, 135.000000)">
                    <rect id="矩形备份-2" x="0" y="0" width="16" height="16"></rect>
                    <path d="M0,6.5615 L0,6.21771875 C0.17059375,5.69515625 0.574125,5.4854375 1.08003125,5.41225 C2.3873125,5.2230625 3.6941875,5.031125 5.00221875,4.8476875 C5.1331875,4.8293125 5.1983125,4.7766875 5.2545625,4.661625 C5.83253125,3.4801875 6.41265625,2.2998125 7.002125,1.124125 C7.09384375,0.94121875 7.2133125,0.76078125 7.35834375,0.6183125 C7.74815625,0.23534375 8.2845,0.24515625 8.66490625,0.6385 C8.7996875,0.77784375 8.91125,0.94921875 8.998375,1.1235 C9.59121875,2.3091875 10.1734687,3.50015625 10.7646875,4.68665625 C10.7961562,4.74975 10.8726563,4.82265625 10.9369688,4.8323125 C12.248375,5.028875 13.5606562,5.21959375 14.8736562,5.40525 C15.3954063,5.479 15.821125,5.67415625 16,6.21771875 L16,6.5615 C15.9047812,6.871375 15.7286563,7.12615625 15.4957187,7.35140625 C14.5563437,8.259875 13.6234688,9.17503125 12.6844688,10.0839063 C12.6045313,10.1612813 12.5756875,10.23175 12.594875,10.34125 C12.7795938,11.3965625 12.9623125,12.4522188 13.1405,13.5086563 C13.2035937,13.882625 13.2845313,14.2575938 13.3006875,14.6345625 C13.324875,15.2002813 12.970375,15.59975 12.4515313,15.646875 C12.1668125,15.6727813 11.90975,15.5748438 11.6620312,15.4442813 C10.4982188,14.8310313 9.3326875,14.221125 8.17096875,13.6040313 C8.046625,13.538 7.95234375,13.54075 7.82965625,13.605875 C6.70909375,14.2006563 5.5860625,14.7907813 4.4614375,15.3778438 C4.2918125,15.4664063 4.11621875,15.5529375 3.93328125,15.6048125 C3.3673125,15.7652813 2.8623125,15.48675 2.73584375,14.9420625 C2.69675,14.7736563 2.68425,14.5868438 2.71203125,14.4170313 C2.93146875,13.0775313 3.1618125,11.73975 3.39446875,10.4024375 C3.4198125,10.2566875 3.39734375,10.1582188 3.2840625,10.0492188 C2.38734375,9.18659375 1.501625,8.3125 0.60603125,7.44865625 C0.3406875,7.1926875 0.10078125,6.92653125 0,6.5615" id="Fill-1" fill="url(#linearGradient-1)"></path>
                </g>
            </g>
        </g>
    </g>
</svg>