<?xml version="1.0" encoding="UTF-8"?>
<svg width="16px" height="16px" viewBox="0 0 16 16" version="1.1" xmlns="http://www.w3.org/2000/svg" xmlns:xlink="http://www.w3.org/1999/xlink">
    <title>编组 24</title>
    <defs>
        <linearGradient x1="0%" y1="-26.5733361%" x2="100%" y2="140.838195%" id="linearGradient-1">
            <stop stop-color="#AE88FE" offset="0%"></stop>
            <stop stop-color="#923CFF" offset="48.4375%"></stop>
            <stop stop-color="#00B2FF" offset="100%"></stop>
        </linearGradient>
    </defs>
    <g id="页面-1" stroke="none" stroke-width="1" fill="none" fill-rule="evenodd">
        <g id="切图" transform="translate(-265.000000, -292.000000)" fill="url(#linearGradient-1)">
            <g id="编组-2备份" transform="translate(233.000000, 59.000000)">
                <g id="编组-24" transform="translate(32.000000, 233.000000)">
                    <path d="M8.5,3.12499878e-06 C8.54531083,0.00906562146 8.59037332,0.0198468672 8.63602956,0.0269718645 C9.04143573,0.0902843397 9.4525919,0.128378075 9.85156058,0.219721789 C12.9338412,0.925284014 15.356497,3.50275176 15.8786844,6.62090679 C15.9275281,6.91253167 15.9599656,7.20690656 16,7.50000312 L16,8.50000312 C15.9911219,8.54024979 15.9797781,8.58012477 15.9737781,8.62081226 L15.8735837,9.36280502 C15.8552712,9.48613484 15.8346427,9.60898895 15.8094344,9.73090557 C15.1680595,12.8326544 12.5159976,15.3702471 9.39377942,15.8766844 C9.09699822,15.9248094 8.79796703,15.9592156 8.5,16.0000031 L7.5,16.0000031 C7.46518604,15.9914969 7.4307798,15.9801531 7.39546731,15.9749969 L6.66389569,15.8761381 C6.54225567,15.8582296 6.42103,15.8382469 6.30062377,15.8141532 C3.19912438,15.1933409 0.629874877,12.5264357 0.125031226,9.40968695 C0.0760937351,9.10762457 0.0413437419,8.80328094 0,8.50000312 L0,7.50000312 C0.05103124,7.14571908 0.0894062325,6.78909422 0.15506247,6.43756311 C0.749968604,3.2521581 3.41096808,0.648690372 6.60577996,0.123065577 C6.90256115,0.074284346 7.20187359,0.0406906091 7.5,3.12499878e-06 L8.5,3.12499878e-06 Z M7.06884237,3.51418925 C6.70912369,3.51518925 6.52940497,3.69531418 6.52909247,4.05131404 L6.52869794,5.19968078 L6.52884247,6.52884432 L6.34140501,6.52884432 C5.57581141,6.52884432 4.81021781,6.52825057 4.04462421,6.52909432 C3.69843678,6.52950057 3.51565556,6.71065675 3.51437431,7.05981287 C3.51209306,7.68996887 3.51165556,8.32018737 3.51462431,8.95034338 C3.51624931,9.288437 3.70218678,9.47034318 4.03943671,9.47081193 L5.1253115,9.47137052 L6.52884247,9.47115568 L6.52896747,11.9278422 C6.52912372,12.3089046 6.70140494,12.484967 7.07949862,12.4859045 C7.69402975,12.4874357 8.30859213,12.4874982 8.92315451,12.4858732 C9.29277944,12.4848732 9.4706544,12.3066233 9.47093565,11.940686 L9.4712794,10.7922997 L9.4711544,9.47115568 L9.66656061,9.47115568 C10.4269355,9.47115568 11.1873416,9.47165568 11.9477164,9.47090568 C12.3034976,9.47056193 12.4845601,9.29078075 12.4857476,8.93184339 C12.4877788,8.30687488 12.4882163,7.68190637 12.4855288,7.05693787 C12.4839976,6.70884425 12.3003726,6.52943807 11.9524039,6.52909432 L10.8040135,6.52867636 L9.4711544,6.52884432 L9.4711544,6.34512565 C9.4711544,5.58475094 9.47149815,4.82437624 9.4709669,4.06400154 C9.4707169,3.69403293 9.29543568,3.5150955 8.92812326,3.51412675 C8.30837338,3.5124705 7.6886235,3.512408 7.06884237,3.51418925 Z M8.53364833,4.46112013 L8.53389833,6.92111917 C8.53424208,7.28208778 8.72011705,7.46583771 9.08471073,7.46615021 L11.5388665,7.46633771 L11.5388665,8.53364979 L9.07880448,8.53386854 C8.71774205,8.53424354 8.53411708,8.71993097 8.53383583,9.08449333 L8.53364833,11.5389299 L7.46636729,11.5389299 L7.46608604,9.07902458 C7.46571104,8.71764972 7.28005483,8.53411854 6.91558615,8.53383729 L4.46105538,8.53364979 L4.46105538,7.46633771 L6.9209299,7.46608771 C7.28155483,7.46571271 7.46583604,7.27936903 7.46614854,6.91533792 L7.46636729,4.46112013 L8.53364833,4.46112013 Z" id="形状结合"></path>
                </g>
            </g>
        </g>
    </g>
</svg>