<?xml version="1.0" encoding="UTF-8"?>
<svg width="16px" height="16px" viewBox="0 0 16 16" version="1.1" xmlns="http://www.w3.org/2000/svg" xmlns:xlink="http://www.w3.org/1999/xlink">
    <title>编组 25</title>
    <g id="页面-1" stroke="none" stroke-width="1" fill="none" fill-rule="evenodd">
        <g id="切图" transform="translate(-75.000000, -243.000000)" fill="#B8B8B8">
            <g id="编组-2" transform="translate(43.000000, 59.000000)">
                <g id="编组-25" transform="translate(32.000000, 184.000000)">
                    <path d="M6.6874875,15.9999875 C6.44526875,15.9279563 6.1963,15.8728938 5.96233125,15.7800189 C5.5933625,15.6335503 5.2936125,15.3845505 5.042425,15.0780195 C5.01101875,15.039707 4.98558125,14.9964883 4.94676875,14.9402071 L9.022175,14.9402071 C8.85101875,15.1173944 8.7188625,15.2749881 8.5657375,15.4085192 C8.21301875,15.716144 7.79995625,15.9015501 7.3358625,15.97105 C7.30645625,15.9754563 7.27858125,15.9901125 7.2499875,15.9999875 L6.6874875,15.9999875 Z M8.47142187,2.240567 C7.89514062,3.53959723 7.91110937,4.80328375 8.64442187,6.00797031 C9.37660937,7.21078187 10.4862344,7.81900014 11.9014219,7.90787507 L11.9014219,8.09790617 C11.9014219,9.06115542 11.9028594,10.0244047 11.8992344,10.9876227 C11.8988906,11.0846538 11.9271094,11.1310288 12.0181406,11.172185 C12.6667656,11.4653723 13.0025156,12.1140905 12.8736094,12.8084962 C12.7514844,13.4663082 12.1713594,13.9549641 11.4683594,13.9920578 L11.3902969,13.9941516 C8.44326562,13.9942453 5.49623437,13.9957141 2.54920312,13.9931828 C1.85695312,13.9925578 1.28592187,13.5758394 1.09598437,12.9495274 C0.879140625,12.2343404 1.22257812,11.4781848 1.91167187,11.17481 C2.01167187,11.1307788 2.03598437,11.0801851 2.03573437,10.9791852 C2.03260937,9.64624871 2.03114062,8.31331226 2.03426562,6.98040705 C2.03920312,4.87747119 3.27835937,3.07062885 5.24382812,2.32250444 C6.30057812,1.92025475 7.37554687,1.90750476 8.47142187,2.240567 Z M11.9846562,1.00257388 C13.626625,1.00179297 14.967875,2.34241692 14.9675001,3.98391564 C14.967125,5.62444561 13.6226562,6.96728831 11.9831875,6.96460484 C10.3453125,6.96191331 9.001125,5.61160187 9.00670135,3.97457189 C9.01234375,2.34072942 10.3524375,1.00329297 11.9846562,1.00257388 Z M7.1874875,2.27373675e-13 C7.3142375,0.0428749665 7.44570625,0.0753124412 7.56683125,0.130531148 C7.98955,0.323187248 8.26214375,0.648374493 8.38908125,1.09524914 C8.39755,1.12509287 8.4033,1.1559366 8.40714375,1.18674907 C8.408925,1.20087406 8.40308125,1.2159678 8.3984875,1.24406153 C7.44408125,1.01490546 6.49170625,1.00918671 5.51151875,1.25412402 C5.53633125,1.1529991 5.54855,1.06756167 5.57808125,0.988624228 C5.76720625,0.482905873 6.12758125,0.167156119 6.6498625,0.0339687235 C6.68389375,0.0252812302 6.71664375,0.0114374911 6.7499875,2.27373675e-13 L7.1874875,2.27373675e-13 Z" id="形状结合"></path>
                </g>
            </g>
        </g>
    </g>
</svg>