<?xml version="1.0" encoding="UTF-8"?>
<svg width="24px" height="24px" viewBox="0 0 24 24" version="1.1" xmlns="http://www.w3.org/2000/svg" xmlns:xlink="http://www.w3.org/1999/xlink">
    <title>编组</title>
    <g id="页面-1备份-2" stroke="none" stroke-width="1" fill="none" fill-rule="evenodd">
        <g id="图标" transform="translate(-63.000000, -12.000000)" fill="#000000">
            <g id="编组" transform="translate(63.000000, 12.000000)">
                <g transform="translate(4.500419, 4.485600)">
                    <path d="M1.7458483,5.92337781 C2.02227017,5.73995593 2.2955983,5.55151843 2.57595767,5.37433093 C2.96558267,5.12809656 3.4532233,5.26037781 3.65502017,5.65951843 C3.8199733,5.98586218 3.73573892,6.38931531 3.42833267,6.59879968 C2.67008267,7.11559656 1.90944205,7.62944031 1.13675455,8.12411218 C0.631113921,8.44783093 -0.00549545432,8.08994031 0,7.49050281 C0.0204732957,5.27106531 0.858785796,3.40923718 2.49631705,1.91725281 C3.58283267,0.927252807 4.8699733,0.334940307 6.31873892,0.095643432 C9.39387955,-0.412247193 12.5432233,1.13842468 14.0424733,3.89617468 C16.478192,8.37644031 13.8639264,13.9005184 8.85486392,14.8577059 C5.27506705,15.5417528 1.6444108,13.4621903 0.433770171,10.0343622 C0.283535796,9.60887781 0.466723296,9.18704968 0.865629546,9.03986218 C1.2658483,8.89225281 1.67530142,9.08790906 1.83720767,9.51583093 C2.4860983,11.2306122 3.65619205,12.4380184 5.36530142,13.0996122 C8.7701608,14.4175966 12.6267545,12.2917684 13.3413639,8.71497156 C13.9887545,5.47497156 11.9946452,2.38759656 8.77677017,1.64790906 C5.77386392,0.957580932 2.65583267,2.76390906 1.76098892,5.71272156 C1.74275455,5.77281531 1.73019205,5.83464343 1.71500455,5.89567468 C1.72527017,5.90490906 1.7355358,5.91414343 1.7458483,5.92337781" id="Fill-2"></path>
                    <path d="M6.7361608,5.61553093 C6.7361608,4.98426531 6.73002017,4.35295281 6.73845767,3.72182781 C6.7434733,3.34518718 7.03494205,3.04284343 7.40277017,3.00473406 C7.7638483,2.96728093 8.10612955,3.19790593 8.1982858,3.55251531 C8.22425455,3.65235906 8.22467642,3.76073406 8.22486392,3.86517156 C8.22664517,4.91142156 8.22823892,5.95767156 8.2230358,7.00387468 C8.22237955,7.13221843 8.26142642,7.22024968 8.3514733,7.30935906 C8.97880142,7.92998406 9.60167642,8.55515593 10.2245045,9.18032781 C10.4342702,9.39089031 10.5168639,9.64143718 10.4341764,9.93328093 C10.3537858,10.2169216 10.1632389,10.3932653 9.87917642,10.4602028 C9.62164517,10.5208591 9.38708267,10.4557497 9.20056705,10.2707341 C8.4455983,9.52153093 7.69489517,8.76796843 6.94419205,8.01445281 C6.79194205,7.86159343 6.73250455,7.67174968 6.73352263,7.45668718 C6.7365358,6.84299968 6.73461392,6.22926531 6.73461392,5.61553093 L6.7361608,5.61553093 Z" id="Fill-4"></path>
                </g>
            </g>
        </g>
    </g>
</svg>