<?xml version="1.0" encoding="UTF-8"?>
<svg width="24px" height="24px" viewBox="0 0 24 24" version="1.1" xmlns="http://www.w3.org/2000/svg" xmlns:xlink="http://www.w3.org/1999/xlink">
    <title>编组</title>
    <g id="页面-1备份-2" stroke="none" stroke-width="1" fill="none" fill-rule="evenodd">
        <g id="图标" transform="translate(-8.000000, -12.000000)" fill="#000000">
            <g id="编组" transform="translate(8.000000, 12.000000)">
                <path d="M5.988375,14.6598656 C6.07134375,14.5808344 6.11821875,14.5380375 6.16307813,14.4931781 C7.39964063,13.2567094 8.63596875,12.0199594 9.87253125,10.7834906 C10.2795469,10.376475 10.6851094,10.375725 11.0921719,10.7819437 C11.5889531,11.2776938 12.0846563,11.7745219 12.5810625,12.2706469 C12.6261094,12.3157406 12.6730781,12.3589594 12.705375,12.38985 C14.0899688,11.0048813 15.4687969,9.62567813 16.8610781,8.23311562 C16.7476875,8.23311562 16.6297031,8.23452188 16.5117656,8.23283437 C16.0506094,8.22617813 15.7297969,7.92167813 15.7284375,7.49038125 C15.7270313,7.05781875 16.0471406,6.74492812 16.5052969,6.74263125 C17.2304531,6.73888125 17.9556094,6.738975 18.6807656,6.74249062 C19.1569219,6.74483437 19.4605313,7.04558437 19.4632969,7.5201 C19.4675625,8.24535 19.4671875,8.97069375 19.4634844,9.69599063 C19.4611406,10.15635 19.1515781,10.4773031 18.7205156,10.4782875 C18.28875,10.479225 17.9803594,10.1581781 17.9735156,9.6994125 C17.9717813,9.5835375 17.9732813,9.46761563 17.9732813,9.30435 C17.8971094,9.37569375 17.8480781,9.41895938 17.8019063,9.46517812 C16.3212188,10.9455375 14.8409063,12.4263656 13.3603125,13.9068187 C12.930375,14.3366625 12.5303906,14.337225 12.1029375,13.909725 C11.6066719,13.4134125 11.1104531,12.9171 10.6140469,12.4210219 C10.5733594,12.3804281 10.5310781,12.3414281 10.456875,12.2704125 C10.4159063,12.3282094 10.3851094,12.3876 10.3400625,12.4327875 C8.9518125,13.8236625 7.56778125,15.2188031 6.168,16.5980063 C5.89603125,16.8659906 5.973375,17.1560531 6.03234375,17.4397406 C6.09098438,17.721975 6.30651563,17.8956 6.5960625,17.9516625 C6.69267188,17.9703656 6.79354688,17.9728969 6.89245313,17.9729437 C10.7875781,17.9739281 14.6827031,17.9733656 18.5777813,17.9756156 C18.7104844,17.9757094 18.8503125,17.9813812 18.9745313,18.021975 C19.3157344,18.1334906 19.5076406,18.4754906 19.4558438,18.8422875 C19.4086875,19.1760375 19.1162813,19.4407406 18.7702969,19.4623031 C18.7294688,19.4648813 18.6885,19.4653969 18.6475313,19.4653969 C14.6884219,19.4655375 10.7293125,19.4673656 6.77020313,19.464225 C5.74621875,19.4634281 4.88789063,18.842475 4.60246875,17.8923656 C4.53464063,17.6665687 4.50164063,17.4216469 4.50126563,17.1854437 C4.49526563,13.2255375 4.49669209,9.26567813 4.497375,5.30577187 C4.49746875,4.86931875 4.7488125,4.55220937 5.12573438,4.50299063 C5.51432813,4.45227188 5.86335938,4.67117812 5.95945313,5.03980313 C5.988375,5.15075625 5.98725,5.2714125 5.98729688,5.38756875 C5.98865625,8.39408438 5.988375,11.4005531 5.988375,14.406975 L5.988375,14.6598656 Z" id="Fill-2"></path>
            </g>
        </g>
    </g>
</svg>