<?xml version="1.0" encoding="UTF-8"?>
<svg width="24px" height="24px" viewBox="0 0 24 24" version="1.1" xmlns="http://www.w3.org/2000/svg" xmlns:xlink="http://www.w3.org/1999/xlink">
    <title>编组</title>
    <g id="页面-1备份-2" stroke="none" stroke-width="1" fill="none" fill-rule="evenodd">
        <g id="图标" transform="translate(-35.000000, -12.000000)" fill="#000000">
            <g id="编组" transform="translate(35.000000, 12.000000)">
                <path d="M12.0206485,15.0234656 C11.5580382,15.4608094 11.0692247,15.8784187 10.6356301,16.3471687 C10.3052545,16.7043094 10.2207387,17.1693562 10.3000514,17.6555906 C10.4141922,18.3551062 10.9661933,18.927825 11.6512728,19.0539656 C12.3952273,19.1909812 13.1105881,18.8593875 13.4771982,18.2076844 C13.8300739,17.5803562 13.755355,16.7744344 13.2625103,16.2511219 C12.8534314,15.8167781 12.4143524,15.4106062 12.0206485,15.0234656 L12.0206485,15.0234656 Z M11.9560077,5.18749687 C11.9174295,5.2225125 11.8965232,5.23990312 11.8773513,5.25902812 C10.5288018,6.60799687 9.17303354,7.94993437 7.8343278,9.30860625 C6.87577905,10.2815906 6.33924676,11.4676219 6.23898094,12.825825 C6.10571505,14.6312156 6.6831693,16.1896219 7.9758437,17.469825 C8.30331309,17.7941531 8.67100131,18.0673875 9.07553335,18.2978719 C9.08115836,18.2749969 9.08697087,18.2641219 9.0856115,18.2542781 C9.08251774,18.2328094 9.07586148,18.2119031 9.07056459,18.1907156 C8.78664216,17.0563875 9.04820517,16.0637625 9.86073801,15.2252156 C10.3946453,14.6742 10.9428026,14.1367781 11.4874912,13.5962625 C11.7932574,13.2928406 12.1724769,13.2904969 12.4769306,13.5921375 C13.0260254,14.1360281 13.5760578,14.6791687 14.1156838,15.2323406 C14.8132789,15.9473719 15.1054045,16.8051844 14.976498,17.79945 C14.9553105,17.9624812 14.9150448,18.123075 14.8812478,18.2969344 C18.0009258,16.4991844 18.4648954,12.5157937 16.8280172,10.219575 C16.7911265,10.2610594 16.7552202,10.3021687 16.718517,10.3426687 C15.8393278,11.3114812 14.7501851,11.8168406 13.437495,11.8242 C13.0544786,11.8263562 12.7609937,11.5580906 12.7612749,11.1912937 C12.7613687,11.058825 12.8059938,10.922325 12.8501501,10.79445 C13.3143073,9.4512 13.3254635,8.10991875 12.8367907,6.771075 C12.6291809,6.20229375 12.3378053,5.679075 11.9560077,5.18749687 L11.9560077,5.18749687 Z M12.1151955,3.56248125 C12.2846021,3.6868875 12.4825556,3.78598125 12.6190559,3.9396375 C14.227059,5.75055938 14.8025914,7.85266875 14.3659968,10.2334969 C14.3584499,10.2747938 14.3572312,10.3172625 14.3516999,10.3723406 C14.8210602,10.229325 15.2242797,9.9973875 15.5462179,9.6535125 C15.7915621,9.39148125 16.0129532,9.10193438 16.211891,8.80259063 C16.5285792,8.32610625 17.0124239,8.280825 17.3791746,8.71905938 C18.6270833,10.2100125 19.1789437,11.9300906 19.051256,13.8654188 C18.8490837,16.9302938 16.5208916,19.6006688 13.5061201,20.2391531 C9.99245702,20.9832469 6.51577835,19.1024344 5.3263229,15.713325 C4.39210233,13.0514344 4.89038455,10.5913406 6.80002891,8.50605938 C8.1128596,7.07248125 9.5366905,5.74062188 10.9109276,4.36334063 C11.0696466,4.20424688 11.2202563,4.03577813 11.3900379,3.88952813 C11.5323506,3.76690313 11.6971635,3.67052813 11.8519919,3.56248125 L12.1151955,3.56248125 Z" id="Fill-2"></path>
            </g>
        </g>
    </g>
</svg>